# Blender v2.79 (sub 0) OBJ File: 'INNI.blend'
# www.blender.org
o Cylinder.003_Cylinder.010
v 0.000000 -0.125160 -0.125160
v 0.000000 0.188958 -0.075527
v 0.073567 -0.125160 -0.101257
v 0.044393 0.188958 -0.061102
v 0.119034 -0.125160 -0.038677
v 0.071830 0.188958 -0.023339
v 0.119034 -0.125160 0.038677
v 0.071830 0.188958 0.023339
v 0.073567 -0.125160 0.101257
v 0.044393 0.188958 0.061102
v -0.000000 -0.125160 0.125160
v -0.000000 0.188958 0.075527
v -0.073567 -0.125160 0.101257
v -0.053352 0.176480 0.052838
v -0.119034 -0.125160 0.038677
v -0.073999 0.176438 0.024044
v -0.119034 -0.125160 -0.038677
v -0.073999 0.176438 -0.024044
v -0.073567 -0.125160 -0.101257
v -0.053352 0.176480 -0.052838
v 0.077671 0.248705 -0.106905
v -0.000000 0.248705 -0.132142
v 0.125675 0.248705 -0.040834
v 0.125675 0.248705 0.040834
v 0.077671 0.248705 0.106905
v -0.000000 0.248705 0.132142
v -0.077671 0.248705 0.106905
v -0.125675 0.248705 0.040834
v -0.125675 0.248705 -0.040834
v -0.077671 0.248705 -0.106905
v 0.025325 0.410102 -0.034857
v -0.000000 0.410102 -0.043086
v 0.040977 0.410102 -0.013314
v 0.040977 0.410102 0.013314
v 0.025325 0.410102 0.034857
v -0.000000 0.410102 0.043086
v -0.025325 0.410102 0.034857
v -0.040977 0.410102 0.013314
v -0.040977 0.410102 -0.013314
v -0.025325 0.410102 -0.034857
v 0.037623 0.346256 -0.051783
v -0.000000 0.346256 -0.064007
v 0.060875 0.346256 -0.019779
v 0.060875 0.346256 0.019779
v 0.037623 0.346256 0.051783
v -0.000000 0.346256 0.064007
v -0.037623 0.346256 0.051783
v -0.060875 0.346256 0.019779
v -0.060875 0.346256 -0.019779
v -0.037623 0.346256 -0.051783
v 0.025325 0.524467 -0.034857
v -0.000000 0.524467 -0.043086
v 0.040977 0.524467 -0.013314
v 0.040977 0.524467 0.013314
v 0.025325 0.524467 0.034857
v -0.000000 0.524467 0.043086
v -0.025325 0.524467 0.034857
v -0.040977 0.524467 0.013314
v -0.040977 0.524467 -0.013314
v -0.025325 0.524467 -0.034857
v -0.000000 -0.073866 -0.156508
v 0.091993 -0.073866 -0.126618
v 0.148848 -0.073866 -0.048364
v 0.148848 -0.073866 0.048364
v 0.091993 -0.073866 0.126618
v -0.000000 -0.073866 0.156508
v -0.091993 -0.073866 0.126618
v -0.148848 -0.073866 0.048364
v -0.148848 -0.073866 -0.048364
v -0.091993 -0.073866 -0.126618
v -0.000000 0.031412 -0.107256
v 0.063043 0.031412 -0.086772
v 0.102006 0.031412 -0.033144
v 0.102006 0.031412 0.033144
v 0.063043 0.031412 0.086772
v -0.000000 0.031412 0.107256
v -0.069048 0.043890 0.074441
v -0.102006 0.031412 0.033144
v -0.102006 0.031412 -0.033144
v -0.069048 0.043890 -0.074441
v 0.089460 -0.021227 -0.123131
v 0.144749 -0.021227 -0.047032
v 0.144749 -0.021227 0.047032
v 0.089460 -0.021227 0.123131
v -0.000000 -0.021227 0.152198
v -0.089460 -0.021227 0.123131
v -0.144749 -0.021227 0.047032
v -0.144749 -0.021227 -0.047032
v -0.089460 -0.021227 -0.123131
v -0.000000 -0.021227 -0.152198
v -0.071830 0.188958 0.023339
v -0.044393 0.188958 0.061102
v -0.071830 0.188958 -0.023339
v -0.044393 0.188958 -0.061102
v -0.063043 0.031412 0.086772
v -0.063043 0.031412 -0.086772
v -0.099837 0.043932 -0.032439
v -0.099837 0.043932 0.032439
vt 0.608667 0.539655
vt 0.608210 0.437837
vt 0.609970 0.437613
vt 0.611166 0.539337
vt 0.587562 0.322551
vt 0.586366 0.424276
vt 0.584606 0.424051
vt 0.585063 0.322233
vt 0.582431 0.424051
vt 0.581974 0.322233
vt 0.580671 0.424276
vt 0.579474 0.322551
vt 0.599364 0.322551
vt 0.598168 0.424276
vt 0.596408 0.424051
vt 0.596865 0.322233
vt 0.594233 0.424051
vt 0.593776 0.322233
vt 0.654475 0.416535
vt 0.652871 0.552084
vt 0.650732 0.546353
vt 0.651356 0.408094
vt 0.647162 0.546353
vt 0.646538 0.408094
vt 0.616334 0.380464
vt 0.615662 0.409087
vt 0.613023 0.409087
vt 0.614200 0.359008
vt 0.645023 0.552084
vt 0.643419 0.416536
vt 0.605578 0.539655
vt 0.606035 0.437837
vt 0.595674 0.802136
vt 0.592245 0.786724
vt 0.590126 0.746375
vt 0.590126 0.696500
vt 0.592245 0.656151
vt 0.595674 0.640739
vt 0.599102 0.656151
vt 0.601221 0.696500
vt 0.601221 0.746375
vt 0.599102 0.786724
vt 0.609025 0.399757
vt 0.605219 0.399757
vt 0.606201 0.336335
vt 0.608044 0.336335
vt 0.616812 0.250682
vt 0.615533 0.275031
vt 0.613023 0.263750
vt 0.615261 0.221150
vt 0.615533 0.305127
vt 0.613023 0.316407
vt 0.616812 0.329475
vt 0.615261 0.359008
vt 0.597223 0.462131
vt 0.593417 0.462131
vt 0.613967 0.662195
vt 0.613295 0.690818
vt 0.610656 0.690818
vt 0.611833 0.640739
vt 0.613967 0.719442
vt 0.611833 0.740898
vt 0.616334 0.437711
vt 0.614200 0.459167
vt 0.585421 0.462131
vt 0.581615 0.462131
vt 0.291521 0.547320
vt 0.292525 0.547192
vt 0.292525 0.620924
vt 0.291521 0.621052
vt 0.603944 0.811084
vt 0.601221 0.789522
vt 0.605224 0.737023
vt 0.606542 0.747467
vt 0.578536 0.462523
vt 0.582596 0.525553
vt 0.581105 0.525743
vt 0.612105 0.399365
vt 0.609536 0.336145
vt 0.607548 0.828022
vt 0.608288 0.755672
vt 0.600303 0.462523
vt 0.597734 0.525743
vt 0.596242 0.525553
vt 0.588501 0.462523
vt 0.585932 0.525743
vt 0.584440 0.525553
vt 0.610656 0.833865
vt 0.609794 0.758502
vt 0.594399 0.525553
vt 0.607743 0.295010
vt 0.608747 0.294882
vt 0.585143 0.567006
vt 0.584139 0.566878
vt 0.582898 0.566878
vt 0.581894 0.567006
vt 0.596945 0.567006
vt 0.595941 0.566878
vt 0.594700 0.566878
vt 0.606942 0.700970
vt 0.607830 0.708000
vt 0.609005 0.713523
vt 0.610018 0.715428
vt 0.606502 0.295010
vt 0.325741 0.489736
vt 0.324561 0.495041
vt 0.323380 0.489736
vt 0.322651 0.475846
vt 0.322651 0.458677
vt 0.323380 0.444787
vt 0.324561 0.439481
vt 0.325741 0.444787
vt 0.326470 0.458677
vt 0.326470 0.475846
vt 0.318375 0.275196
vt 0.317370 0.275324
vt 0.317370 0.201591
vt 0.318375 0.201464
vt 0.318632 0.693837
vt 0.317457 0.688314
vt 0.319109 0.621052
vt 0.320284 0.626575
vt 0.305568 0.547192
vt 0.306572 0.547320
vt 0.306572 0.621052
vt 0.305568 0.620924
vt 0.293766 0.547192
vt 0.294770 0.547320
vt 0.294770 0.621052
vt 0.293766 0.620924
vt 0.316130 0.275324
vt 0.315126 0.275196
vt 0.315126 0.201464
vt 0.316130 0.201591
vt 0.304327 0.547192
vt 0.304327 0.620924
vt 0.303323 0.547320
vt 0.303323 0.621052
vt 0.605320 0.640739
vt 0.604868 0.607912
vt 0.609376 0.607912
vt 0.608925 0.640739
vt 0.602403 0.640367
vt 0.601221 0.607448
vt 0.585158 0.640739
vt 0.585610 0.667444
vt 0.581102 0.667444
vt 0.581553 0.640739
vt 0.593518 0.221150
vt 0.593066 0.253976
vt 0.589419 0.254440
vt 0.590601 0.221521
vt 0.597123 0.221150
vt 0.597574 0.253976
vt 0.600039 0.221521
vt 0.601221 0.254441
vt 0.581716 0.221150
vt 0.581264 0.253976
vt 0.577617 0.254441
vt 0.578799 0.221521
vt 0.585321 0.221150
vt 0.585772 0.253976
vt 0.588237 0.221521
vt 0.589419 0.254441
vt 0.613023 0.607448
vt 0.611841 0.640367
vt 0.604930 0.573942
vt 0.609314 0.573942
vt 0.581164 0.700849
vt 0.581811 0.740937
vt 0.579312 0.747674
vt 0.577617 0.710410
vt 0.585548 0.700849
vt 0.584900 0.740937
vt 0.589094 0.710410
vt 0.587400 0.747674
vt 0.597512 0.287947
vt 0.593128 0.287947
vt 0.601059 0.288398
vt 0.581326 0.287947
vt 0.577780 0.288398
vt 0.585710 0.287947
vt 0.589257 0.288398
vt 0.612861 0.573490
vt 0.589582 0.288398
vt 0.601384 0.573490
vt 0.287767 0.526667
vt 0.289905 0.532398
vt 0.290519 0.547216
vt 0.287715 0.539656
vt 0.284196 0.526667
vt 0.284248 0.539656
vt 0.282058 0.532398
vt 0.281444 0.547216
vt 0.291509 0.396849
vt 0.292425 0.386154
vt 0.280454 0.396849
vt 0.279538 0.386154
vt 0.283573 0.388408
vt 0.283520 0.375419
vt 0.288390 0.388408
vt 0.288443 0.375419
vn 0.3035 0.1881 -0.9341
vn 0.7946 0.1881 -0.5773
vn 0.9821 0.1881 0.0000
vn 0.7946 0.1881 0.5773
vn 0.3035 0.1881 0.9341
vn -0.3035 0.1881 0.9341
vn -0.7943 0.1898 0.5771
vn -0.9815 0.1914 0.0000
vn 0.6010 -0.6695 -0.4366
vn -0.7943 0.1898 -0.5771
vn -0.3035 0.1881 -0.9341
vn 0.0000 -1.0000 -0.0000
vn -0.2574 0.5533 -0.7922
vn -0.2296 -0.6695 -0.7065
vn -0.6010 -0.6695 -0.4366
vn -0.7428 -0.6695 0.0000
vn -0.6010 -0.6695 0.4366
vn -0.2296 -0.6695 0.7065
vn 0.2296 -0.6695 0.7065
vn 0.6010 -0.6695 0.4366
vn 0.2296 -0.6695 -0.7065
vn 0.7428 -0.6695 0.0000
vn 0.8090 0.0000 0.5878
vn -0.6739 0.5533 0.4896
vn 0.6739 0.5533 0.4896
vn 0.2574 0.5533 -0.7922
vn -0.8330 0.5533 0.0000
vn 0.2574 0.5533 0.7922
vn 0.6739 0.5533 -0.4896
vn -0.6739 0.5533 -0.4896
vn -0.2574 0.5533 0.7922
vn 0.8330 0.5533 0.0000
vn 0.2950 0.2975 -0.9080
vn 0.7724 0.2975 -0.5612
vn 0.9547 0.2975 0.0000
vn 0.7724 0.2975 0.5612
vn 0.2950 0.2975 0.9080
vn -0.2950 0.2975 0.9080
vn -0.7724 0.2975 0.5612
vn -0.9547 0.2975 0.0000
vn -0.7724 0.2975 -0.5612
vn -0.2950 0.2975 -0.9080
vn 0.0000 1.0000 0.0000
vn 0.3090 0.0000 -0.9511
vn -1.0000 -0.0000 0.0000
vn 0.3090 0.0000 0.9511
vn 0.8090 0.0000 -0.5878
vn -0.8090 -0.0000 -0.5878
vn -0.3090 -0.0000 0.9511
vn 1.0000 0.0000 0.0000
vn -0.3090 -0.0000 -0.9511
vn -0.8090 -0.0000 0.5878
vn -0.2672 -0.5025 -0.8223
vn -0.6994 -0.5025 -0.5082
vn -0.8646 -0.5025 0.0000
vn -0.6994 -0.5025 0.5082
vn -0.2672 -0.5025 0.8223
vn 0.2672 -0.5025 0.8223
vn 0.6994 -0.5025 0.5082
vn 0.8646 -0.5025 0.0000
vn 0.6994 -0.5025 -0.5082
vn 0.2672 -0.5025 -0.8223
vn -0.2399 0.6304 -0.7383
vn -0.6280 0.6304 -0.4563
vn -0.7763 0.6304 0.0000
vn -0.6280 0.6304 0.4563
vn -0.2399 0.6304 0.7383
vn 0.2399 0.6304 0.7383
vn 0.6280 0.6304 0.4563
vn 0.7763 0.6304 0.0000
vn 0.6280 0.6304 -0.4563
vn 0.2399 0.6304 -0.7383
vn 0.3081 0.0776 -0.9482
vn 0.8066 0.0776 -0.5860
vn 0.9970 0.0776 0.0000
vn 0.8066 0.0776 0.5860
vn 0.3081 0.0776 0.9482
vn -0.3081 0.0776 0.9482
vn -0.8066 0.0776 0.5860
vn -0.9970 0.0776 0.0000
vn -0.8066 0.0776 -0.5860
vn -0.3081 0.0776 -0.9482
vn -0.7973 0.1808 0.5759
vn -0.9853 0.1707 0.0000
vn -0.7973 0.1808 -0.5759
vn -0.7946 0.1881 0.5773
vn -0.7946 0.1881 -0.5773
vn -0.7946 0.1804 -0.5797
vn -0.7946 0.1804 0.5797
s off
f 71/1/1 2/2/1 4/3/1 72/4/1
f 72/5/2 4/6/2 6/7/2 73/8/2
f 73/8/3 6/7/3 8/9/3 74/10/3
f 74/10/4 8/9/4 10/11/4 75/12/4
f 75/13/5 10/14/5 12/15/5 76/16/5
f 76/16/6 12/15/6 92/17/6 95/18/6
f 77/19/7 14/20/7 16/21/7 98/22/7
f 98/22/8 16/21/8 18/23/8 97/24/8
f 6/25/9 4/26/9 21/27/9 23/28/9
f 97/24/10 18/23/10 20/29/10 80/30/10
f 96/31/11 94/32/11 2/2/11 71/1/11
f 1/33/12 3/34/12 5/35/12 7/36/12 9/37/12 11/38/12 13/39/12 15/40/12 17/41/12 19/42/12
f 22/43/13 30/44/13 50/45/13 42/46/13
f 2/2/14 94/32/14 30/44/14 22/43/14
f 94/47/15 93/48/15 29/49/15 30/50/15
f 93/48/16 91/51/16 28/52/16 29/49/16
f 91/51/17 92/53/17 27/54/17 28/52/17
f 92/17/18 12/15/18 26/55/18 27/56/18
f 12/57/19 10/58/19 25/59/19 26/60/19
f 10/58/20 8/61/20 24/62/20 25/59/20
f 4/26/21 2/63/21 22/64/21 21/27/21
f 8/9/22 6/7/22 23/65/22 24/66/22
f 35/67/23 34/68/23 54/69/23 55/70/23
f 28/71/24 27/72/24 47/73/24 48/74/24
f 25/75/25 24/66/25 44/76/25 45/77/25
f 21/78/26 22/43/26 42/46/26 41/79/26
f 29/80/27 28/71/27 48/74/27 49/81/27
f 26/55/28 25/82/28 45/83/28 46/84/28
f 23/65/29 21/85/29 41/86/29 43/87/29
f 30/88/30 29/80/30 49/81/30 50/89/30
f 27/56/31 26/55/31 46/84/31 47/90/31
f 24/66/32 23/65/32 43/87/32 44/76/32
f 32/91/33 31/92/33 41/79/33 42/46/33
f 31/93/34 33/94/34 43/87/34 41/86/34
f 33/94/35 34/95/35 44/76/35 43/87/35
f 34/95/36 35/96/36 45/77/36 44/76/36
f 35/97/37 36/98/37 46/84/37 45/83/37
f 36/98/38 37/99/38 47/90/38 46/84/38
f 37/100/39 38/101/39 48/74/39 47/73/39
f 38/101/40 39/102/40 49/81/40 48/74/40
f 39/102/41 40/103/41 50/89/41 49/81/41
f 40/104/42 32/91/42 42/46/42 50/45/42
f 51/105/43 52/106/43 60/107/43 59/108/43 58/109/43 57/110/43 56/111/43 55/112/43 54/113/43 53/114/43
f 31/115/44 32/116/44 52/117/44 51/118/44
f 39/119/45 38/120/45 58/121/45 59/122/45
f 36/123/46 35/124/46 55/125/46 56/126/46
f 33/127/47 31/128/47 51/129/47 53/130/47
f 40/131/48 39/132/48 59/133/48 60/134/48
f 37/135/49 36/123/49 56/126/49 57/136/49
f 34/68/50 33/127/50 53/130/50 54/69/50
f 32/116/51 40/131/51 60/134/51 52/117/51
f 38/137/52 37/135/52 57/136/52 58/138/52
f 19/139/53 70/140/53 61/141/53 1/142/53
f 17/143/54 69/144/54 70/140/54 19/139/54
f 15/145/55 68/146/55 69/147/55 17/148/55
f 13/149/56 67/150/56 68/151/56 15/152/56
f 11/153/57 66/154/57 67/150/57 13/149/57
f 9/155/58 65/156/58 66/154/58 11/153/58
f 7/157/59 64/158/59 65/159/59 9/160/59
f 5/161/60 63/162/60 64/158/60 7/157/60
f 3/163/61 62/164/61 63/162/61 5/161/61
f 1/142/62 61/141/62 62/165/62 3/166/62
f 89/167/63 96/31/63 71/1/63 90/168/63
f 88/169/64 79/170/64 96/171/64 89/172/64
f 87/173/65 78/174/65 79/170/65 88/169/65
f 86/175/66 95/176/66 78/174/66 87/173/66
f 85/177/67 76/16/67 95/18/67 86/178/67
f 84/179/68 75/13/68 76/16/68 85/177/68
f 83/180/69 74/10/69 75/12/69 84/181/69
f 82/182/70 73/8/70 74/10/70 83/180/70
f 81/183/71 72/5/71 73/8/71 82/182/71
f 90/168/72 71/1/72 72/4/72 81/184/72
f 61/141/73 90/168/73 81/184/73 62/165/73
f 62/164/74 81/183/74 82/182/74 63/162/74
f 63/162/75 82/182/75 83/180/75 64/158/75
f 64/158/76 83/180/76 84/181/76 65/159/76
f 65/156/77 84/179/77 85/177/77 66/154/77
f 66/154/78 85/177/78 86/178/78 67/150/78
f 67/150/79 86/178/79 87/185/79 68/151/79
f 68/146/80 87/173/80 88/169/80 69/147/80
f 69/144/81 88/186/81 89/167/81 70/140/81
f 70/140/82 89/167/82 90/168/82 61/141/82
f 16/187/83 14/188/83 92/189/83 91/190/83
f 18/191/84 16/187/84 91/190/84 93/192/84
f 20/193/85 18/191/85 93/192/85 94/194/85
f 14/188/86 77/195/86 95/196/86 92/189/86
f 80/197/87 20/193/87 94/194/87 96/198/87
f 97/199/88 80/197/88 96/198/88 79/200/88
f 98/201/84 97/199/84 79/200/84 78/202/84
f 77/195/89 98/201/89 78/202/89 95/196/89
