# Blender v2.79 (sub 0) OBJ File: 'INNI.blend'
# www.blender.org
mtllib ikkunaseinä.mtl
o Circle.029_Circle.030
v 0.000000 0.492468 6.263919
v -0.245472 0.348227 6.263919
v -0.347150 -0.000000 6.263919
v -0.245472 -0.348228 6.263919
v 0.000000 -0.492468 6.263919
v 0.245472 -0.348228 6.263919
v 0.347150 -0.000000 6.263919
v 0.245472 0.348227 6.263919
v 0.245472 4.287972 6.263919
v 0.347150 3.939744 6.263919
v 0.245472 3.591516 6.263919
v 0.000000 3.447276 6.263919
v -0.245472 3.591516 6.263919
v -0.347150 3.939744 6.263919
v 0.000000 4.432212 6.263919
v -0.245472 4.287972 6.263919
v 0.000000 1.477404 6.263919
v -0.245472 1.333163 6.263919
v -0.347150 0.984936 6.263919
v -0.245472 0.636708 6.263919
v 0.000000 0.492468 6.263919
v 0.245472 0.636708 6.263919
v 0.347150 0.984936 6.263919
v 0.245472 1.333163 6.263919
v 0.245472 3.303035 6.263919
v 0.347150 2.954808 6.263919
v 0.245472 2.606580 6.263919
v 0.000000 2.462340 6.263919
v -0.245472 2.606580 6.263919
v -0.347150 2.954808 6.263919
v 0.000000 3.447276 6.263919
v -0.245472 3.303035 6.263919
v 0.000000 2.462340 6.263919
v -0.245472 2.318099 6.263919
v -0.347150 1.969872 6.263919
v -0.245472 1.621644 6.263919
v 0.000000 1.477404 6.263919
v 0.245472 1.621645 6.263919
v 0.347150 1.969872 6.263919
v 0.245472 2.318099 6.263919
v 0.245472 2.318099 6.263919
v 0.347150 1.969872 6.263919
v 0.245472 1.621645 6.263919
v 0.000000 1.477404 6.263919
v -0.245472 1.621644 6.263919
v -0.347150 1.969872 6.263919
v 0.000000 2.462340 6.263919
v -0.245472 2.318099 6.263919
v 0.000000 3.447276 6.263919
v -0.245472 3.303035 6.263919
v -0.347150 2.954808 6.263919
v -0.245472 2.606580 6.263919
v 0.000000 2.462340 6.263919
v 0.245472 2.606580 6.263919
v 0.347150 2.954808 6.263919
v 0.245472 3.303035 6.263919
v 0.245472 1.333163 6.263919
v 0.347150 0.984936 6.263919
v 0.245472 0.636708 6.263919
v 0.000000 0.492468 6.263919
v -0.245472 0.636708 6.263919
v -0.347150 0.984936 6.263919
v 0.000000 1.477404 6.263919
v -0.245472 1.333163 6.263919
v 0.000000 4.432212 6.263919
v -0.245472 4.287972 6.263919
v -0.347150 3.939744 6.263919
v -0.245472 3.591516 6.263919
v 0.000000 3.447276 6.263919
v 0.245472 3.591516 6.263919
v 0.347150 3.939744 6.263919
v 0.245472 4.287972 6.263919
v 0.245472 0.348227 6.263919
v 0.347150 -0.000000 6.263919
v 0.245472 -0.348228 6.263919
v 0.000000 -0.492468 6.263919
v -0.245472 -0.348228 6.263919
v -0.347150 -0.000000 6.263919
v 0.000000 0.492468 6.263919
v -0.245472 0.348227 6.263919
v 0.000000 4.432212 0.047178
v 0.245472 4.287972 0.047178
v 0.000000 3.447276 0.047178
v -0.245472 3.591516 0.047178
v -0.347150 3.939744 0.047178
v -0.245472 4.287972 0.047178
v 0.347150 3.939744 0.047178
v 0.245472 3.591516 0.047178
v 0.245472 2.606580 0.047178
v 0.000000 2.462340 0.047178
v 0.000000 2.462340 0.047178
v 0.245472 2.318099 0.047178
v 0.000000 1.477404 0.047178
v -0.245472 1.621644 0.047178
v -0.347150 1.969872 0.047178
v -0.245472 2.318099 0.047178
v 0.000000 3.447276 0.047178
v 0.245472 3.303035 0.047178
v -0.245472 2.606580 0.047178
v -0.347150 2.954808 0.047178
v 0.347150 1.969872 0.047178
v 0.245472 1.621645 0.047178
v -0.245472 3.303035 0.047178
v 0.347150 2.954808 0.047178
v 0.245472 0.636708 0.047178
v 0.000000 0.492468 0.047178
v 0.000000 0.492468 0.047178
v 0.245472 0.348227 0.047178
v 0.000000 -0.492468 0.047178
v -0.245472 -0.348228 0.047178
v -0.347150 -0.000000 0.047178
v -0.245472 0.348227 0.047178
v 0.000000 1.477404 0.047178
v 0.245472 1.333163 0.047178
v -0.245472 0.636708 0.047178
v -0.347150 0.984936 0.047178
v 0.347150 -0.000000 0.047178
v 0.245472 -0.348228 0.047178
v -0.245472 1.333163 0.047178
v 0.347150 0.984936 0.047178
v 0.001264 3.448019 3.111653
v -0.001264 3.448019 3.111653
v -0.245472 2.606580 5.111653
v 0.347150 2.954808 5.111653
v 0.001264 3.448019 5.111653
v 0.000000 3.447276 5.111653
v 0.245472 3.303035 5.111653
v -0.245472 2.318099 5.111653
v -0.245472 3.303035 5.111653
v -0.347150 2.954808 5.111653
v 0.000000 3.447276 5.111653
v -0.001264 3.448019 5.111653
v 0.000000 1.477404 5.111653
v 0.245472 2.606580 5.111653
v -0.050008 1.448019 5.111653
v -0.245472 1.621644 5.111653
v 0.000000 1.477404 5.111653
v 0.000000 2.462340 5.111653
v 0.050009 1.448019 5.111653
v 0.245472 2.318099 5.111653
v 0.000000 2.462340 5.111653
v 0.347150 1.969872 5.111653
v -0.347150 1.969872 5.111653
v 0.245472 1.621645 5.111653
v 0.050009 1.448019 3.111653
v -0.050008 1.448019 3.111653
v 0.245472 2.606580 3.111653
v 0.347150 2.954808 3.111653
v 0.000000 3.447276 3.111653
v 0.000000 2.462340 3.111653
v 0.245472 2.318099 3.111653
v 0.245472 3.303035 3.111653
v 0.000000 2.462340 3.111653
v -0.245472 3.303035 3.111653
v -0.347150 2.954808 3.111653
v 0.000000 3.447276 3.111653
v 0.000000 1.477404 3.111653
v -0.245472 2.606580 3.111653
v -0.245472 1.621644 3.111653
v 0.000000 1.477404 3.111653
v -0.245472 2.318099 3.111653
v 0.347150 1.969872 3.111653
v -0.347150 1.969872 3.111653
v 0.245472 1.621645 3.111653
v -0.342244 1.439422 5.137670
v -0.342244 3.496721 5.137670
v -0.342244 1.439422 3.080370
v -0.342244 3.496721 3.080370
v 0.328888 1.439422 5.137670
v 0.328888 3.496721 5.137670
v 0.328888 1.439422 3.080370
v 0.328888 3.496721 3.080370
v 0.328888 1.698301 4.928398
v -0.342244 1.698301 4.928398
v 0.328888 2.393313 4.928398
v -0.342244 2.393313 4.928398
v 0.328888 2.393313 3.282349
v -0.342244 2.393313 3.282349
v 0.328888 1.698300 3.282349
v -0.342244 1.698301 3.282349
v 0.328888 1.698300 4.233385
v -0.342244 1.698301 4.233385
v 0.328888 2.605474 3.977362
v -0.342244 2.605474 3.977362
v 0.328888 3.300488 4.233385
v -0.342244 3.300488 4.233385
v 0.328888 2.605474 3.282349
v -0.342244 2.605474 3.282349
v 0.328888 3.300487 3.977362
v -0.342244 3.300487 3.977362
v 0.328888 3.300487 3.282349
v -0.342244 3.300487 3.282349
v 0.328888 1.698300 3.977362
v -0.342244 1.698301 3.977362
v 0.328888 2.393313 4.233385
v -0.342244 2.393313 4.233385
v 0.328888 2.393313 3.977362
v -0.342244 2.393313 3.977362
v 0.328888 2.605475 4.928398
v -0.342244 2.605475 4.928398
v 0.328888 3.300488 4.928398
v -0.342244 3.300488 4.928398
v 0.328888 2.605475 4.233385
v -0.342244 2.605475 4.233385
vt 0.338915 0.658182
vt 0.338915 0.658182
vt 0.336864 0.689538
vt 0.336864 0.689538
vt 0.338915 0.613838
vt 0.338915 0.613838
vt 0.352923 0.613838
vt 0.352923 0.613838
vt 0.352923 0.658182
vt 0.352923 0.658182
vt 0.356869 0.689647
vt 0.356869 0.689647
vt 0.354817 0.658292
vt 0.354817 0.658292
vt 0.350872 0.689538
vt 0.350872 0.689538
vt 0.347970 0.689538
vt 0.347970 0.689538
vt 0.336864 0.582483
vt 0.336864 0.582483
vt 0.359770 0.689647
vt 0.359770 0.689647
vt 0.408638 0.484052
vt 0.411539 0.484052
vt 0.413591 0.515407
vt 0.413591 0.559751
vt 0.411539 0.591106
vt 0.408638 0.591106
vt 0.406587 0.559751
vt 0.406587 0.515407
vt 0.361821 0.658292
vt 0.361821 0.658292
vt 0.361821 0.613948
vt 0.361821 0.613948
vt 0.343868 0.689538
vt 0.343868 0.689538
vt 0.340967 0.689538
vt 0.340967 0.689538
vt 0.333963 0.582483
vt 0.333963 0.582483
vt 0.338915 0.658182
vt 0.338915 0.658182
vt 0.338915 0.613838
vt 0.338915 0.613838
vt 0.359770 0.582593
vt 0.359770 0.582593
vt 0.331911 0.613838
vt 0.331911 0.613838
vt 0.387361 0.559949
vt 0.387361 0.515606
vt 0.389413 0.484250
vt 0.392314 0.484250
vt 0.394365 0.515606
vt 0.394365 0.559949
vt 0.392314 0.591305
vt 0.389413 0.591305
vt 0.331911 0.658182
vt 0.331911 0.658182
vt 0.333963 0.689538
vt 0.333963 0.689538
vt 0.326694 0.614037
vt 0.326694 0.614037
vt 0.326694 0.658381
vt 0.326694 0.658381
vt 0.345919 0.658182
vt 0.345919 0.658182
vt 0.324642 0.689736
vt 0.324642 0.689736
vt 0.321741 0.689736
vt 0.321741 0.689736
vt 0.345919 0.613838
vt 0.345919 0.613838
vt 0.420595 0.559751
vt 0.418543 0.591106
vt 0.415642 0.591106
vt 0.413591 0.559751
vt 0.413591 0.515407
vt 0.415642 0.484052
vt 0.418543 0.484052
vt 0.420595 0.515407
vt 0.350872 0.582483
vt 0.350872 0.582483
vt 0.347970 0.582483
vt 0.347970 0.582483
vt 0.340967 0.582483
vt 0.340967 0.582483
vt 0.324642 0.582682
vt 0.324642 0.582682
vt 0.343868 0.582483
vt 0.343868 0.582483
vt 0.345919 0.613838
vt 0.345919 0.613838
vt 0.321741 0.582682
vt 0.321741 0.582682
vt 0.429493 0.515517
vt 0.429493 0.559860
vt 0.427441 0.591216
vt 0.424540 0.591216
vt 0.422489 0.559860
vt 0.422489 0.515517
vt 0.424540 0.484161
vt 0.427441 0.484161
vt 0.356869 0.582593
vt 0.356869 0.582593
vt 0.359770 0.689647
vt 0.356869 0.689647
vt 0.331911 0.658182
vt 0.331911 0.613838
vt 0.345919 0.658182
vt 0.345919 0.658182
vt 0.319690 0.614037
vt 0.319690 0.614037
vt 0.338915 0.658182
vt 0.338915 0.613838
vt 0.321741 0.689736
vt 0.321323 0.683349
vt 0.321323 0.683348
vt 0.321741 0.689736
vt 0.321741 0.689736
vt 0.319690 0.658381
vt 0.319690 0.658381
vt 0.354817 0.613948
vt 0.354817 0.613948
vt 0.356869 0.582593
vt 0.401634 0.591106
vt 0.399583 0.559751
vt 0.399583 0.515407
vt 0.401634 0.484052
vt 0.404535 0.484052
vt 0.406587 0.515407
vt 0.406587 0.559751
vt 0.404535 0.591106
vt 0.354817 0.613948
vt 0.319690 0.658381
vt 0.429493 0.515517
vt 0.427441 0.484161
vt 0.424540 0.484161
vt 0.422489 0.515517
vt 0.422489 0.559860
vt 0.424540 0.591216
vt 0.427441 0.591216
vt 0.429493 0.559860
vt 0.387361 0.559949
vt 0.389413 0.591305
vt 0.392314 0.591305
vt 0.394365 0.559949
vt 0.394365 0.515606
vt 0.392314 0.484250
vt 0.389413 0.484250
vt 0.387361 0.515606
vt 0.401634 0.591106
vt 0.404535 0.591106
vt 0.406587 0.559751
vt 0.406587 0.515407
vt 0.404535 0.484052
vt 0.401634 0.484052
vt 0.399583 0.515407
vt 0.399583 0.559751
vt 0.408638 0.484052
vt 0.406587 0.515407
vt 0.406587 0.559751
vt 0.408638 0.591106
vt 0.411539 0.591106
vt 0.413591 0.559751
vt 0.413591 0.515407
vt 0.411539 0.484052
vt 0.420595 0.559751
vt 0.420595 0.515407
vt 0.418543 0.484052
vt 0.415642 0.484052
vt 0.413591 0.515407
vt 0.413591 0.559751
vt 0.415642 0.591106
vt 0.418543 0.591106
vt 0.326694 0.614037
vt 0.326694 0.658381
vt 0.345919 0.613838
vt 0.345919 0.658182
vt 0.345919 0.658182
vt 0.345919 0.613838
vt 0.354817 0.658292
vt 0.340967 0.582483
vt 0.343868 0.582483
vt 0.359770 0.582593
vt 0.361821 0.613948
vt 0.350872 0.582483
vt 0.352923 0.613838
vt 0.324642 0.689736
vt 0.322332 0.689736
vt 0.322332 0.689736
vt 0.347970 0.689538
vt 0.319690 0.614037
vt 0.321741 0.582682
vt 0.333963 0.582483
vt 0.333978 0.582483
vt 0.333978 0.582483
vt 0.333963 0.582483
vt 0.333963 0.582483
vt 0.336864 0.582483
vt 0.352923 0.658182
vt 0.350872 0.689538
vt 0.340967 0.689538
vt 0.338915 0.658182
vt 0.336864 0.689538
vt 0.333952 0.582644
vt 0.333952 0.582644
vt 0.361821 0.658292
vt 0.343868 0.689538
vt 0.333963 0.689538
vt 0.347970 0.582483
vt 0.338915 0.613838
vt 0.324642 0.582682
vt 0.338718 0.545669
vt 0.338718 0.545669
vt 0.338718 0.545669
vt 0.338718 0.545669
vt 0.338718 0.545669
vt 0.338718 0.545669
vt 0.338718 0.545669
vt 0.338718 0.545669
vt 0.338718 0.545669
vt 0.338718 0.545669
vt 0.338718 0.545669
vt 0.338718 0.545669
vt 0.338718 0.545669
vt 0.338718 0.545669
vt 0.338718 0.545669
vt 0.338718 0.545669
vt 0.352923 0.658182
vt 0.352923 0.613838
vt 0.352923 0.613838
vt 0.352923 0.658182
vt 0.347970 0.582483
vt 0.345919 0.613838
vt 0.345919 0.613838
vt 0.347970 0.582483
vt 0.350872 0.582483
vt 0.350872 0.582483
vt 0.354817 0.658292
vt 0.356869 0.689647
vt 0.356869 0.689647
vt 0.354817 0.658292
vt 0.359770 0.689647
vt 0.361821 0.658292
vt 0.361821 0.658292
vt 0.359770 0.689647
vt 0.350872 0.689538
vt 0.350872 0.689538
vt 0.347970 0.689538
vt 0.347970 0.689538
vt 0.359770 0.582593
vt 0.356869 0.582593
vt 0.356869 0.582593
vt 0.359770 0.582593
vt 0.361821 0.613948
vt 0.361821 0.613948
vt 0.345919 0.658182
vt 0.345919 0.658182
vt 0.354817 0.613948
vt 0.354817 0.613948
vt 0.338718 0.545669
vt 0.338718 0.545669
vt 0.338718 0.545669
vt 0.338718 0.545669
vt 0.338718 0.545669
vt 0.338718 0.545669
vt 0.338718 0.545669
vt 0.338718 0.545669
vt 0.338718 0.545669
vt 0.338718 0.545669
vt 0.338718 0.545669
vt 0.338718 0.545669
vt 0.338718 0.545669
vt 0.338718 0.545669
vt 0.338718 0.545669
vt 0.338718 0.545669
vt 0.338718 0.545669
vt 0.338718 0.545669
vt 0.338718 0.545669
vt 0.338718 0.545669
vt 0.000000 0.000000
vt 0.000000 0.000000
vt 0.000000 0.000000
vt 0.000000 0.000000
vt 0.000000 0.000000
vt 0.000000 0.000000
vt 0.000000 0.000000
vt 0.000000 0.000000
vt 0.000000 0.000000
vt 0.000000 0.000000
vt 0.000000 0.000000
vt 0.000000 0.000000
vt 0.404553 0.307668
vt 0.391713 0.307668
vt 0.392938 0.288324
vt 0.397276 0.288324
vt 0.397276 0.224082
vt 0.397276 0.200416
vt 0.397276 0.136174
vt 0.391713 0.117504
vt 0.404553 0.117504
vt 0.402937 0.136174
vt 0.398600 0.136174
vt 0.398600 0.200416
vt 0.402937 0.200416
vt 0.402937 0.224082
vt 0.398600 0.224082
vt 0.398600 0.288324
vt 0.391713 0.307668
vt 0.378873 0.307668
vt 0.378873 0.117504
vt 0.391713 0.117504
vt 0.391713 0.307668
vt 0.397667 0.326338
vt 0.393329 0.326338
vt 0.393329 0.390581
vt 0.393329 0.414246
vt 0.393329 0.478488
vt 0.391713 0.497832
vt 0.378873 0.497832
vt 0.378873 0.307668
vt 0.391713 0.497832
vt 0.378873 0.687996
vt 0.378873 0.497832
vt 0.391713 0.687996
vt 0.417393 0.117504
vt 0.417393 0.307668
vt 0.404553 0.307668
vt 0.404553 0.117504
vt 0.409064 0.497832
vt 0.409064 0.687996
vt 0.404726 0.687996
vt 0.404726 0.497832
vt 0.417566 0.307668
vt 0.417566 0.497832
vt 0.413228 0.497832
vt 0.413228 0.307668
vt 0.413228 0.307668
vt 0.413228 0.497832
vt 0.408891 0.497832
vt 0.408891 0.307668
vt 0.402937 0.288324
vt 0.392938 0.136174
vt 0.392938 0.200416
vt 0.392938 0.224082
vt 0.400389 0.497832
vt 0.400389 0.687996
vt 0.396051 0.687996
vt 0.396051 0.497832
vt 0.414240 0.329518
vt 0.414240 0.705110
vt 0.405673 0.705110
vt 0.405673 0.329518
vt 0.426241 0.307668
vt 0.426241 0.497832
vt 0.421904 0.497832
vt 0.421904 0.307668
vt 0.396051 0.497832
vt 0.396051 0.687996
vt 0.391713 0.687996
vt 0.391713 0.497832
vt 0.417393 0.307668
vt 0.417393 0.117504
vt 0.421731 0.117504
vt 0.421731 0.307668
vt 0.422077 0.687996
vt 0.422077 0.497832
vt 0.426414 0.497832
vt 0.426414 0.687996
vt 0.404726 0.497832
vt 0.404726 0.687996
vt 0.400389 0.687996
vt 0.400389 0.497832
vt 0.421904 0.307668
vt 0.421904 0.497832
vt 0.417566 0.497832
vt 0.417566 0.307668
vt 0.409064 0.687996
vt 0.409064 0.497832
vt 0.413401 0.497832
vt 0.413401 0.687996
vt 0.397667 0.478488
vt 0.397667 0.414246
vt 0.397667 0.390581
vt 0.404553 0.307668
vt 0.403328 0.326338
vt 0.398991 0.326338
vt 0.398991 0.390581
vt 0.398991 0.414246
vt 0.398991 0.478488
vt 0.404553 0.497832
vt 0.403328 0.478488
vt 0.403328 0.414246
vt 0.403328 0.390581
vt 0.417739 0.497832
vt 0.417739 0.687996
vt 0.413401 0.687996
vt 0.413401 0.497832
vt 0.404553 0.497832
vt 0.404553 0.307668
vt 0.408891 0.307668
vt 0.408891 0.497832
vt 0.422077 0.497832
vt 0.422077 0.687996
vt 0.417739 0.687996
vt 0.417739 0.497832
vt 0.421731 0.307668
vt 0.421731 0.117504
vt 0.426068 0.117504
vt 0.426068 0.307668
vn 0.0000 0.0000 1.0000
vn -0.5066 -0.8622 0.0000
vn -0.9599 -0.2803 0.0000
vn 0.5066 0.8622 0.0000
vn -0.5066 0.8622 0.0000
vn 0.9599 0.2803 0.0000
vn 0.0000 0.0000 -1.0000
vn 0.9599 -0.2803 0.0000
vn 0.5066 -0.8622 0.0000
vn -0.9599 0.2803 0.0000
vn 0.0000 1.0000 0.0000
vn 0.0000 -1.0000 0.0000
vn 0.0000 -0.0003 1.0000
vn -1.0000 0.0000 0.0000
vn 1.0000 -0.0000 0.0000
usemtl Material.009
s off
f 72/1/1 9/2/1 15/3/1 65/4/1
f 71/5/1 10/6/1 9/2/1 72/1/1
f 33/7/1 47/8/1 48/9/1 34/10/1
f 53/11/1 28/12/1 27/13/1 54/14/1
f 35/15/1 46/16/1 45/17/1 36/18/1
f 34/10/1 48/9/1 46/16/1 35/15/1
f 70/19/1 11/20/1 10/6/1 71/5/1
f 52/21/1 29/22/1 28/12/1 53/11/1
f 2/23/1 3/24/1 4/25/1 5/26/1 6/27/1 7/28/1 8/29/1 1/30/1
f 51/31/1 30/32/1 29/22/1 52/21/1
f 50/33/1 32/34/1 30/32/1 51/31/1
f 6/35/1 75/36/1 74/37/1 7/38/1
f 69/39/1 12/40/1 11/20/1 70/19/1
f 8/41/1 73/42/1 79/43/1 1/44/1
f 7/38/1 74/37/1 73/42/1 8/41/1
f 49/45/1 31/46/1 32/34/1 50/33/1
f 68/47/1 13/48/1 12/40/1 69/39/1
f 18/49/1 19/50/1 20/51/1 21/52/1 22/53/1 23/54/1 24/55/1 17/56/1
f 67/57/1 14/58/1 13/48/1 68/47/1
f 66/59/1 16/60/1 14/58/1 67/57/1
f 22/61/1 59/62/1 58/63/1 23/64/1
f 5/65/1 76/66/1 75/36/1 6/35/1
f 24/67/1 57/68/1 63/69/1 17/70/1
f 23/64/1 58/63/1 57/68/1 24/67/1
f 65/4/1 15/3/1 16/60/1 66/59/1
f 4/71/1 77/72/1 76/66/1 5/65/1
f 34/73/1 35/74/1 36/75/1 37/76/1 38/77/1 39/78/1 40/79/1 33/80/1
f 40/81/1 41/82/1 47/8/1 33/7/1
f 39/83/1 42/84/1 41/82/1 40/81/1
f 1/44/1 79/43/1 80/85/1 2/86/1
f 21/87/1 60/88/1 59/62/1 22/61/1
f 3/89/1 78/90/1 77/72/1 4/71/1
f 2/86/1 80/85/1 78/90/1 3/89/1
f 38/91/1 43/92/1 42/84/1 39/83/1
f 20/93/1 61/94/1 60/88/1 21/87/1
f 50/95/1 51/96/1 52/97/1 53/98/1 54/99/1 55/100/1 56/101/1 49/102/1
f 56/103/1 25/104/1 31/46/1 49/45/1
f 29/22/2 123/105/2 141/106/2 28/12/2
f 14/58/3 85/107/3 84/108/3 13/48/3
f 37/109/1 44/110/1 43/92/1 38/91/1
f 19/111/1 62/112/1 61/94/1 20/93/1
f 73/42/4 108/113/4 107/114/4 79/43/4
f 63/69/5 133/115/5 135/116/5 146/117/5 157/118/5 113/119/5 119/120/5 64/121/5
f 26/122/6 124/123/6 127/124/6 25/104/6
f 66/125/1 67/126/1 68/127/1 69/128/1 70/129/1 71/130/1 72/131/1 65/132/1
f 54/14/1 27/13/1 26/122/1 55/133/1
f 17/70/1 63/69/1 64/121/1 18/134/1
f 36/18/1 45/17/1 44/110/1 37/109/1
f 55/133/1 26/122/1 25/104/1 56/103/1
f 18/134/1 64/121/1 62/112/1 19/111/1
f 103/135/7 97/136/7 98/137/7 104/138/7 89/139/7 90/140/7 99/141/7 100/142/7
f 119/143/7 113/144/7 114/145/7 120/146/7 105/147/7 106/148/7 115/149/7 116/150/7
f 86/151/7 81/152/7 82/153/7 87/154/7 88/155/7 83/156/7 84/157/7 85/158/7
f 112/159/7 107/160/7 108/161/7 117/162/7 118/163/7 109/164/7 110/165/7 111/166/7
f 96/167/7 91/168/7 92/169/7 101/170/7 102/171/7 93/172/7 94/173/7 95/174/7
f 59/62/8 105/175/8 120/176/8 58/63/8
f 77/72/2 110/177/2 109/178/2 76/66/2
f 44/110/9 137/179/9 144/180/9 43/92/9
f 28/12/9 141/106/9 134/181/9 27/13/9
f 80/85/10 112/182/10 111/183/10 78/90/10
f 31/46/5 131/184/5 129/185/5 32/34/5
f 41/82/4 140/186/4 138/187/4 47/8/4
f 57/68/4 114/188/4 113/119/4 157/118/4 145/189/4 139/190/4 133/115/4 63/69/4
f 27/13/8 134/181/8 124/123/8 26/122/8
f 45/17/2 136/191/2 137/179/2 44/110/2
f 62/112/3 116/192/3 115/193/3 61/94/3
f 12/40/9 126/194/9 125/195/9 121/196/9 149/197/9 83/198/9 88/199/9 11/20/9
f 48/9/10 128/200/10 143/201/10 46/16/10
f 74/37/6 117/202/6 108/113/6 73/42/6
f 9/2/4 82/203/4 81/204/4 15/3/4
f 25/104/4 127/124/4 131/184/4 31/46/4
f 79/43/5 107/114/5 112/182/5 80/85/5
f 13/48/2 84/108/2 83/198/2 149/197/2 122/205/2 132/206/2 126/194/2 12/40/2
f 30/32/3 130/207/3 123/105/3 29/22/3
f 75/36/8 118/208/8 117/202/8 74/37/8
f 16/60/10 86/209/10 85/107/10 14/58/10
f 42/84/6 142/210/6 140/186/6 41/82/6
f 78/90/3 111/183/3 110/177/3 77/72/3
f 47/8/5 138/187/5 128/200/5 48/9/5
f 64/121/10 119/120/10 116/192/10 62/112/10
f 43/92/8 144/180/8 142/210/8 42/84/8
f 58/63/6 120/176/6 114/188/6 57/68/6
f 10/6/6 87/211/6 82/203/6 9/2/6
f 46/16/3 143/201/3 136/191/3 45/17/3
f 61/94/2 115/193/2 106/212/2 60/88/2
f 15/3/5 81/204/5 86/209/5 16/60/5
f 32/34/10 129/185/10 130/207/10 30/32/10
f 76/66/9 109/178/9 118/208/9 75/36/9
f 60/88/9 106/212/9 105/175/9 59/62/9
f 11/20/8 88/199/8 87/211/8 10/6/8
f 124/213/7 134/214/7 141/215/7 123/216/7 130/217/7 129/218/7 131/219/7 127/220/7
f 142/221/7 144/222/7 137/223/7 136/224/7 143/225/7 128/226/7 138/227/7 140/228/7
f 161/229/5 150/230/5 91/231/5 96/232/5
f 162/233/8 164/234/8 102/235/8 101/236/8
f 151/237/6 162/233/6 101/236/6 92/238/6
f 147/239/9 153/240/9 90/241/9 89/242/9
f 158/243/3 155/244/3 100/245/3 99/246/3
f 163/247/10 161/229/10 96/232/10 95/248/10
f 159/249/3 163/247/3 95/248/3 94/250/3
f 156/251/4 152/252/4 98/253/4 97/254/4
f 153/240/2 158/243/2 99/246/2 90/241/2
f 154/255/5 156/251/5 97/254/5 103/256/5
f 160/257/2 159/249/2 94/250/2 93/258/2
f 155/244/10 154/255/10 103/256/10 100/245/10
f 150/230/4 151/237/4 92/238/4 91/231/4
f 152/252/6 148/259/6 104/260/6 98/253/6
f 155/261/1 158/262/1 153/263/1 147/264/1 148/265/1 152/266/1 156/267/1 154/268/1
f 163/269/1 159/270/1 160/271/1 164/272/1 162/273/1 151/274/1 150/275/1 161/276/1
f 135/277/11 139/278/11 145/279/11 146/280/11
f 148/259/8 147/239/8 89/242/8 104/260/8
f 164/234/9 160/257/9 93/258/9 102/235/9
usemtl Material.009_NONE
f 125/281/12 132/282/12 122/283/12 121/284/12
f 139/285/7 135/286/7 133/287/7
f 132/282/7 125/281/7 126/288/7
f 146/289/1 145/290/1 157/291/1
f 121/284/13 122/283/13 149/292/13
usemtl ikuna
f 165/293/14 166/294/14 202/295/14 200/296/14 204/297/14 184/298/14 188/299/14 168/300/14 167/301/14 180/302/14 178/303/14 198/304/14 194/305/14 182/306/14 196/307/14 176/308/14
f 167/309/7 168/310/7 172/311/7 171/312/7
f 171/313/15 177/314/15 179/315/15 193/316/15 181/317/15 173/318/15 169/319/15
f 169/320/1 170/321/1 166/294/1 165/322/1
f 167/323/12 171/324/12 169/319/12 165/325/12
f 172/326/11 168/327/11 166/328/11 170/329/11
f 182/330/1 181/331/1 195/332/1 196/333/1
f 197/334/12 198/335/12 178/336/12 177/337/12
f 193/338/7 194/339/7 198/340/7 197/341/7
f 176/308/14 174/342/14 182/306/14 194/305/14 180/302/14 167/301/14 165/293/14
f 168/300/14 188/299/14 192/343/14 190/344/14 184/298/14 204/297/14 186/345/14 202/295/14 166/294/14
f 201/346/12 202/347/12 186/348/12 185/349/12
f 174/350/11 173/351/11 181/352/11 182/353/11
f 173/354/7 174/355/7 176/356/7 175/357/7
f 199/358/7 200/359/7 202/360/7 201/361/7
f 184/362/11 183/363/11 187/364/11 188/365/11
f 175/366/12 176/367/12 196/368/12 195/369/12
f 188/370/1 187/371/1 191/372/1 192/373/1
f 183/374/7 184/375/7 190/376/7 189/377/7
f 200/378/11 199/379/11 203/380/11 204/381/11
f 169/319/15 173/318/15 175/382/15 195/383/15 181/317/15 193/316/15 197/384/15 177/314/15 171/313/15 172/385/15 191/386/15 187/387/15 183/388/15 203/389/15 199/390/15 170/391/15
f 170/391/15 199/390/15 201/392/15 185/393/15 203/389/15 183/388/15 189/394/15 191/386/15 172/385/15
f 204/395/1 203/396/1 185/397/1 186/398/1
f 180/399/1 179/400/1 177/401/1 178/402/1
f 189/403/12 190/404/12 192/405/12 191/406/12
f 194/407/11 193/408/11 179/409/11 180/410/11
