# Blender v2.79 (sub 0) OBJ File: 'INNI.blend'
# www.blender.org
mtllib juttu.mtl
o leikkuulauta.001_Cube.082
v -1.156197 0.051737 0.860226
v -1.106932 0.147542 0.829345
v -1.156197 0.051737 -0.626424
v -1.106932 0.147542 -0.595543
v 1.215533 0.051737 0.860226
v 1.166268 0.147542 0.829345
v 1.215533 0.051737 -0.626424
v 1.166268 0.147542 -0.595543
v 0.475325 0.141096 0.908706
v 1.669611 0.008156 1.326361
v 1.016912 0.178315 -0.639963
v 2.147268 0.088495 -0.208579
v 0.746119 0.180819 0.134372
v 1.072468 0.134301 1.117534
v 1.940405 0.033742 0.552027
v 1.544209 0.122942 -0.416136
v 1.343262 0.221813 0.343199
v 0.610722 0.138749 0.521539
v 1.371040 0.134301 1.221948
v 2.005956 0.072181 0.179858
v 1.315484 0.158097 -0.535549
v 0.881515 0.178315 -0.252796
v 0.773897 0.141096 1.013120
v 1.805008 0.022075 0.939194
v 1.842781 0.122942 -0.311723
v 1.478658 0.163784 -0.043968
v 1.207865 0.163784 0.730367
v 1.044690 0.193085 0.238786
v 1.641833 0.163784 0.447613
v 1.506437 0.221813 0.834780
v 0.909294 0.221813 0.625953
v 1.180087 0.221813 -0.148382
v 1.777230 0.221813 0.060446
v 0.543024 0.138749 0.715123
v 1.520326 0.062286 1.274155
v 2.064364 0.079725 -0.011730
v 1.166198 0.158097 -0.587756
v 0.813817 0.178315 -0.059212
v 0.923183 0.134301 1.065327
v 1.872706 0.022075 0.745610
v 1.693495 0.186658 -0.363930
v 1.546357 0.221813 -0.237552
v 1.275563 0.221813 0.536783
v 0.895404 0.221813 0.186579
v 1.492548 0.163784 0.395406
v 0.678420 0.138749 0.327955
v 1.221754 0.134301 1.169741
v 1.938257 0.072181 0.373442
v 1.394923 0.122942 -0.468343
v 0.949214 0.178315 -0.446379
v 0.624611 0.141096 0.960913
v 1.737310 0.022075 1.132778
v 1.984020 0.088745 -0.257788
v 1.410960 0.221813 0.149616
v 1.140167 0.221813 0.923950
v 1.193976 0.221813 0.290992
v 1.791119 0.103437 0.499820
v 1.574135 0.221813 0.641197
v 1.438738 0.221813 1.028364
v 1.357151 0.221813 0.782573
v 1.655722 0.149798 0.886987
v 0.976992 0.221813 0.432369
v 0.841595 0.221813 0.819536
v 0.760008 0.198402 0.573746
v 1.058579 0.163784 0.678160
v 1.247785 0.221813 -0.341965
v 1.112388 0.193085 0.045202
v 1.030801 0.221813 -0.200589
v 1.329373 0.221813 -0.096175
v 1.844928 0.221813 -0.133138
v 1.709532 0.221813 0.254029
v 1.627944 0.163784 0.008239
v 1.926516 0.161465 0.112653
v 1.858817 0.161465 0.306236
v 1.560246 0.221813 0.201823
v 1.695642 0.221813 -0.185345
v 1.261674 0.221813 0.097409
v 0.963103 0.221813 -0.007005
v 1.098499 0.221813 -0.394172
v 0.990881 0.221813 0.871743
v 0.692309 0.198402 0.767330
v 0.827706 0.221813 0.380162
v 1.588024 0.149798 1.080571
v 1.289453 0.221813 0.976157
v 1.424849 0.163784 0.588990
v 1.723421 0.149798 0.693404
v 1.126278 0.221813 0.484576
v 1.397071 0.221813 -0.289759
v 2.005636 0.138716 -0.083384
v -0.654752 0.168403 -0.395905
v -0.504178 0.182060 -0.828438
v -0.600735 0.191296 -0.376378
v -0.450162 0.204952 -0.808910
v -0.601797 0.235332 -0.375357
v -0.451223 0.248989 -0.807890
v -0.656875 0.256476 -0.393864
v -0.506301 0.270133 -0.826396
v -0.710892 0.233584 -0.413391
v -0.560318 0.247241 -0.845923
v -0.709831 0.189547 -0.414412
v -0.559257 0.203204 -0.846944
v -0.547209 0.169757 -0.342463
v -0.247382 0.204779 -0.236981
v -0.248049 0.232440 -0.236339
v -0.549332 0.257830 -0.340421
v -0.739342 0.232758 -0.407359
v -0.738280 0.188722 -0.408380
v -0.820018 0.145014 0.441196
v -0.520191 0.180035 0.546678
v -0.520858 0.207697 0.547319
v -0.822141 0.233087 0.443238
v -1.012151 0.208015 0.376300
v -1.011089 0.163979 0.375279
v -0.907725 0.158847 0.324080
v -0.909211 0.220484 0.325509
v -0.959236 0.163960 0.306309
v -0.960436 0.213725 0.307463
v -0.930609 0.161664 0.306944
v -0.931951 0.217365 0.308235
v -0.949791 0.159924 0.362045
v -0.951133 0.215625 0.363336
v -0.921163 0.157628 0.362680
v -0.922649 0.219265 0.364108
v -0.972674 0.162741 0.344909
v -0.973873 0.212506 0.346063
v -0.512917 0.181267 -0.803336
v -0.447561 0.204341 -0.779856
v -0.448623 0.248378 -0.778835
v -0.515040 0.269340 -0.801294
v -0.580395 0.246266 -0.824775
v -0.579333 0.202230 -0.825795
vt 0.350200 0.506249
vt 0.335479 0.506249
vt 0.335479 0.270715
vt 0.350200 0.270715
vt 0.335479 0.741782
vt 0.320758 0.741782
vt 0.320758 0.506249
vt 0.335479 0.506249
vt 0.320758 0.270715
vt 0.335479 0.270715
vt 0.335479 0.741782
vt 0.335479 0.506249
vt 0.350200 0.506249
vt 0.350200 0.741782
vt 0.431579 0.407036
vt 0.416858 0.407036
vt 0.416858 0.171503
vt 0.431579 0.171503
vt 0.965657 0.209472
vt 0.965657 0.445006
vt 0.950936 0.445006
vt 0.950936 0.209472
vt 0.486077 0.221314
vt 0.486077 0.126713
vt 0.491990 0.126713
vt 0.491990 0.221314
vt 0.486077 0.599718
vt 0.486077 0.505117
vt 0.491990 0.505117
vt 0.491990 0.599718
vt 0.462427 0.599718
vt 0.462427 0.505117
vt 0.468339 0.505117
vt 0.468339 0.599718
vt 0.462427 0.221314
vt 0.462427 0.126713
vt 0.468339 0.126713
vt 0.468339 0.221314
vt 0.462427 0.410516
vt 0.462427 0.315915
vt 0.468339 0.315915
vt 0.468339 0.410516
vt 0.450602 0.410516
vt 0.450602 0.315915
vt 0.456514 0.315915
vt 0.456514 0.410516
vt 0.450602 0.221314
vt 0.450602 0.126713
vt 0.456514 0.126713
vt 0.456514 0.221314
vt 0.462427 0.788920
vt 0.462427 0.694319
vt 0.468339 0.694319
vt 0.468339 0.788920
vt 0.450602 0.788920
vt 0.450602 0.694319
vt 0.456514 0.694319
vt 0.456514 0.788920
vt 0.450602 0.599718
vt 0.450602 0.505117
vt 0.456514 0.505117
vt 0.456514 0.599718
vt 0.486077 0.788920
vt 0.486077 0.694319
vt 0.491990 0.694319
vt 0.491990 0.788920
vt 0.474252 0.788920
vt 0.474252 0.694319
vt 0.480164 0.694319
vt 0.480164 0.788920
vt 0.474252 0.599718
vt 0.474252 0.505117
vt 0.480164 0.505117
vt 0.480164 0.599718
vt 0.486077 0.410516
vt 0.486077 0.315915
vt 0.491990 0.315915
vt 0.491990 0.410516
vt 0.474252 0.410516
vt 0.474252 0.315915
vt 0.480164 0.315915
vt 0.480164 0.410516
vt 0.474252 0.221314
vt 0.474252 0.126713
vt 0.480164 0.126713
vt 0.480164 0.221314
vt 0.915659 0.323908
vt 0.915659 0.220237
vt 0.922139 0.220236
vt 0.922139 0.323908
vt 0.909180 0.220237
vt 0.909180 0.116565
vt 0.915659 0.116565
vt 0.915659 0.531250
vt 0.915659 0.427579
vt 0.922139 0.427579
vt 0.922139 0.531250
vt 0.909180 0.427579
vt 0.909180 0.323908
vt 0.928618 0.531250
vt 0.928618 0.427579
vt 0.935097 0.427579
vt 0.935097 0.531250
vt 0.928618 0.323908
vt 0.915659 0.738592
vt 0.915659 0.634921
vt 0.922139 0.634921
vt 0.922139 0.738592
vt 0.909180 0.634921
vt 0.909180 0.531250
vt 0.915659 0.945935
vt 0.915659 0.842263
vt 0.922139 0.842263
vt 0.922139 0.945935
vt 0.468339 0.883521
vt 0.474252 0.883521
vt 0.909180 0.842263
vt 0.909180 0.738592
vt 0.928618 0.945935
vt 0.928618 0.842263
vt 0.935097 0.842263
vt 0.935097 0.945935
vt 0.480164 0.883521
vt 0.486077 0.883521
vt 0.928618 0.738592
vt 0.889741 0.738592
vt 0.889741 0.634921
vt 0.896221 0.634921
vt 0.896221 0.738592
vt 0.444689 0.694319
vt 0.444689 0.599718
vt 0.883262 0.634921
vt 0.883262 0.531250
vt 0.889741 0.531250
vt 0.889741 0.945935
vt 0.889741 0.842264
vt 0.896221 0.842264
vt 0.896221 0.945935
vt 0.444689 0.883521
vt 0.444689 0.788920
vt 0.450602 0.883521
vt 0.883262 0.842264
vt 0.883262 0.738592
vt 0.902700 0.945935
vt 0.902700 0.842263
vt 0.909180 0.945935
vt 0.456514 0.883521
vt 0.462427 0.883521
vt 0.902700 0.738592
vt 0.889741 0.323908
vt 0.889741 0.220237
vt 0.896221 0.220237
vt 0.896221 0.323908
vt 0.444689 0.315915
vt 0.444689 0.221314
vt 0.883262 0.220237
vt 0.883262 0.116565
vt 0.889741 0.116565
vt 0.889741 0.427579
vt 0.896221 0.427579
vt 0.896221 0.531250
vt 0.444689 0.505117
vt 0.444689 0.410516
vt 0.883262 0.427579
vt 0.883262 0.323908
vt 0.902700 0.531250
vt 0.902700 0.427579
vt 0.902700 0.323908
vt 0.902700 0.220237
vt 0.896221 0.116565
vt 0.902700 0.116565
vt 0.902700 0.634921
vt 0.928618 0.634921
vt 0.935097 0.634921
vt 0.935097 0.738592
vt 0.928618 0.220236
vt 0.935097 0.220236
vt 0.935097 0.323908
vt 0.922139 0.116565
vt 0.928618 0.116565
vt 0.274747 0.257572
vt 0.274747 0.245206
vt 0.276540 0.245684
vt 0.276917 0.258057
vt 0.292621 0.444592
vt 0.292621 0.457455
vt 0.291234 0.457455
vt 0.291234 0.444592
vt 0.260566 0.839390
vt 0.260188 0.851764
vt 0.258396 0.852242
vt 0.258396 0.839876
vt 0.256554 0.851846
vt 0.256176 0.839489
vt 0.280049 0.442136
vt 0.277974 0.407981
vt 0.277974 0.362072
vt 0.280049 0.350317
vt 0.282123 0.384471
vt 0.282123 0.430380
vt 0.292621 0.258070
vt 0.292621 0.245206
vt 0.294008 0.245206
vt 0.294008 0.258070
vt 0.272527 0.257959
vt 0.272905 0.245602
vt 0.223995 0.504741
vt 0.225275 0.504741
vt 0.225037 0.667630
vt 0.224233 0.667630
vt 0.295673 0.281628
vt 0.296953 0.281628
vt 0.296953 0.636384
vt 0.295673 0.636384
vt 0.295363 0.522080
vt 0.295363 0.541000
vt 0.294687 0.541000
vt 0.294687 0.522080
vt 0.223356 0.480053
vt 0.223356 0.531603
vt 0.225914 0.480053
vt 0.225914 0.531603
vt 0.278752 0.257446
vt 0.280452 0.257081
vt 0.283909 0.263622
vt 0.278030 0.263894
vt 0.265367 0.423952
vt 0.263668 0.423587
vt 0.262946 0.417139
vt 0.268825 0.417411
vt 0.225903 0.343254
vt 0.225903 0.478917
vt 0.225103 0.480053
vt 0.223356 0.346874
vt 0.223439 0.260751
vt 0.224712 0.258941
vt 0.207458 0.597987
vt 0.194232 0.599078
vt 0.194232 0.087407
vt 0.207458 0.086317
vt 0.215904 0.378126
vt 0.229131 0.379217
vt 0.229131 0.890887
vt 0.215904 0.889796
vt 0.283909 0.619758
vt 0.280380 0.602222
vt 0.280380 0.584681
vt 0.279588 0.580968
vt 0.278795 0.584754
vt 0.278030 0.620030
vt 0.235799 0.913683
vt 0.234645 0.913683
vt 0.234645 0.403996
vt 0.235799 0.403996
vt 0.262946 0.061003
vt 0.263711 0.078737
vt 0.263711 0.096279
vt 0.264503 0.100065
vt 0.265296 0.096352
vt 0.268825 0.061275
vt 0.474609 0.258964
vt 0.474609 0.304949
vt 0.472558 0.304949
vt 0.472558 0.258964
vt 0.265296 0.078811
vt 0.264503 0.075024
vt 0.278795 0.602296
vt 0.279588 0.606009
vt 0.470972 0.215015
vt 0.470972 0.252142
vt 0.468920 0.252142
vt 0.468920 0.215015
vt 0.464498 0.718067
vt 0.464498 0.680939
vt 0.465906 0.678725
vt 0.465906 0.720281
vt 0.464498 0.768480
vt 0.464498 0.722495
vt 0.465784 0.724709
vt 0.465784 0.766266
vt 0.467227 0.676511
vt 0.467227 0.722495
vt 0.467208 0.726924
vt 0.467208 0.764051
vt 0.402744 0.422036
vt 0.402359 0.217325
vt 0.404623 0.216929
vt 0.404623 0.421632
vt 0.422853 0.420790
vt 0.422853 0.217437
vt 0.424267 0.217437
vt 0.424267 0.420790
vt 0.387946 0.606118
vt 0.387946 0.810821
vt 0.385683 0.810426
vt 0.386068 0.605714
vt 0.389775 0.605631
vt 0.390160 0.810325
vt 0.422853 0.204318
vt 0.422853 0.407671
vt 0.421438 0.407671
vt 0.421438 0.204318
vt 0.406836 0.217425
vt 0.406451 0.422119
vn -0.8893 0.4573 0.0000
vn 0.0000 0.3068 -0.9518
vn 0.8893 0.4573 0.0000
vn 0.0000 0.3068 0.9518
vn 0.0000 -1.0000 0.0000
vn 0.0000 1.0000 0.0000
vn 0.2871 0.9561 -0.0587
vn 0.1675 0.8616 -0.4791
vn 0.5221 0.8461 0.1068
vn -0.1232 0.9742 -0.1891
vn 0.5931 0.7780 0.2074
vn 0.1081 0.9935 -0.0359
vn -0.1382 0.9892 -0.0483
vn 0.0899 0.9622 -0.2570
vn 0.0979 0.9550 -0.2801
vn 0.0622 0.9935 0.0955
vn 0.2142 0.9742 -0.0711
vn 0.3079 0.8896 -0.3375
vn 0.6387 0.7364 0.2233
vn 0.3365 0.9343 0.1177
vn 0.2410 0.9033 0.3550
vn 0.4356 0.8497 0.2970
vn 0.1232 0.9742 0.1891
vn -0.0899 0.9622 0.2570
vn -0.0771 0.9338 -0.3495
vn -0.2142 0.9742 0.0711
vn -0.1081 0.9935 0.0359
vn -0.1687 0.9839 -0.0590
vn -0.2503 0.9642 -0.0875
vn -0.2417 0.9661 -0.0908
vn 0.1687 0.9839 0.0590
vn -0.0179 0.9855 -0.1685
vn -0.1065 0.9250 0.3647
vn -0.1296 0.9198 0.3705
vn -0.3331 0.9357 -0.1165
vn -0.2165 0.9743 0.0626
vn -0.1711 0.9455 0.2772
vn -0.3745 0.9267 -0.0303
vn -0.4049 0.9103 -0.0865
vn -0.0883 0.9957 0.0293
vn 0.3912 0.9101 0.1368
vn 0.2451 0.8484 0.4692
vn 0.3908 0.8477 0.3588
vn 0.3252 0.9388 0.1137
vn 0.4302 0.8981 -0.0917
vn -0.0622 0.9935 -0.0955
vn 0.3111 0.8898 -0.3339
vn 0.4445 0.8143 -0.3733
vn 0.3923 0.9150 0.0944
vn 0.6225 0.7590 0.1911
vn 0.3543 -0.9350 0.0159
vn 0.9957 0.0261 -0.0886
vn 0.3089 0.9492 0.0596
vn -0.3060 0.9394 -0.1547
vn 0.3286 0.0298 -0.9440
vn -0.7252 -0.0015 -0.6885
vn -0.2606 -0.9448 -0.1984
vn 0.3658 0.0304 -0.9302
vn -0.9442 -0.0151 -0.3292
vn -0.2079 0.0177 -0.9780
vn 0.3627 -0.4136 -0.8351
vn 0.3415 0.4688 -0.8146
vn -0.2713 -0.8891 0.3687
vn -0.3134 0.8569 0.4092
vn -0.3286 -0.0298 0.9440
vn 0.0653 0.9964 0.0542
vn 0.1132 -0.9935 0.0080
vn -0.0785 -0.9952 -0.0588
vn 0.9442 0.0151 0.3292
vn -0.1264 0.9919 -0.0127
vn 0.6017 0.0330 -0.7981
vn -0.6017 -0.0330 0.7981
vn 0.0241 0.0237 -0.9994
vn -0.0241 -0.0237 0.9994
vn -0.2870 -0.9497 -0.1251
vn -0.9529 -0.0160 -0.3028
vn -0.3325 0.9396 -0.0813
vn 0.2840 0.9495 0.1337
vn 0.9346 0.0143 0.3553
vn 0.3295 -0.9399 0.0899
usemtl palet
s off
f 1/1/1 2/2/1 4/3/1 3/4/1
f 3/5/2 4/6/2 8/7/2 7/8/2
f 7/8/3 8/7/3 6/9/3 5/10/3
f 5/11/4 6/12/4 2/13/4 1/14/4
f 3/15/5 7/16/5 5/17/5 1/18/5
f 8/19/6 4/20/6 2/21/6 6/22/6
f 89/23/7 36/24/7 12/25/7 53/26/7
f 88/27/8 42/28/8 16/29/8 49/30/8
f 87/31/6 43/32/6 17/33/6 56/34/6
f 86/35/9 40/36/9 15/37/9 57/38/9
f 85/39/10 58/40/10 29/41/10 45/42/10
f 84/43/6 59/44/6 30/45/6 60/46/6
f 83/47/11 52/48/11 24/49/11 61/50/11
f 82/51/12 62/52/12 28/53/12 44/54/12
f 81/55/13 63/56/13 31/57/13 64/58/13
f 80/59/14 55/60/14 27/61/14 65/62/14
f 79/63/15 66/64/15 21/65/15 37/66/15
f 78/67/16 67/68/16 32/69/16 68/70/16
f 77/71/17 54/72/17 26/73/17 69/74/17
f 76/75/18 70/76/18 25/77/18 41/78/18
f 75/79/10 71/80/10 33/81/10 72/82/10
f 74/83/19 48/84/19 20/85/19 73/86/19
f 71/87/20 74/88/20 73/89/20 33/90/20
f 29/41/21 57/38/21 74/83/21 71/80/21
f 57/91/22 15/92/22 48/93/22 74/88/22
f 54/94/14 75/95/14 72/96/14 26/97/14
f 17/33/23 45/42/23 75/79/23 54/72/23
f 45/98/24 29/99/24 71/87/24 75/95/24
f 42/100/25 76/101/25 41/102/25 16/103/25
f 26/73/24 72/82/24 76/75/24 42/28/24
f 72/96/26 33/90/26 70/104/26 76/101/26
f 67/105/27 77/106/27 69/107/27 32/108/27
f 28/53/28 56/34/28 77/71/28 67/68/28
f 56/109/6 17/110/6 54/94/6 77/106/6
f 38/111/29 78/112/29 68/113/29 22/114/29
f 13/115/30 44/54/30 78/67/30 38/116/30
f 44/117/31 28/118/31 67/105/31 78/112/31
f 50/119/32 79/120/32 37/121/32 11/122/32
f 22/123/29 68/70/29 79/63/29 50/124/29
f 68/113/6 32/108/6 66/125/6 79/120/6
f 63/126/17 80/127/17 65/128/17 31/129/17
f 23/130/33 39/131/33 80/59/33 63/56/33
f 39/132/34 14/133/34 55/134/34 80/127/34
f 34/135/35 81/136/35 64/137/35 18/138/35
f 9/139/36 51/140/36 81/55/36 34/141/36
f 51/142/37 23/143/37 63/126/37 81/136/37
f 46/144/38 82/145/38 44/117/38 13/146/38
f 18/147/39 64/58/39 82/51/39 46/148/39
f 64/137/40 31/129/40 62/149/40 82/145/40
f 59/150/41 83/151/41 61/152/41 30/153/41
f 19/154/42 35/155/42 83/47/42 59/44/42
f 35/156/43 10/157/43 52/158/43 83/151/43
f 55/134/10 84/159/10 60/160/10 27/161/10
f 14/162/34 47/163/34 84/43/34 55/60/34
f 47/164/34 19/165/34 59/150/34 84/159/34
f 43/166/44 85/167/44 45/98/44 17/110/44
f 27/61/6 60/46/6 85/39/6 43/32/6
f 60/160/10 30/153/10 58/168/10 85/167/10
f 58/168/45 86/169/45 57/91/45 29/99/45
f 30/45/41 61/50/41 86/35/41 58/40/41
f 61/152/11 24/170/11 40/171/11 86/169/11
f 62/149/46 87/172/46 56/109/46 28/118/46
f 31/57/23 65/62/23 87/31/23 62/52/23
f 65/128/24 27/161/24 43/166/24 87/172/24
f 66/125/47 88/173/47 49/174/47 21/175/47
f 32/69/6 69/74/6 88/27/6 66/64/6
f 69/107/23 26/97/23 42/100/23 88/173/23
f 70/104/48 89/176/48 53/177/48 25/178/48
f 33/81/49 73/86/49 89/23/49 70/76/49
f 73/89/50 20/179/50 36/180/50 89/176/50
f 126/181/51 91/182/51 93/183/51 127/184/51
f 127/185/52 93/186/52 95/187/52 128/188/52
f 128/189/53 95/190/53 97/191/53 129/192/53
f 129/192/54 97/191/54 99/193/54 130/194/54
f 93/195/55 91/196/55 101/197/55 99/198/55 97/199/55 95/200/55
f 130/201/56 99/202/56 101/203/56 131/204/56
f 131/205/57 101/206/57 91/182/57 126/181/57
f 92/207/58 94/208/58 104/209/58 103/210/58
f 106/211/59 107/212/59 113/213/59 112/214/59
f 98/215/60 100/216/60 107/217/60 106/218/60
f 90/219/61 92/207/61 103/210/61 102/220/61
f 94/208/62 96/221/62 105/222/62 104/209/62
f 100/223/63 90/224/63 102/225/63 107/226/63
f 96/227/64 98/228/64 106/229/64 105/230/64
f 108/231/65 109/232/65 110/233/65 111/234/65 112/235/65 113/236/65
f 104/237/66 105/238/66 111/239/66 110/240/66
f 102/241/67 103/242/67 109/243/67 108/244/67
f 107/226/68 102/225/68 108/245/68 122/246/68 114/247/68 118/248/68 116/249/68 113/250/68
f 103/251/69 104/252/69 110/253/69 109/254/69
f 105/230/70 106/229/70 112/255/70 125/256/70 117/257/70 119/258/70 115/259/70 111/260/70
f 122/261/59 123/262/59 115/263/59 114/264/59
f 111/260/70 115/259/70 123/265/70 121/266/70 125/256/70 112/255/70
f 113/250/68 116/249/68 124/267/68 120/268/68 122/246/68 108/245/68
f 125/269/69 124/270/69 116/271/69 117/272/69
f 124/273/71 125/274/71 121/275/71 120/276/71
f 114/277/72 115/278/72 119/279/72 118/280/72
f 120/276/73 121/275/73 123/281/73 122/282/73
f 118/280/74 119/279/74 117/283/74 116/284/74
f 100/285/75 131/286/75 126/287/75 90/288/75
f 98/289/76 130/290/76 131/291/76 100/292/76
f 96/293/77 129/294/77 130/295/77 98/296/77
f 94/297/78 128/298/78 129/294/78 96/293/78
f 92/299/79 127/300/79 128/301/79 94/302/79
f 90/288/80 126/287/80 127/303/80 92/304/80
