# Blender v2.79 (sub 0) OBJ File: 'INNI.blend'
# www.blender.org
o DRANK.005_Cylinder.013
v 0.033268 -0.151314 -0.147611
v 0.035227 0.165811 -0.156303
v 0.113678 -0.151314 -0.099865
v 0.120372 0.165811 -0.105745
v 0.150667 -0.151314 -0.013974
v 0.159538 0.165811 -0.014797
v 0.130106 -0.151314 0.077254
v 0.137767 0.165811 0.081803
v 0.059849 -0.151314 0.138974
v 0.063373 0.165811 0.147157
v -0.033268 -0.151314 0.147611
v -0.035227 0.165811 0.156303
v -0.113678 -0.151314 0.099865
v -0.130251 0.144523 0.087368
v -0.150667 -0.151314 0.013974
v -0.161248 0.144509 0.014956
v -0.130106 -0.151314 -0.077254
v -0.139243 0.144509 -0.082680
v -0.059849 -0.151314 -0.138974
v -0.080180 0.144523 -0.134794
v 0.062586 0.256812 -0.054981
v 0.018316 0.256812 -0.081268
v 0.082950 0.256812 -0.007694
v 0.071630 0.256812 0.042533
v 0.032950 0.256812 0.076513
v -0.018316 0.256812 0.081268
v -0.062586 0.256812 0.054981
v -0.082950 0.256812 0.007694
v -0.071630 0.256812 -0.042533
v -0.032950 0.256812 -0.076513
v 0.052308 0.387389 -0.045952
v 0.015308 0.387389 -0.067921
v 0.069328 0.387389 -0.006430
v 0.059867 0.387389 0.035548
v 0.027539 0.387389 0.063947
v -0.015308 0.387389 0.067921
v -0.052308 0.387389 0.045952
v -0.069328 0.387389 0.006430
v -0.059867 0.387389 -0.035548
v -0.027539 0.387389 -0.063947
v 0.028525 0.458593 -0.025059
v 0.008348 0.458593 -0.037039
v 0.037806 0.458593 -0.003507
v 0.032647 0.458593 0.019385
v 0.015018 0.458593 0.034872
v -0.008348 0.458593 0.037039
v -0.028525 0.458593 0.025059
v -0.037806 0.458593 0.003507
v -0.032647 0.458593 -0.019385
v -0.015018 0.458593 -0.034872
v 0.014805 0.422991 0.034378
v -0.008230 0.422991 0.036515
v 0.028121 0.422991 -0.024704
v 0.037271 0.422991 -0.003457
v -0.032185 0.422991 -0.019111
v -0.014805 0.422991 -0.034378
v -0.028121 0.422991 0.024704
v 0.032185 0.422991 0.019111
v 0.008230 0.422991 -0.036515
v -0.037271 0.422991 0.003457
v 0.040039 -0.079741 -0.177652
v 0.136813 -0.079741 -0.120189
v 0.181329 -0.079741 -0.016818
v 0.156584 -0.079741 0.092976
v 0.072029 -0.079741 0.167257
v -0.040039 -0.079741 0.177652
v -0.143841 -0.058453 0.099307
v -0.179619 -0.058438 0.016660
v -0.155108 -0.058438 -0.092100
v -0.087335 -0.058453 -0.151409
v -0.159538 0.165811 0.014797
v -0.120372 0.165811 0.105745
v -0.137767 0.165811 -0.081803
v -0.063373 0.165811 -0.147157
v -0.136813 -0.079741 0.120189
v -0.072029 -0.079741 -0.167257
v -0.156584 -0.079741 -0.092976
v -0.181329 -0.079741 0.016818
vt 0.610917 0.220554
vt 0.613783 0.426948
vt 0.610411 0.441631
vt 0.607084 0.237242
vt 0.594803 0.180850
vt 0.594041 0.395682
vt 0.590596 0.398413
vt 0.590887 0.183954
vt 0.586338 0.398413
vt 0.586047 0.183954
vt 0.582892 0.395682
vt 0.582131 0.180850
vt 0.594803 0.545897
vt 0.598130 0.341508
vt 0.601502 0.356191
vt 0.598635 0.562585
vt 0.605629 0.377612
vt 0.603327 0.586932
vt 0.670261 0.208202
vt 0.668648 0.664938
vt 0.661615 0.665870
vt 0.662243 0.209344
vt 0.650585 0.665870
vt 0.649957 0.209344
vt 0.597949 0.665932
vt 0.597949 0.752934
vt 0.594803 0.732051
vt 0.594803 0.686815
vt 0.643552 0.664938
vt 0.641939 0.208202
vt 0.615608 0.196207
vt 0.617911 0.405527
vt 0.588320 0.915719
vt 0.584495 0.890328
vt 0.582131 0.823856
vt 0.582131 0.741692
vt 0.584495 0.675220
vt 0.588320 0.649830
vt 0.592145 0.675220
vt 0.594508 0.741692
vt 0.594508 0.823856
vt 0.592145 0.890329
vt 0.613942 0.503495
vt 0.615695 0.495861
vt 0.617244 0.605390
vt 0.615779 0.611770
vt 0.603413 0.287278
vt 0.605559 0.298415
vt 0.574767 0.817658
vt 0.573451 0.734914
vt 0.576759 0.734914
vt 0.577443 0.777936
vt 0.574767 0.652170
vt 0.577443 0.691892
vt 0.569459 0.734914
vt 0.570775 0.652170
vt 0.573451 0.691892
vt 0.572767 0.734914
vt 0.589574 0.474820
vt 0.587360 0.474820
vt 0.570775 0.817658
vt 0.573451 0.777936
vt 0.617841 0.484724
vt 0.580589 0.652170
vt 0.580589 0.739172
vt 0.577443 0.718289
vt 0.577443 0.673053
vt 0.573666 0.395891
vt 0.577924 0.395891
vt 0.576902 0.475244
vt 0.574688 0.475244
vt 0.221797 0.314935
vt 0.221157 0.312148
vt 0.221449 0.287458
vt 0.222098 0.290285
vt 0.576720 0.589858
vt 0.574870 0.589858
vt 0.601660 0.279644
vt 0.603497 0.171368
vt 0.604963 0.177749
vt 0.591365 0.473400
vt 0.590889 0.587585
vt 0.589392 0.588771
vt 0.572897 0.474997
vt 0.573373 0.589652
vt 0.606756 0.187057
vt 0.587542 0.588771
vt 0.619038 0.596081
vt 0.578693 0.474997
vt 0.578217 0.589652
vt 0.585568 0.473400
vt 0.586044 0.587585
vt 0.216731 0.733378
vt 0.217510 0.738555
vt 0.217992 0.752110
vt 0.217992 0.768864
vt 0.217510 0.782419
vt 0.216731 0.787596
vt 0.215951 0.782419
vt 0.215469 0.768864
vt 0.215469 0.752110
vt 0.215951 0.738555
vt 0.208167 0.694890
vt 0.208822 0.694371
vt 0.208837 0.719767
vt 0.208173 0.720292
vt 0.196407 0.696682
vt 0.197061 0.696773
vt 0.197055 0.722194
vt 0.196392 0.722103
vt 0.222581 0.319002
vt 0.222893 0.294410
vt 0.207359 0.694890
vt 0.207353 0.720292
vt 0.231778 0.705900
vt 0.232562 0.701834
vt 0.232873 0.726425
vt 0.232079 0.730550
vt 0.197870 0.696773
vt 0.198524 0.696682
vt 0.198539 0.722103
vt 0.197875 0.722194
vt 0.206705 0.694371
vt 0.206690 0.719767
vt 0.231138 0.708688
vt 0.231429 0.733378
vt 0.576292 0.620887
vt 0.575298 0.620887
vt 0.597949 0.768607
vt 0.598521 0.732650
vt 0.599641 0.749276
vt 0.599333 0.768607
vt 0.601054 0.701889
vt 0.601626 0.665932
vt 0.602746 0.682558
vt 0.602439 0.701889
vt 0.580589 0.727784
vt 0.580589 0.689977
vt 0.581906 0.698718
vt 0.581906 0.719043
vt 0.618982 0.627115
vt 0.618018 0.632119
vt 0.588964 0.618570
vt 0.587969 0.618570
vt 0.605736 0.151020
vt 0.606701 0.156024
vt 0.581906 0.652170
vt 0.581906 0.689977
vt 0.580589 0.681236
vt 0.580589 0.660911
vt 0.598521 0.804563
vt 0.599641 0.787937
vt 0.601626 0.737845
vt 0.602746 0.721219
vt 0.614438 0.136073
vt 0.610540 0.156302
vt 0.617561 0.117207
vt 0.619366 0.173502
vt 0.577806 0.117207
vt 0.578215 0.180327
vt 0.573375 0.180327
vt 0.573784 0.117207
vt 0.602157 0.647066
vt 0.607084 0.609637
vt 0.605279 0.665932
vt 0.598259 0.626837
vt 0.595074 0.612970
vt 0.586456 0.119786
vt 0.583202 0.117207
vt 0.590478 0.119786
vt 0.593731 0.117207
vt 0.607356 0.170169
vt 0.292826 0.486966
vt 0.295571 0.486602
vt 0.296248 0.505193
vt 0.292803 0.505668
vt 0.288522 0.486966
vt 0.288544 0.505668
vt 0.285777 0.486602
vt 0.285099 0.505193
vt 0.296200 0.308361
vt 0.297010 0.289565
vt 0.285147 0.308361
vt 0.284338 0.289565
vt 0.288276 0.308807
vt 0.288254 0.290104
vt 0.293071 0.308807
vt 0.293094 0.290104
vn 0.5087 0.0845 -0.8568
vn 0.9152 0.0845 -0.3941
vn 0.9720 0.0845 0.2191
vn 0.6576 0.0845 0.7486
vn 0.0920 0.0845 0.9922
vn -0.5087 0.0845 0.8568
vn -0.9151 0.0853 0.3941
vn -0.9719 0.0861 -0.2190
vn -0.7158 0.6265 0.3083
vn -0.6576 0.0853 -0.7485
vn -0.0920 0.0845 -0.9922
vn 0.0000 -1.0000 0.0000
vn 0.5080 0.0992 -0.8556
vn -0.3979 0.6265 0.6702
vn 0.0720 0.6265 0.7761
vn 0.5144 0.6265 0.5855
vn 0.3979 0.6265 -0.6702
vn 0.7603 0.6265 0.1714
vn 0.7158 0.6265 -0.3083
vn -0.0720 0.6265 -0.7761
vn -0.5144 0.6265 -0.5855
vn -0.7603 0.6265 -0.1714
vn 0.0923 -0.0144 0.9956
vn -0.9707 0.0992 -0.2188
vn 0.0919 0.0992 0.9908
vn 0.9139 0.0992 -0.3936
vn -0.6567 0.0992 -0.7476
vn -0.5080 0.0992 0.8556
vn 0.9707 0.0992 0.2188
vn -0.0919 0.0992 -0.9908
vn -0.9139 0.0992 0.3936
vn 0.6567 0.0992 0.7476
vn 0.0000 1.0000 -0.0000
vn 0.9184 -0.0144 -0.3955
vn -0.6599 -0.0144 -0.7512
vn -0.5105 -0.0144 0.8598
vn 0.9754 -0.0144 0.2198
vn -0.0923 -0.0144 -0.9956
vn -0.9184 -0.0144 0.3955
vn 0.6599 -0.0144 0.7512
vn 0.5105 -0.0144 -0.8598
vn -0.9754 -0.0144 -0.2198
vn -0.7396 0.6521 -0.1667
vn 0.3871 0.6521 -0.6519
vn 0.5004 0.6521 0.5696
vn -0.6963 0.6521 0.2999
vn -0.0700 0.6521 -0.7549
vn 0.7396 0.6521 0.1667
vn -0.3871 0.6521 0.6519
vn -0.5004 0.6521 -0.5696
vn 0.6963 0.6521 -0.2999
vn 0.0700 0.6521 0.7549
vn -0.0855 -0.3787 -0.9216
vn -0.6108 -0.3787 -0.6953
vn -0.9029 -0.3787 -0.2035
vn -0.8500 -0.3787 0.3661
vn -0.4725 -0.3787 0.7958
vn 0.0855 -0.3787 0.9216
vn 0.6108 -0.3787 0.6953
vn 0.9029 -0.3787 0.2035
vn 0.8500 -0.3787 -0.3661
vn 0.4725 -0.3787 -0.7958
vn -0.9158 0.0809 0.3933
vn -0.9727 0.0764 -0.2192
vn -0.6585 0.0809 -0.7482
vn -0.9152 0.0845 0.3941
vn -0.6576 0.0845 -0.7486
vn -0.6572 0.0809 -0.7494
vn -0.9151 0.0809 0.3950
s off
f 61/1/1 2/2/1 4/3/1 62/4/1
f 62/5/2 4/6/2 6/7/2 63/8/2
f 63/8/3 6/7/3 8/9/3 64/10/3
f 64/10/4 8/9/4 10/11/4 65/12/4
f 65/13/5 10/14/5 12/15/5 66/16/5
f 66/16/6 12/15/6 72/17/6 75/18/6
f 67/19/7 14/20/7 16/21/7 68/22/7
f 68/22/8 16/21/8 18/23/8 69/24/8
f 71/25/9 72/26/9 27/27/9 28/28/9
f 69/24/10 18/23/10 20/29/10 70/30/10
f 76/31/11 74/32/11 2/2/11 61/1/11
f 1/33/12 3/34/12 5/35/12 7/36/12 9/37/12 11/38/12 13/39/12 15/40/12 17/41/12 19/42/12
f 21/43/13 22/44/13 32/45/13 31/46/13
f 72/17/14 12/15/14 26/47/14 27/48/14
f 12/49/15 10/50/15 25/51/15 26/52/15
f 10/50/16 8/53/16 24/54/16 25/51/16
f 4/55/17 2/56/17 22/57/17 21/58/17
f 8/9/18 6/7/18 23/59/18 24/60/18
f 6/61/19 4/55/19 21/58/19 23/62/19
f 2/2/20 74/32/20 30/63/20 22/44/20
f 74/64/21 73/65/21 29/66/21 30/67/21
f 73/68/22 71/69/22 28/70/22 29/71/22
f 52/72/23 51/73/23 45/74/23 46/75/23
f 29/71/24 28/70/24 38/76/24 39/77/24
f 26/47/25 25/78/25 35/79/25 36/80/25
f 23/59/26 21/81/26 31/82/26 33/83/26
f 30/84/27 29/71/27 39/77/27 40/85/27
f 27/48/28 26/47/28 36/80/28 37/86/28
f 24/60/29 23/59/29 33/83/29 34/87/29
f 22/44/30 30/63/30 40/88/30 32/45/30
f 28/70/31 27/89/31 37/90/31 38/76/31
f 25/91/32 24/60/32 34/87/32 35/92/32
f 41/93/33 42/94/33 50/95/33 49/96/33 48/97/33 47/98/33 46/99/33 45/100/33 44/101/33 43/102/33
f 54/103/34 53/104/34 41/105/34 43/106/34
f 56/107/35 55/108/35 49/109/35 50/110/35
f 57/111/36 52/72/36 46/75/36 47/112/36
f 58/113/37 54/103/37 43/106/37 44/114/37
f 59/115/38 56/116/38 50/117/38 42/118/38
f 60/119/39 57/120/39 47/121/39 48/122/39
f 51/123/40 58/113/40 44/114/40 45/124/40
f 53/125/41 59/115/41 42/118/41 41/126/41
f 55/108/42 60/119/42 48/122/42 49/109/42
f 39/77/43 38/76/43 60/127/43 55/128/43
f 31/129/44 32/130/44 59/131/44 53/132/44
f 35/133/45 34/134/45 58/135/45 51/136/45
f 38/137/46 37/138/46 57/139/46 60/140/46
f 32/45/47 40/88/47 56/141/47 59/142/47
f 34/87/48 33/83/48 54/143/48 58/144/48
f 37/86/49 36/80/49 52/145/49 57/146/49
f 40/147/50 39/148/50 55/149/50 56/150/50
f 33/151/51 31/129/51 53/132/51 54/152/51
f 36/153/52 35/133/52 51/136/52 52/154/52
f 19/155/53 76/31/53 61/1/53 1/156/53
f 17/157/54 77/158/54 76/31/54 19/155/54
f 15/159/55 78/160/55 77/161/55 17/162/55
f 13/163/56 75/18/56 78/164/56 15/165/56
f 11/166/57 66/16/57 75/18/57 13/163/57
f 9/167/58 65/13/58 66/16/58 11/166/58
f 7/168/59 64/10/59 65/12/59 9/169/59
f 5/170/60 63/8/60 64/10/60 7/168/60
f 3/171/61 62/5/61 63/8/61 5/170/61
f 1/156/62 61/1/62 62/4/62 3/172/62
f 16/173/63 14/174/63 72/175/63 71/176/63
f 18/177/64 16/173/64 71/176/64 73/178/64
f 20/179/65 18/177/65 73/178/65 74/180/65
f 14/174/66 67/181/66 75/182/66 72/175/66
f 70/183/67 20/179/67 74/180/67 76/184/67
f 69/185/68 70/183/68 76/184/68 77/186/68
f 68/187/64 69/185/64 77/186/64 78/188/64
f 67/181/69 68/187/69 78/188/69 75/182/69
