# Blender v2.79 (sub 0) OBJ File: 'UNITYYN.blend'
# www.blender.org
mtllib kivi.mtl
o Cube.000_Cube.017
v -1.070645 0.321800 0.142399
v -0.070645 0.316779 -3.446733
v 0.929355 0.321800 0.142397
v -0.070645 0.326821 3.731531
v -0.070645 -0.449913 0.142397
v -0.070645 1.093513 0.142397
v -0.820645 -0.142841 0.142397
v -0.820645 0.328076 2.704445
v -0.820645 0.786441 0.142397
v -0.820645 0.315524 -2.419647
v -0.070645 -0.276848 -2.679255
v -0.070645 0.912917 -2.419647
v 0.679355 0.320545 -2.679255
v 0.679355 -0.371128 0.142397
v 0.679355 1.014728 0.142397
v 0.679355 0.323055 2.964050
v -0.070645 -0.237121 2.964050
v -0.070645 0.888252 2.704445
v -0.626201 -0.045139 2.136360
v -0.626201 0.696549 2.020979
v -0.626201 -0.067259 -1.851564
v -0.626201 0.703049 -1.736185
v 0.484910 -0.148831 2.251741
v 0.484910 0.795779 2.136360
v 0.484910 -0.166488 -1.966946
v 0.484910 0.806741 -1.851564
vt 0.234081 0.167971
vt 0.232833 0.169655
vt 0.232076 0.084260
vt 0.232934 0.058487
vt 0.239102 0.484639
vt 0.239149 0.373681
vt 0.240367 0.402337
vt 0.240516 0.483911
vt 0.240948 0.562923
vt 0.239895 0.592657
vt 0.234081 0.278950
vt 0.232951 0.255863
vt 0.232596 0.325374
vt 0.231560 0.293553
vt 0.241311 0.632146
vt 0.242433 0.589202
vt 0.256253 0.634241
vt 0.255811 0.587307
vt 0.257346 0.562706
vt 0.258216 0.600290
vt 0.263638 0.326432
vt 0.262810 0.293242
vt 0.264250 0.262638
vt 0.265128 0.293460
vt 0.262579 0.171413
vt 0.264581 0.171619
vt 0.261830 0.257395
vt 0.261132 0.171245
vt 0.261927 0.085240
vt 0.262903 0.049622
vt 0.264280 0.080514
vt 0.263738 0.016547
vt 0.265128 0.049831
vt 0.256248 0.326432
vt 0.258216 0.358328
vt 0.257356 0.391782
vt 0.255831 0.367737
vt 0.240250 0.325374
vt 0.241607 0.370167
vt 0.230978 0.016547
vt 0.230334 0.050700
vt 0.230667 0.172516
vt 0.230284 0.264348
vt 0.229061 0.174599
vt 0.229350 0.082826
vt 0.255678 0.476584
vt 0.257702 0.475939
vt 0.242433 0.479992
vn -0.8514 -0.5159 0.0948
vn -0.8441 0.5278 0.0944
vn -0.8492 0.5194 -0.0955
vn -0.8554 -0.5098 -0.0912
vn -0.6505 -0.6552 -0.3843
vn -0.5826 0.7314 -0.3544
vn 0.4760 0.7804 -0.4055
vn 0.5596 -0.7026 -0.4395
vn 0.9102 -0.4024 -0.0986
vn 0.9053 0.4125 -0.1015
vn 0.9032 0.4169 0.1022
vn 0.9076 -0.4076 0.1003
vn 0.5390 -0.7217 0.4343
vn 0.4621 0.7943 0.3944
vn -0.5617 0.7520 0.3450
vn -0.6371 -0.6715 0.3785
vn -0.4017 -0.9136 -0.0634
vn 0.1868 -0.9789 -0.0823
vn 0.1764 -0.9799 0.0934
vn -0.3972 -0.9147 0.0750
vn 0.1785 0.9797 -0.0912
vn -0.3995 0.9139 -0.0718
vn -0.3912 0.9170 0.0781
vn 0.1715 0.9802 0.0986
usemtl Material.003
s off
f 1/1/1 7/2/1 19/3/1 8/4/1
f 1/5/2 8/6/2 20/7/2 9/8/2
f 1/5/3 9/8/3 22/9/3 10/10/3
f 1/1/4 10/11/4 21/12/4 7/2/4
f 2/13/5 11/14/5 21/12/5 10/11/5
f 2/15/6 10/10/6 22/9/6 12/16/6
f 2/17/7 12/18/7 26/19/7 13/20/7
f 2/21/8 13/22/8 25/23/8 11/24/8
f 3/25/9 14/26/9 25/23/9 13/22/9
f 3/25/10 13/22/10 26/27/10 15/28/10
f 3/25/11 15/28/11 24/29/11 16/30/11
f 3/25/12 16/30/12 23/31/12 14/26/12
f 4/32/13 17/33/13 23/31/13 16/30/13
f 4/34/14 16/35/14 24/36/14 18/37/14
f 4/38/15 18/39/15 20/7/15 8/6/15
f 4/40/16 8/4/16 19/3/16 17/41/16
f 5/42/17 7/2/17 21/12/17 11/14/17
f 5/42/18 11/14/18 25/43/18 14/44/18
f 5/42/19 14/44/19 23/45/19 17/41/19
f 5/42/20 17/41/20 19/3/20 7/2/20
f 6/46/21 15/47/21 26/19/21 12/18/21
f 6/48/22 12/16/22 22/9/22 9/8/22
f 6/48/23 9/8/23 20/7/23 18/39/23
f 6/46/24 18/37/24 24/36/24 15/47/24
