# Blender v2.79 (sub 0) OBJ File: 'Noin.blend'
# www.blender.org
mtllib kynttilä.mtl
o Circle.053_Circle.034
v -0.174038 0.393505 -0.057010
v -0.064363 0.408605 -0.083867
v -0.064362 0.036545 -0.083867
v -0.174038 0.036545 -0.057010
v -0.127519 0.117195 0.132954
v -0.127519 0.036545 0.132954
v -0.071011 0.096623 0.291343
v -0.065106 0.138074 0.289897
v 0.120821 0.017258 0.250896
v 0.208467 0.017258 -0.050001
v 0.208467 0.063608 -0.050001
v 0.120821 0.063608 0.250896
v -0.400348 0.017258 0.099088
v -0.183587 0.017258 0.325440
v -0.183587 0.063608 0.325440
v -0.400348 0.063608 0.099088
v -0.008295 0.017258 -0.276354
v -0.312702 0.017258 -0.201809
v -0.312702 0.063608 -0.201809
v -0.008295 0.063608 -0.276354
v -0.021108 0.036546 -0.232362
v 0.163962 0.036546 -0.039103
v -0.281011 0.036545 -0.168716
v -0.355843 0.036545 0.088189
v -0.170773 0.036545 0.281449
v 0.089130 0.036546 0.217803
v 0.013735 0.036546 -0.002314
v -0.205616 0.036545 0.051401
v -0.017843 0.036545 0.106096
v -0.119726 0.430667 0.106201
v -0.037116 0.430667 0.085971
v -0.044938 0.390028 0.076027
v -0.117762 0.396367 0.093373
v -0.017843 0.336274 0.106096
v 0.013735 0.285550 -0.002314
v 0.013735 0.416924 -0.002314
v -0.017843 0.416924 0.106096
v -0.205616 0.265483 0.051401
v -0.127519 0.331307 0.132954
v -0.127519 0.411957 0.132954
v -0.205616 0.396857 0.051401
v -0.072155 0.430667 -0.057114
v -0.013331 0.430667 0.004313
v -0.154765 0.430667 -0.036884
v -0.178551 0.430667 0.044773
v -0.025269 0.390028 0.008501
v -0.025269 1.220129 0.008501
v -0.044938 1.214702 0.076027
v -0.165651 0.396367 0.043366
v -0.143627 0.408690 -0.029017
v -0.078398 0.408690 -0.044991
v -0.058767 1.231276 0.063362
v -0.043736 1.236922 0.011759
v -0.040321 1.222298 0.010923
v -0.053824 1.222298 0.057282
v -0.117762 1.208228 0.093373
v -0.165651 1.207284 0.043366
v -0.143627 1.195207 -0.029017
v -0.078398 1.201304 -0.044991
v -0.080910 1.236922 -0.027060
v -0.133115 1.230279 -0.014275
v -0.148146 1.230279 0.037327
v -0.110972 1.231276 0.076146
v -0.090144 1.222298 0.032442
v -0.079993 1.222298 0.029956
v -0.076740 1.256989 0.043239
v -0.086891 1.256989 0.045725
v -0.100724 1.222298 0.068767
v -0.134121 1.222298 0.033893
v -0.120618 1.222298 -0.012466
v -0.073717 1.222298 -0.023952
v -0.205616 0.167920 0.051401
v 0.013735 0.167920 -0.002314
v -0.017843 0.117195 0.106096
v -0.000676 0.329139 0.274120
v -0.065106 0.329139 0.289897
v -0.000676 0.138074 0.274120
v -0.058376 0.187945 0.342939
v 0.017863 0.187945 0.324269
v 0.005228 0.370590 0.272674
v -0.071011 0.370590 0.291343
v -0.058376 0.352341 0.342939
v 0.017863 0.352341 0.324269
v 0.005228 0.096623 0.272674
v -0.058376 0.279268 0.342939
v -0.045834 0.279268 0.394155
v -0.049670 0.326534 0.378489
v 0.030405 0.187945 0.375485
v 0.030405 0.279268 0.375485
v -0.045834 0.187945 0.394155
v 0.017863 0.114872 0.324269
v 0.017863 0.279268 0.324269
v -0.058376 0.114872 0.342939
v 0.026568 0.326534 0.359819
v -0.049670 0.140679 0.378489
v 0.026568 0.140679 0.359819
v -0.084298 1.222298 0.012374
v -0.077070 1.222298 0.019922
v -0.094449 1.222298 0.014860
v -0.097372 1.222298 0.024893
v -0.094119 1.256989 0.038177
v -0.088128 1.296405 0.029185
v -0.091577 1.296405 0.025584
v -0.091196 1.256989 0.028143
v -0.081045 1.256989 0.025658
v -0.073817 1.256989 0.033205
v -0.085339 1.296405 0.019610
v -0.090182 1.296405 0.020796
v -0.083285 1.296405 0.027999
v -0.081890 1.296405 0.023212
vt 0.213110 0.648601
vt 0.209972 0.655091
vt 0.209972 0.495840
vt 0.213110 0.495813
vt 0.229547 0.308994
vt 0.231789 0.308994
vt 0.230119 0.381732
vt 0.228967 0.381826
vt 0.220682 0.495814
vt 0.220675 0.616006
vt 0.219387 0.616004
vt 0.219394 0.495813
vt 0.240820 0.699944
vt 0.240823 0.579939
vt 0.242111 0.579940
vt 0.242108 0.699944
vt 0.239661 0.591415
vt 0.239661 0.727274
vt 0.238389 0.727263
vt 0.238389 0.591404
vt 0.238389 0.591404
vt 0.238389 0.727263
vt 0.237106 0.727269
vt 0.237106 0.591409
vt 0.240823 0.815106
vt 0.242111 0.815107
vt 0.220682 0.730956
vt 0.219394 0.730954
vt 0.219759 0.417703
vt 0.219759 0.301779
vt 0.220836 0.292292
vt 0.220836 0.428066
vt 0.213322 0.475545
vt 0.213297 0.495813
vt 0.206886 0.417464
vt 0.205759 0.427786
vt 0.206886 0.301540
vt 0.205759 0.292012
vt 0.213322 0.243698
vt 0.213297 0.224265
vt 0.292323 0.344758
vt 0.292323 0.295840
vt 0.296043 0.262407
vt 0.296043 0.378330
vt 0.289606 0.369167
vt 0.289606 0.436173
vt 0.286890 0.344658
vt 0.283170 0.378091
vt 0.286890 0.295740
vt 0.283170 0.262168
vt 0.289606 0.271331
vt 0.289606 0.204326
vt 0.014416 0.786217
vt 0.014416 0.848618
vt 0.012443 0.844792
vt 0.012733 0.789871
vt 0.223079 0.604611
vt 0.224486 0.647914
vt 0.220836 0.647914
vt 0.220838 0.604611
vt 0.225428 0.265758
vt 0.223597 0.308994
vt 0.221356 0.308994
vt 0.221777 0.265758
vt 0.207705 0.720878
vt 0.209190 0.692223
vt 0.209972 0.694072
vt 0.208012 0.732090
vt 0.212725 0.666168
vt 0.210362 0.666189
vt 0.220837 0.266188
vt 0.220836 0.234935
vt 0.221869 0.224265
vt 0.220836 0.298755
vt 0.208343 0.657804
vt 0.206011 0.652040
vt 0.205759 0.640709
vt 0.208848 0.648376
vt 0.165255 0.658674
vt 0.163496 0.658650
vt 0.163496 0.292705
vt 0.165255 0.295121
vt 0.012439 0.747955
vt 0.012436 0.803160
vt 0.010823 0.804042
vt 0.011406 0.755246
vt 0.049363 0.812405
vt 0.049366 0.757286
vt 0.050400 0.764605
vt 0.051275 0.812991
vt 0.049363 0.865300
vt 0.051275 0.856732
vt 0.012439 0.855958
vt 0.010826 0.847024
vt 0.016822 0.786217
vt 0.016822 0.848618
vt 0.015752 0.842034
vt 0.015752 0.792762
vt 0.893282 0.658138
vt 0.893016 0.624711
vt 0.893704 0.624803
vt 0.893705 0.654833
vt 0.167054 0.285315
vt 0.168782 0.285327
vt 0.168782 0.643231
vt 0.167054 0.642804
vt 0.170898 0.285332
vt 0.172796 0.285315
vt 0.172796 0.627668
vt 0.170898 0.630338
vt 0.168782 0.288109
vt 0.170898 0.285315
vt 0.170898 0.647604
vt 0.168782 0.644768
vt 0.165255 0.290762
vt 0.165255 0.637494
vt 0.161715 0.650453
vt 0.161715 0.301034
vt 0.974255 0.206591
vt 0.975541 0.206570
vt 0.975555 0.213960
vt 0.973773 0.222289
vt 0.984666 0.565365
vt 0.983147 0.568270
vt 0.982956 0.551593
vt 0.984854 0.548923
vt 0.979083 0.574203
vt 0.977795 0.574212
vt 0.977313 0.558749
vt 0.979112 0.564059
vt 0.980424 0.574651
vt 0.980841 0.564486
vt 0.982660 0.576712
vt 0.981141 0.576705
vt 0.980841 0.566023
vt 0.982956 0.568859
vt 0.957409 0.706242
vt 0.957411 0.682577
vt 0.957907 0.678970
vt 0.957907 0.709947
vt 0.289421 0.346108
vt 0.289747 0.346116
vt 0.289747 0.362376
vt 0.289421 0.362368
vt 0.888481 0.609620
vt 0.890666 0.589878
vt 0.891051 0.597248
vt 0.889087 0.614977
vt 0.901556 0.708440
vt 0.901868 0.669004
vt 0.902260 0.677604
vt 0.902260 0.713031
vt 0.919904 0.384282
vt 0.919904 0.423716
vt 0.919452 0.428308
vt 0.919452 0.392880
vt 0.888481 0.649053
vt 0.889087 0.650402
vt 0.893017 0.589878
vt 0.893705 0.593510
vt 0.231789 0.224265
vt 0.231790 0.265758
vt 0.228139 0.265758
vt 0.231409 0.604611
vt 0.231406 0.647914
vt 0.227755 0.647914
vt 0.229168 0.604611
vt 0.221070 0.689330
vt 0.231409 0.689330
vt 0.023066 0.671509
vt 0.017754 0.671509
vt 0.018857 0.548710
vt 0.021977 0.548750
vt 0.219386 0.715674
vt 0.216248 0.715662
vt 0.216248 0.621021
vt 0.219386 0.623180
vt 0.232467 0.663786
vt 0.234308 0.663786
vt 0.234544 0.715732
vt 0.232365 0.715732
vt 0.209163 0.575451
vt 0.207011 0.570131
vt 0.207533 0.518518
vt 0.209685 0.523837
vt 0.017754 0.707996
vt 0.012443 0.707996
vt 0.013231 0.586102
vt 0.016923 0.586102
vt 0.223657 0.381826
vt 0.222505 0.381732
vt 0.231790 0.591404
vt 0.234924 0.591404
vt 0.228588 0.531757
vt 0.229740 0.531859
vt 0.222126 0.531859
vt 0.223278 0.531757
vt 0.222505 0.433956
vt 0.225043 0.433956
vt 0.225043 0.456799
vt 0.223730 0.456799
vt 0.234924 0.651274
vt 0.234924 0.611823
vt 0.237106 0.611832
vt 0.237106 0.651282
vt 0.227202 0.479641
vt 0.229740 0.479641
vt 0.222126 0.479641
vt 0.224664 0.479641
vt 0.013230 0.497673
vt 0.016922 0.497673
vt 0.018592 0.459595
vt 0.022283 0.459642
vt 0.230119 0.433956
vt 0.227581 0.433956
vt 0.234924 0.591404
vt 0.237106 0.591413
vt 0.237106 0.671701
vt 0.234924 0.671692
vt 0.228895 0.456799
vt 0.227581 0.456799
vt 0.207820 0.495813
vt 0.209972 0.501133
vt 0.224664 0.456799
vt 0.227202 0.456799
vt 0.228515 0.456799
vt 0.223350 0.456799
vt 0.215757 0.518311
vt 0.213576 0.518311
vt 0.213567 0.495813
vt 0.215748 0.495813
vt 0.209972 0.705296
vt 0.209972 0.666208
vt 0.212154 0.666189
vt 0.212154 0.705277
vt 0.891051 0.640341
vt 0.891477 0.636504
vt 0.893016 0.650370
vt 0.891051 0.668099
vt 0.890626 0.636511
vt 0.890626 0.628843
vt 0.891051 0.625006
vt 0.891477 0.628836
vt 0.893016 0.614945
vt 0.294919 0.569884
vt 0.294633 0.569468
vt 0.295251 0.551107
vt 0.295388 0.551306
vt 0.295519 0.587695
vt 0.295244 0.587299
vt 0.295194 0.570280
vt 0.270810 0.570688
vt 0.271084 0.570286
vt 0.270760 0.587702
vt 0.270485 0.588104
vt 0.270523 0.571100
vt 0.270198 0.588516
vt 0.294957 0.586883
vt 0.289421 0.309993
vt 0.289747 0.309997
vt 0.289747 0.327711
vt 0.289421 0.327707
vt 0.043820 0.551914
vt 0.043617 0.553738
vt 0.043414 0.551906
vt 0.043414 0.548250
vt 0.043617 0.546425
vt 0.043820 0.548257
vt 0.289660 0.346108
vt 0.289504 0.346106
vt 0.289659 0.382141
vt 0.289503 0.382138
vt 0.295519 0.551495
vt 0.271084 0.606483
vt 0.270953 0.606675
vt 0.270816 0.606872
vn -0.2379 0.0000 -0.9713
vn -0.9387 0.0494 0.3413
vn 0.9601 0.0000 0.2797
vn -0.7222 0.0000 0.6916
vn 0.2379 0.0000 0.9713
vn -0.9601 0.0000 -0.2797
vn 0.7222 0.0000 -0.6916
vn -0.4069 0.8262 0.3897
vn 0.1340 0.8262 0.5473
vn 0.5410 0.8262 0.1576
vn 0.4069 0.8262 -0.3897
vn -0.1340 0.8262 -0.5473
vn -0.5410 0.8262 -0.1576
vn -0.0000 1.0000 0.0000
vn -0.2127 0.2993 -0.9302
vn 0.4067 0.8027 -0.4362
vn -0.2309 0.6310 -0.7406
vn -0.7912 0.5623 -0.2404
vn -0.5667 0.6757 0.4714
vn 0.1125 0.8297 0.5468
vn 0.4751 0.8690 0.1384
vn 0.8675 0.4039 0.2903
vn -0.6376 0.3622 0.6799
vn -0.9307 0.2455 -0.2711
vn 0.6918 0.2874 -0.6625
vn 0.2154 0.4241 0.8796
vn -0.9270 -0.2450 -0.2841
vn 0.2317 0.0000 0.9728
vn -0.9567 -0.0000 -0.2911
vn 0.7095 0.0000 -0.7047
vn 0.5692 0.4937 -0.6575
vn -0.2585 0.4293 -0.8654
vn -0.8423 0.4507 -0.2956
vn -0.5896 0.5899 0.5517
vn 0.1551 0.6124 0.7752
vn 0.6571 0.7085 0.2573
vn 0.2213 -0.3667 0.9036
vn 0.4012 0.8263 -0.3954
vn 0.1976 0.3696 0.9080
vn -0.2104 0.4661 -0.8594
vn 0.5166 0.8429 0.1505
vn -0.7071 -0.2039 0.6771
vn 0.0203 -0.9992 -0.0336
vn -0.1628 0.7290 -0.6648
vn 0.0773 0.9457 0.3156
vn 0.0804 -0.9411 0.3283
vn 0.0773 -0.9457 0.3158
vn 0.0773 -0.9457 0.3157
vn -0.9368 -0.0494 0.3465
vn -0.0295 0.9923 -0.1203
vn 0.9901 0.0494 -0.1310
vn 0.9907 -0.0494 -0.1270
vn 0.0359 0.9670 0.2522
vn -0.9713 -0.0000 0.2379
vn 0.9443 0.0528 -0.3247
vn 0.9443 -0.0528 -0.3247
vn 0.0773 -0.9457 0.3156
vn -0.1628 -0.7290 -0.6648
vn -0.9875 -0.0528 0.1484
vn -0.9875 0.0528 0.1484
vn 0.2251 0.3229 0.9193
vn 0.2251 -0.3229 0.9193
vn 0.1371 0.8173 0.5597
vn 0.9713 0.0000 -0.2379
vn 0.1371 -0.8173 0.5597
vn -0.6977 0.2585 0.6682
vn -0.9420 0.1934 -0.2744
vn 0.7086 0.1934 -0.6786
vn 0.9420 -0.1934 0.2744
vn -0.7086 -0.1934 0.6786
vn -0.2213 0.3667 -0.9036
vn -0.2343 -0.1723 -0.9568
vn 0.2197 0.3833 0.8971
vn -0.9597 -0.0274 -0.2796
vn 0.7220 -0.0274 -0.6914
vn 0.9275 0.2585 0.2702
usemtl palet.001
s 1
f 1/1/1 2/2/1 3/3/1 4/4/1
f 5/5/2 6/6/2 7/7/2 8/8/2
f 9/9/3 10/10/3 11/11/3 12/12/3
f 13/13/4 14/14/4 15/15/4 16/16/4
f 17/17/1 18/18/1 19/19/1 20/20/1
f 14/21/5 9/22/5 12/23/5 15/24/5
f 18/25/6 13/13/6 16/16/6 19/26/6
f 10/10/7 17/27/7 20/28/7 11/11/7
f 21/29/8 22/30/8 11/31/8 20/32/8
f 23/33/9 21/29/9 20/32/9 19/34/9
f 24/35/10 23/33/10 19/34/10 16/36/10
f 25/37/11 24/35/11 16/36/11 15/38/11
f 26/39/12 25/37/12 15/38/12 12/40/12
f 22/30/13 26/39/13 12/40/13 11/31/13
f 3/41/14 27/42/14 22/43/14 21/44/14
f 4/45/14 3/41/14 21/44/14 23/46/14
f 28/47/14 4/45/14 23/46/14 24/48/14
f 6/49/14 28/47/14 24/48/14 25/50/14
f 29/51/14 6/49/14 25/50/14 26/52/14
f 27/42/14 29/51/14 26/52/14 22/43/14
f 30/53/15 31/54/15 32/55/15 33/56/15
f 34/57/3 35/58/3 36/59/3 37/60/3
f 38/61/4 39/62/4 40/63/4 41/64/4
f 42/65/16 43/66/16 36/67/16 2/68/16
f 44/69/17 42/70/17 2/2/17 1/1/17
f 45/71/18 44/72/18 1/73/18 41/64/18
f 30/74/19 45/71/19 41/64/19 40/63/19
f 31/75/20 30/76/20 40/77/20 37/78/20
f 43/66/21 31/75/21 37/78/21 36/67/21
f 32/79/3 46/80/3 47/81/3 48/82/3
f 44/83/22 45/84/22 49/85/22 50/86/22
f 43/87/23 42/88/23 51/89/23 46/90/23
f 31/91/24 43/87/24 46/90/24 32/92/24
f 45/84/25 30/93/25 33/94/25 49/85/25
f 42/95/26 44/96/26 50/97/26 51/98/26
f 52/99/27 53/100/27 54/101/27 55/102/27
f 49/103/4 33/104/4 56/105/4 57/106/4
f 51/107/1 50/108/1 58/109/1 59/110/1
f 33/111/28 32/112/28 48/113/28 56/114/28
f 50/115/29 49/103/29 57/106/29 58/116/29
f 46/80/30 51/117/30 59/118/30 47/81/30
f 60/119/31 53/120/31 47/121/31 59/122/31
f 61/123/32 60/124/32 59/125/32 58/126/32
f 62/127/33 61/128/33 58/129/33 57/130/33
f 63/131/34 62/127/34 57/130/34 56/132/34
f 52/133/35 63/134/35 56/135/35 48/136/35
f 53/137/36 52/138/36 48/139/36 47/140/36
f 64/141/37 65/142/37 66/143/37 67/144/37
f 62/145/38 63/146/38 68/147/38 69/148/38
f 60/149/39 61/150/39 70/151/39 71/152/39
f 63/153/40 52/154/40 55/155/40 68/156/40
f 61/157/41 62/145/41 69/148/41 70/158/41
f 53/100/42 60/159/42 71/160/42 54/101/42
f 38/61/6 41/64/6 1/73/6 4/161/6 28/162/6 72/163/6
f 28/162/4 6/6/4 5/5/4 72/163/4
f 72/163/4 5/5/4 39/62/4 38/61/4
f 29/164/3 27/165/3 73/166/3 74/167/3
f 74/167/3 73/166/3 35/58/3 34/57/3
f 2/168/7 36/59/7 35/58/7 73/166/7 27/165/7 3/169/7
f 39/170/43 34/171/43 75/172/43 76/173/43
f 5/174/5 74/175/5 34/176/5 39/177/5
f 77/178/44 8/179/44 78/180/44 79/181/44
f 80/182/45 81/183/45 82/184/45 83/185/45
f 6/186/46 29/187/46 84/188/47 7/189/48
f 40/63/49 39/62/49 76/190/49 81/191/49
f 74/192/50 5/193/50 8/179/50 77/178/50
f 29/164/51 74/167/51 77/194/51 84/195/51
f 34/57/52 37/60/52 80/196/52 75/197/52
f 37/78/53 40/77/53 81/183/53 80/182/53
f 82/198/54 85/199/54 86/200/54 87/201/54
f 88/202/5 89/203/5 86/204/5 90/205/5
f 84/195/55 77/194/55 79/206/55 91/207/55
f 75/197/56 80/196/56 83/208/56 92/209/56
f 7/189/48 84/188/47 91/210/57 93/211/57
f 76/173/58 75/172/58 92/212/58 85/213/58
f 81/191/59 76/190/59 85/199/59 82/198/59
f 8/8/60 7/7/60 93/214/60 78/215/60
f 86/204/61 89/203/61 94/216/61 87/217/61
f 95/218/62 96/219/62 88/202/62 90/205/62
f 78/215/54 93/214/54 95/220/54 90/221/54
f 83/185/63 82/184/63 87/222/63 94/223/63
f 79/206/64 92/209/64 89/224/64 88/225/64
f 91/207/64 79/206/64 88/225/64 96/226/64
f 92/209/64 83/208/64 94/227/64 89/224/64
f 93/228/65 91/229/65 96/230/65 95/231/65
f 90/221/54 86/200/54 85/199/54 78/215/54
f 78/232/1 85/233/1 92/234/1 79/235/1
f 97/236/14 98/237/14 54/238/14 71/239/14
f 99/240/14 97/236/14 71/239/14 70/158/14
f 100/241/14 99/240/14 70/158/14 69/148/14
f 64/242/14 100/241/14 69/148/14 68/147/14
f 65/243/14 64/242/14 68/147/14 55/244/14
f 98/237/14 65/243/14 55/244/14 54/238/14
f 101/245/66 67/246/66 102/247/66 103/248/66
f 99/249/67 100/250/67 101/245/67 104/251/67
f 98/252/68 97/253/68 105/254/68 106/255/68
f 65/256/69 98/252/69 106/255/69 66/257/69
f 100/250/70 64/258/70 67/246/70 101/245/70
f 97/259/71 99/260/71 104/261/71 105/262/71
f 107/263/14 108/264/14 103/265/14 102/266/14 109/267/14 110/268/14
f 105/262/72 104/261/72 108/269/72 107/270/72
f 67/144/73 66/143/73 109/271/73 102/272/73
f 104/251/74 101/245/74 103/248/74 108/273/74
f 106/255/75 105/254/75 107/274/75 110/275/75
f 66/257/76 106/255/76 110/275/76 109/276/76
