# Blender v2.79 (sub 0) OBJ File: 'INNI.blend'
# www.blender.org
o Cylinder.013_Cylinder.024
v 0.140211 0.310604 0.277156
v -0.140211 0.079254 -0.277156
v -0.022697 0.251284 0.359570
v -0.178728 0.065229 -0.257671
v -0.123380 0.095982 0.410505
v -0.202532 0.028511 -0.245628
v -0.123380 -0.095982 0.410505
v -0.202532 0.002069 -0.245628
v -0.022697 -0.195911 0.359570
v -0.193702 -0.006695 -0.250095
v 0.140211 -0.255231 0.277156
v -0.140211 -0.026173 -0.277156
v 0.303119 -0.195911 0.194742
v -0.086720 -0.006695 -0.304217
v 0.403802 -0.095982 0.143807
v -0.077890 0.002069 -0.308684
v 0.403802 0.095982 0.143807
v -0.077890 0.028511 -0.308684
v 0.303119 0.251284 0.194742
v -0.101695 0.065229 -0.296641
v -0.000000 0.359267 -0.000000
v -0.188432 0.290653 0.095326
v -0.304889 0.111020 0.154241
v -0.304889 -0.111020 0.154241
v -0.188432 -0.235281 0.095326
v 0.000000 -0.265617 -0.000000
v 0.188432 -0.235281 -0.095326
v 0.304889 -0.111020 -0.154241
v 0.304889 0.111020 -0.154241
v 0.188432 0.290653 -0.095326
v 0.214462 0.141785 0.423929
v 0.140098 0.114707 0.461549
v 0.094138 0.043814 0.484800
v 0.094138 -0.043814 0.484800
v 0.140098 -0.114707 0.461549
v 0.214462 -0.141785 0.423929
v 0.288827 -0.114707 0.386308
v 0.334787 -0.043814 0.363057
v 0.334787 0.043814 0.363057
v 0.288827 0.114707 0.386308
v 0.287457 0.055427 0.568218
v 0.258386 0.044841 0.582925
v 0.240420 0.017128 0.592014
v 0.240420 -0.017128 0.592014
v 0.258386 -0.044841 0.582925
v 0.287457 -0.055427 0.568218
v 0.316528 -0.044841 0.553511
v 0.334495 -0.017128 0.544422
v 0.334495 0.017128 0.544422
v 0.316528 0.044841 0.553511
v 0.332515 0.042231 0.657283
v 0.310365 0.034165 0.668489
v 0.296676 0.013050 0.675414
v 0.296676 -0.013050 0.675414
v 0.310365 -0.034165 0.668489
v 0.332515 -0.042230 0.657283
v 0.354664 -0.034165 0.646078
v 0.368353 -0.013050 0.639153
v 0.368353 0.013050 0.639153
v 0.354664 0.034165 0.646078
v 0.364077 0.068672 0.719673
v 0.328059 0.055557 0.737894
v 0.305799 0.021221 0.749155
v 0.305799 -0.021221 0.749155
v 0.328059 -0.055557 0.737894
v 0.364077 -0.068672 0.719673
v 0.400095 -0.055557 0.701451
v 0.422355 -0.021221 0.690190
v 0.422355 0.021221 0.690190
v 0.400095 0.055557 0.701451
v 0.390403 0.033340 0.771712
v 0.372917 0.026973 0.780558
v 0.362110 0.010303 0.786025
v 0.362110 -0.010303 0.786025
v 0.372917 -0.026973 0.780558
v 0.390403 -0.033340 0.771712
v 0.407890 -0.026973 0.762866
v 0.418697 -0.010303 0.757398
v 0.418697 0.010303 0.757398
v 0.407890 0.026973 0.762866
v -0.303119 0.251284 -0.194742
v -0.140211 0.310604 -0.277156
v -0.403802 0.095982 -0.143807
v -0.403802 -0.095982 -0.143807
v -0.303119 -0.195911 -0.194742
v -0.140211 -0.255231 -0.277156
v 0.022697 -0.195911 -0.359570
v 0.123380 -0.095982 -0.410505
v 0.123380 0.095982 -0.410505
v 0.022697 0.251284 -0.359570
v -0.280568 0.216498 -0.206151
v -0.140211 0.267607 -0.277156
v -0.367313 0.082695 -0.162267
v -0.367313 -0.077574 -0.162267
v -0.284616 -0.159652 -0.204103
v -0.140211 -0.212234 -0.277156
v 0.004194 -0.159652 -0.350209
v 0.086891 -0.077574 -0.392045
v 0.086891 0.082695 -0.392045
v 0.000146 0.216498 -0.348161
vt 0.398034 0.310953
vt 0.398135 0.214300
vt 0.401206 0.179377
vt 0.401586 0.270559
vt 0.405249 0.168245
vt 0.406262 0.257682
vt 0.420878 0.515954
vt 0.419897 0.640881
vt 0.417483 0.640807
vt 0.418086 0.515869
vt 0.414289 0.640821
vt 0.414283 0.515881
vt 0.410409 0.640881
vt 0.410276 0.515966
vt 0.421953 0.273755
vt 0.423288 0.168980
vt 0.427089 0.168245
vt 0.425869 0.265362
vt 0.430233 0.180256
vt 0.429614 0.280965
vt 0.398034 0.520487
vt 0.397196 0.644326
vt 0.393891 0.647415
vt 0.394211 0.524060
vt 0.895839 0.550907
vt 0.896598 0.570635
vt 0.896598 0.595021
vt 0.895839 0.614749
vt 0.895124 0.619139
vt 0.894800 0.615538
vt 0.893747 0.588139
vt 0.893747 0.554273
vt 0.893897 0.547761
vt 0.894612 0.543371
vt 0.389806 0.647415
vt 0.389486 0.524060
vt 0.386501 0.644326
vt 0.385663 0.520487
vt 0.393891 0.398171
vt 0.389806 0.398171
vt 0.390916 0.327779
vt 0.392781 0.327779
vt 0.386501 0.395082
vt 0.397196 0.395082
vt 0.424679 0.381887
vt 0.427823 0.393898
vt 0.420878 0.382623
vt 0.414285 0.390997
vt 0.410404 0.391058
vt 0.417479 0.390984
vt 0.406805 0.370124
vt 0.410276 0.277241
vt 0.410276 0.387034
vt 0.402763 0.381257
vt 0.399692 0.416180
vt 0.406403 0.463482
vt 0.407988 0.471201
vt 0.407336 0.535766
vt 0.406490 0.531643
vt 0.430233 0.431722
vt 0.426252 0.488938
vt 0.425152 0.471672
vt 0.423400 0.461209
vt 0.421664 0.461545
vt 0.411829 0.324952
vt 0.413601 0.324925
vt 0.415377 0.324928
vt 0.404558 0.468564
vt 0.403156 0.484506
vt 0.389407 0.326369
vt 0.975239 0.510304
vt 0.976175 0.515893
vt 0.975384 0.554430
vt 0.974862 0.551313
vt 0.390544 0.260427
vt 0.391350 0.261180
vt 0.423729 0.535580
vt 0.422793 0.529990
vt 0.413605 0.259933
vt 0.414553 0.259935
vt 0.405504 0.534357
vt 0.404756 0.542873
vt 0.394290 0.326369
vt 0.392347 0.261180
vt 0.393153 0.260427
vt 0.412659 0.259948
vt 0.421866 0.530170
vt 0.975194 0.278871
vt 0.974665 0.278870
vt 0.974663 0.250737
vt 0.975523 0.250738
vt 0.966999 0.240249
vt 0.966051 0.240247
vt 0.966053 0.200125
vt 0.966581 0.200126
vt 0.957201 0.523187
vt 0.957950 0.514671
vt 0.958475 0.553828
vt 0.958057 0.558576
vt 0.945598 0.240741
vt 0.944792 0.241494
vt 0.944572 0.200574
vt 0.945021 0.200154
vt 0.965104 0.240261
vt 0.965525 0.200133
vt 0.958936 0.511956
vt 0.959024 0.552315
vt 0.943796 0.241494
vt 0.944016 0.200574
vt 0.974312 0.510483
vt 0.974345 0.551414
vt 0.959782 0.516080
vt 0.959496 0.554614
vt 0.942990 0.240741
vt 0.943567 0.200154
vt 0.966367 0.657714
vt 0.967046 0.649993
vt 0.967482 0.676031
vt 0.967152 0.679779
vt 0.966670 0.637322
vt 0.967088 0.632573
vt 0.953634 0.278899
vt 0.953185 0.279319
vt 0.953359 0.251954
vt 0.954089 0.251271
vt 0.974138 0.278878
vt 0.973805 0.250750
vt 0.967637 0.631060
vt 0.967940 0.647532
vt 0.952629 0.279319
vt 0.952455 0.251954
vt 0.982958 0.630159
vt 0.983475 0.630059
vt 0.983195 0.648832
vt 0.982355 0.648995
vt 0.975522 0.278881
vt 0.976056 0.250755
vt 0.952180 0.278899
vt 0.951725 0.251271
vt 0.983997 0.633175
vt 0.984044 0.653900
vt 0.967916 0.674836
vt 0.968288 0.676651
vt 0.968457 0.680783
vt 0.968358 0.685653
vt 0.968028 0.689402
vt 0.967594 0.690597
vt 0.967222 0.688782
vt 0.967053 0.684650
vt 0.984577 0.662262
vt 0.983651 0.682455
vt 0.983392 0.678395
vt 0.974249 0.227310
vt 0.974665 0.227303
vt 0.952688 0.227635
vt 0.953126 0.227635
vt 0.982980 0.675934
vt 0.982572 0.676013
vt 0.968707 0.651271
vt 0.952333 0.227303
vt 0.975083 0.227304
vt 0.408616 0.723193
vt 0.406547 0.669383
vt 0.407085 0.655394
vt 0.409487 0.717850
vt 0.403200 0.648830
vt 0.403200 0.631538
vt 0.399956 0.668747
vt 0.399315 0.655394
vt 0.398904 0.714394
vt 0.398034 0.710969
vt 0.398904 0.782825
vt 0.398034 0.788168
vt 0.401033 0.838187
vt 0.400435 0.850624
vt 0.403304 0.863434
vt 0.403200 0.881362
vt 0.406547 0.843516
vt 0.407085 0.857506
vt 0.408616 0.789706
vt 0.409487 0.795050
vt 0.591209 0.496226
vt 0.590451 0.476497
vt 0.592571 0.421352
vt 0.594640 0.475162
vt 0.589223 0.468962
vt 0.589223 0.400798
vt 0.588508 0.473352
vt 0.585980 0.420715
vt 0.588358 0.479864
vt 0.584928 0.466362
vt 0.588358 0.513730
vt 0.584928 0.534794
vt 0.589412 0.541128
vt 0.587056 0.590156
vt 0.589736 0.544730
vt 0.589327 0.615402
vt 0.590451 0.540340
vt 0.592571 0.595485
vt 0.591209 0.520611
vt 0.594640 0.541675
vn -0.3393 0.9407 0.0065
vn -0.7805 0.5814 0.2297
vn -0.9491 -0.0000 0.3150
vn -0.6635 -0.7277 0.1737
vn -0.2371 -0.9713 0.0213
vn 0.1576 -0.9713 -0.1783
vn 0.5330 -0.7277 -0.4316
vn 0.8160 0.0000 -0.5780
vn -0.4514 0.0000 -0.8923
vn 0.6475 0.5814 -0.4927
vn 0.2062 0.9407 -0.2695
vn 0.8319 0.4206 0.3619
vn 0.3393 0.9407 -0.0065
vn 0.7805 0.5814 -0.2297
vn 0.9491 0.0000 -0.3150
vn 0.6635 -0.7277 -0.1737
vn 0.2371 -0.9713 -0.0213
vn -0.1576 -0.9713 0.1783
vn -0.5330 -0.7277 0.4316
vn -0.8160 0.0000 0.5780
vn -0.6475 0.5814 0.4927
vn -0.2062 0.9407 0.2695
vn -0.5911 0.0000 0.8066
vn 0.9539 0.0000 0.3003
vn 0.7823 -0.5282 0.3301
vn 0.4782 -0.7952 0.3728
vn 0.0170 -0.7952 0.6061
vn -0.1975 -0.5282 0.8258
vn 0.1180 0.6806 0.7231
vn -0.3232 -0.0000 0.9463
vn -0.2013 0.4206 0.8846
vn 0.5126 0.6806 0.5235
vn 0.7726 -0.5832 -0.2510
vn 0.4503 0.8479 0.2797
vn 0.8481 -0.5241 0.0785
vn -0.4392 -0.5241 0.7297
vn -0.0414 0.8479 0.5285
vn 1.0000 0.0000 0.0016
vn -0.0414 -0.8479 0.5285
vn -0.4392 0.5241 0.7297
vn 0.8481 0.5241 0.0785
vn 0.4503 -0.8479 0.2797
vn -0.8321 -0.5531 0.0417
vn -0.6599 -0.5832 0.4737
vn -0.2173 0.9436 0.2497
vn 0.9417 0.0000 -0.3366
vn -0.2173 -0.9436 0.2497
vn -0.6599 0.5832 0.4737
vn 0.7726 0.5832 -0.2510
vn 0.3299 -0.9436 -0.0271
vn -0.8290 0.0000 0.5592
vn 0.3299 0.9436 -0.0271
vn -0.0136 0.8241 0.5663
vn -0.4122 0.8949 -0.1707
vn 0.6869 0.0000 -0.7268
vn -0.4122 -0.8949 -0.1707
vn -0.8321 0.5531 0.0417
vn 0.5265 0.5531 -0.6456
vn 0.1067 -0.8949 -0.4333
vn -0.9924 0.0000 0.1228
vn 0.1067 0.8949 -0.4333
vn 0.5265 -0.5531 -0.6456
vn 0.4514 0.0000 0.8923
vn 0.9985 0.0000 0.0543
vn -0.0136 -0.8241 0.5663
vn -0.4001 0.5093 0.7619
vn 0.8509 0.5093 0.1290
vn 0.4643 -0.8241 0.3246
vn -0.5478 0.0000 0.8366
vn 0.4643 0.8241 0.3246
vn 0.8509 -0.5093 0.1290
vn -0.4001 -0.5093 0.7619
s off
f 21/1/1 82/2/1 81/3/1 22/4/1
f 22/4/2 81/3/2 83/5/2 23/6/2
f 23/7/3 83/8/3 84/9/3 24/10/3
f 24/10/4 84/9/4 85/11/4 25/12/4
f 25/12/5 85/11/5 86/13/5 26/14/5
f 26/15/6 86/16/6 87/17/6 27/18/6
f 27/18/7 87/17/7 88/19/7 28/20/7
f 28/21/8 88/22/8 89/23/8 29/24/8
f 4/25/9 2/26/9 20/27/9 18/28/9 16/29/9 14/30/9 12/31/9 10/32/9 8/33/9 6/34/9
f 29/24/10 89/23/10 90/35/10 30/36/10
f 30/36/11 90/35/11 82/37/11 21/38/11
f 17/39/12 19/40/12 40/41/12 39/42/12
f 19/40/13 30/36/13 21/38/13 1/43/13
f 17/39/14 29/24/14 30/36/14 19/40/14
f 15/44/15 28/21/15 29/24/15 17/39/15
f 13/45/16 27/18/16 28/20/16 15/46/16
f 11/47/17 26/15/17 27/18/17 13/45/17
f 9/48/18 25/12/18 26/14/18 11/49/18
f 7/50/19 24/10/19 25/12/19 9/48/19
f 5/51/20 23/6/20 24/52/20 7/53/20
f 3/54/21 22/4/21 23/6/21 5/51/21
f 1/55/22 21/1/22 22/4/22 3/54/22
f 33/56/23 34/57/23 44/58/23 43/59/23
f 15/46/24 17/60/24 39/61/24 38/62/24
f 13/45/25 15/46/25 38/62/25 37/63/25
f 11/47/26 13/45/26 37/63/26 36/64/26
f 9/48/27 11/49/27 36/65/27 35/66/27
f 7/50/28 9/48/28 35/66/28 34/67/28
f 1/55/29 3/54/29 32/68/29 31/69/29
f 5/51/30 7/53/30 34/57/30 33/56/30
f 3/54/31 5/51/31 33/56/31 32/68/31
f 19/40/32 1/43/32 31/70/32 40/41/32
f 47/71/33 48/72/33 58/73/33 57/74/33
f 40/41/34 31/70/34 41/75/34 50/76/34
f 37/63/35 38/62/35 48/77/35 47/78/35
f 34/67/36 35/66/36 45/79/36 44/80/36
f 31/69/37 32/68/37 42/81/37 41/82/37
f 38/83/38 39/42/38 49/84/38 48/85/38
f 35/66/39 36/65/39 46/86/39 45/79/39
f 32/68/40 33/56/40 43/59/40 42/81/40
f 39/42/41 40/41/41 50/76/41 49/84/41
f 36/64/42 37/63/42 47/78/42 46/87/42
f 54/88/43 55/89/43 65/90/43 64/91/43
f 44/92/44 45/93/44 55/94/44 54/95/44
f 41/96/45 42/97/45 52/98/45 51/99/45
f 48/100/46 49/101/46 59/102/46 58/103/46
f 45/93/47 46/104/47 56/105/47 55/94/47
f 42/97/48 43/106/48 53/107/48 52/98/48
f 49/101/49 50/108/49 60/109/49 59/102/49
f 46/110/50 47/71/50 57/74/50 56/111/50
f 43/106/51 44/112/51 54/113/51 53/107/51
f 50/108/52 41/114/52 51/115/52 60/109/52
f 61/116/53 62/117/53 72/118/53 71/119/53
f 51/120/54 52/121/54 62/117/54 61/116/54
f 58/122/55 59/123/55 69/124/55 68/125/55
f 55/89/56 56/126/56 66/127/56 65/90/56
f 52/121/57 53/128/57 63/129/57 62/117/57
f 59/123/58 60/130/58 70/131/58 69/124/58
f 56/132/59 57/133/59 67/134/59 66/135/59
f 53/136/60 54/88/60 64/91/60 63/137/60
f 60/130/61 51/138/61 61/139/61 70/131/61
f 57/133/62 58/140/62 68/141/62 67/134/62
f 71/119/63 72/118/63 73/142/63 74/143/63 75/144/63 76/145/63 77/146/63 78/147/63 79/148/63 80/149/63
f 68/141/64 69/150/64 79/151/64 78/152/64
f 65/90/65 66/127/65 76/153/65 75/154/65
f 62/117/66 63/129/66 73/142/66 72/118/66
f 69/124/67 70/131/67 80/155/67 79/156/67
f 66/135/68 67/134/68 77/157/68 76/158/68
f 63/129/69 64/159/69 74/143/69 73/142/69
f 70/131/70 61/139/70 71/160/70 80/155/70
f 67/134/71 68/141/71 78/152/71 77/157/71
f 64/91/72 65/90/72 75/154/72 74/161/72
f 92/162/9 91/163/9 81/164/9 82/165/9
f 91/163/9 93/166/9 83/167/9 81/164/9
f 93/166/9 94/168/9 84/169/9 83/167/9
f 94/168/9 95/170/9 85/171/9 84/169/9
f 95/170/9 96/172/9 86/173/9 85/171/9
f 96/172/9 97/174/9 87/175/9 86/173/9
f 97/174/9 98/176/9 88/177/9 87/175/9
f 98/176/9 99/178/9 89/179/9 88/177/9
f 99/178/9 100/180/9 90/181/9 89/179/9
f 100/180/9 92/162/9 82/165/9 90/181/9
f 2/182/9 4/183/9 91/184/9 92/185/9
f 4/183/9 6/186/9 93/187/9 91/184/9
f 6/186/9 8/188/9 94/189/9 93/187/9
f 8/188/9 10/190/9 95/191/9 94/189/9
f 10/190/9 12/192/9 96/193/9 95/191/9
f 12/192/9 14/194/9 97/195/9 96/193/9
f 14/194/9 16/196/9 98/197/9 97/195/9
f 16/196/9 18/198/9 99/199/9 98/197/9
f 18/198/9 20/200/9 100/201/9 99/199/9
f 20/200/9 2/182/9 92/185/9 100/201/9
