# Blender v2.79 (sub 0) OBJ File: 'UNITYYN.blend'
# www.blender.org
mtllib ovi.mtl
o OVI.002_Cube.019
v -0.146067 -0.384056 -0.197741
v -0.146067 4.255633 -0.197741
v -0.148032 -0.384056 -0.844220
v -0.148032 4.255633 -0.844220
v 0.066410 -0.384056 -0.198386
v 0.066410 4.255633 -0.198386
v 0.064445 -0.384056 -0.844866
v 0.064445 4.255633 -0.844866
v -0.148228 -0.384056 -0.908868
v -0.148228 4.255633 -0.908868
v -0.150193 -0.384056 -1.555348
v -0.150193 4.255633 -1.555348
v 0.064249 -0.384056 -0.909514
v 0.064249 4.255633 -0.909514
v 0.062284 -0.384056 -1.555994
v 0.062284 4.255633 -1.555994
v -0.150389 -0.384056 -1.619996
v -0.150389 4.255633 -1.619996
v -0.152354 -0.384056 -2.266476
v -0.152354 4.255633 -2.266476
v 0.062087 -0.384056 -1.620642
v 0.062087 4.255633 -1.620642
v 0.060123 -0.384056 -2.267122
v 0.060123 4.255633 -2.267122
v -0.261056 -0.145364 -0.034474
v -0.261056 0.397742 -0.034474
v -0.267607 -0.145364 -2.190000
v -0.267607 0.397742 -2.190000
v 0.182389 -0.145364 -0.035822
v 0.182389 0.397742 -0.035822
v 0.175839 -0.145364 -2.191347
v 0.175839 0.397742 -2.191347
v -0.261056 3.303027 -0.034474
v -0.261056 3.846134 -0.034474
v -0.267607 3.303027 -2.190000
v -0.267607 3.846134 -2.190000
v 0.182389 3.303027 -0.035822
v 0.182389 3.846134 -0.035822
v 0.175839 3.303027 -2.191347
v 0.175839 3.846134 -2.191347
vt 0.638679 0.200429
vt 0.639776 0.887839
vt 0.633053 0.887433
vt 0.632550 0.199514
vt 0.632922 0.895136
vt 0.632438 0.216906
vt 0.639534 0.895528
vt 0.638475 0.217793
vt 0.631937 0.199423
vt 0.632380 0.887392
vt 0.625645 0.886986
vt 0.625797 0.198507
vt 0.625636 0.894703
vt 0.625787 0.215928
vt 0.632260 0.895096
vt 0.631834 0.216817
vt 0.625183 0.198415
vt 0.624970 0.886945
vt 0.618222 0.886538
vt 0.619032 0.197497
vt 0.618336 0.894270
vt 0.619124 0.214949
vt 0.624973 0.894664
vt 0.625181 0.215839
vt 0.230944 0.230492
vt 0.231082 0.305817
vt 0.210130 0.302956
vt 0.210212 0.227459
vt 0.210305 0.336490
vt 0.210383 0.263019
vt 0.230594 0.339172
vt 0.230465 0.265865
vt 0.231873 0.737484
vt 0.232032 0.823996
vt 0.209569 0.822435
vt 0.209662 0.735691
vt 0.209775 0.840701
vt 0.209863 0.756667
vt 0.231478 0.842158
vt 0.231331 0.758341
vn -1.0000 0.0000 0.0030
vn -0.0030 0.0000 -1.0000
vn 1.0000 0.0000 -0.0030
vn 0.0030 0.0000 1.0000
vn 0.0000 -1.0000 0.0000
vn 0.0000 1.0000 0.0000
usemtl OVI
s off
f 1/1/1 2/2/1 4/3/1 3/4/1
f 3/4/2 4/3/2 8/5/2 7/6/2
f 7/6/3 8/5/3 6/7/3 5/8/3
f 5/8/4 6/7/4 2/2/4 1/1/4
f 3/4/5 7/6/5 5/8/5 1/1/5
f 8/5/6 4/3/6 2/2/6 6/7/6
f 9/9/1 10/10/1 12/11/1 11/12/1
f 11/12/2 12/11/2 16/13/2 15/14/2
f 15/14/3 16/13/3 14/15/3 13/16/3
f 13/16/4 14/15/4 10/10/4 9/9/4
f 11/12/5 15/14/5 13/16/5 9/9/5
f 16/13/6 12/11/6 10/10/6 14/15/6
f 17/17/1 18/18/1 20/19/1 19/20/1
f 19/20/2 20/19/2 24/21/2 23/22/2
f 23/22/3 24/21/3 22/23/3 21/24/3
f 21/24/4 22/23/4 18/18/4 17/17/4
f 19/20/5 23/22/5 21/24/5 17/17/5
f 24/21/6 20/19/6 18/18/6 22/23/6
f 25/25/1 26/26/1 28/27/1 27/28/1
f 27/28/2 28/27/2 32/29/2 31/30/2
f 31/30/3 32/29/3 30/31/3 29/32/3
f 29/32/4 30/31/4 26/26/4 25/25/4
f 27/28/5 31/30/5 29/32/5 25/25/5
f 32/29/6 28/27/6 26/26/6 30/31/6
f 33/33/1 34/34/1 36/35/1 35/36/1
f 35/36/2 36/35/2 40/37/2 39/38/2
f 39/38/3 40/37/3 38/39/3 37/40/3
f 37/40/4 38/39/4 34/34/4 33/33/4
f 35/36/5 39/38/5 37/40/5 33/33/5
f 40/37/6 36/35/6 34/34/6 38/39/6
