# Blender v2.79 (sub 0) OBJ File: 'INNI.blend'
# www.blender.org
mtllib pullo3.mtl
o Cylinder.019_Cylinder.027
v -0.180067 0.022905 0.000000
v -0.127326 0.022905 -0.127326
v 0.000000 0.022905 -0.180067
v 0.127326 0.022905 -0.127326
v 0.180067 0.022905 0.000000
v 0.127326 0.022905 0.127326
v 0.000000 0.022905 0.180067
v -0.127326 0.022905 0.127326
v -0.254171 0.184975 -0.194736
v -0.272632 0.185014 0.000000
v 0.000000 0.139892 -0.333174
v 0.235590 0.139892 -0.235590
v 0.333174 0.139892 0.000000
v 0.235589 0.139892 0.235590
v 0.000000 0.139892 0.333174
v -0.254171 0.184975 0.194736
v -0.210742 0.792624 -0.210742
v -0.246382 0.792624 0.000000
v 0.000000 0.792624 -0.298034
v 0.210742 0.792624 -0.210742
v 0.298034 0.792624 0.000000
v 0.210742 0.792624 0.210742
v 0.000000 0.792624 0.298034
v -0.210742 0.792624 0.210742
v -0.082751 0.998300 -0.082751
v -0.117028 0.998300 0.000000
v 0.000000 0.998300 -0.117028
v 0.082751 0.998300 -0.082751
v 0.117028 0.998300 0.000000
v 0.082751 0.998300 0.082751
v 0.000000 0.998300 0.117028
v -0.082751 0.998300 0.082751
v -0.082751 1.418760 -0.082751
v -0.117028 1.418760 -0.000000
v 0.000000 1.418760 -0.117028
v 0.082751 1.418760 -0.082751
v 0.117028 1.418760 -0.000000
v 0.082751 1.418760 0.082751
v 0.000000 1.418760 0.117028
v -0.082751 1.418760 0.082751
v 0.000000 0.578994 -0.374616
v 0.264893 0.578994 -0.264893
v -0.306539 0.533871 0.000000
v -0.277457 0.533911 -0.218022
v -0.277457 0.533911 0.218022
v 0.264893 0.578994 0.264893
v 0.000000 0.578994 0.374616
v 0.374616 0.578994 0.000000
v 0.116984 1.208530 -0.116984
v 0.165440 1.208530 -0.000000
v -0.116984 1.208530 -0.116984
v 0.000000 1.208530 -0.165440
v 0.000000 1.208530 0.165440
v -0.116984 1.208530 0.116984
v 0.116984 1.208530 0.116984
v -0.165440 1.208530 -0.000000
v -0.235590 0.139892 -0.235590
v -0.271461 0.139892 0.000000
v -0.235590 0.139892 0.235590
v -0.264893 0.578994 -0.264893
v -0.264893 0.578994 0.264893
v -0.312902 0.578994 0.000000
vt 0.141529 0.697922
vt 0.138929 0.707483
vt 0.136784 0.640181
vt 0.141596 0.622491
vt 0.151407 0.273616
vt 0.157144 0.240048
vt 0.157875 0.332965
vt 0.153310 0.359671
vt 0.153294 0.688068
vt 0.151634 0.732914
vt 0.147817 0.707864
vt 0.150889 0.624885
vt 0.137090 0.751529
vt 0.137090 0.804259
vt 0.133382 0.819245
vt 0.133382 0.721680
vt 0.151634 0.788657
vt 0.153294 0.822644
vt 0.150889 0.873888
vt 0.147817 0.811004
vt 0.167326 0.666048
vt 0.164834 0.666762
vt 0.162315 0.616675
vt 0.167091 0.616190
vt 0.170100 0.666762
vt 0.172059 0.616675
vt 0.182501 0.372531
vt 0.177774 0.361800
vt 0.179810 0.259779
vt 0.181666 0.263993
vt 0.172625 0.433774
vt 0.167018 0.433125
vt 0.167215 0.345233
vt 0.171669 0.345715
vt 0.161668 0.433774
vt 0.162952 0.345714
vt 0.176638 0.453081
vt 0.172625 0.410671
vt 0.174581 0.328060
vt 0.147817 0.329099
vt 0.150454 0.403812
vt 0.161668 0.248058
vt 0.161474 0.339337
vt 0.182579 0.466569
vt 0.137610 0.268104
vt 0.143589 0.268104
vt 0.142978 0.358505
vt 0.138221 0.358505
vt 0.340657 0.606445
vt 0.342233 0.582082
vt 0.343833 0.663607
vt 0.342718 0.680840
vt 0.141534 0.447939
vt 0.139666 0.447939
vt 0.157985 0.442748
vt 0.156192 0.453235
vt 0.167580 0.261496
vt 0.169383 0.261959
vt 0.165961 0.261959
vt 0.178557 0.246531
vt 0.155071 0.470567
vt 0.159398 0.445250
vt 0.343178 0.744062
vt 0.341864 0.770249
vt 0.340007 0.770249
vt 0.338694 0.744062
vt 0.338694 0.707027
vt 0.340007 0.680840
vt 0.341864 0.680840
vt 0.343178 0.707027
vt 0.344752 0.567342
vt 0.346739 0.570859
vt 0.347020 0.655668
vt 0.345615 0.653180
vt 0.367698 0.250651
vt 0.365089 0.244729
vt 0.365966 0.158946
vt 0.367811 0.163136
vt 0.324759 0.590606
vt 0.327385 0.590606
vt 0.327001 0.678460
vt 0.325143 0.678459
vt 0.355322 0.232652
vt 0.352787 0.232001
vt 0.352935 0.145773
vt 0.354728 0.146234
vt 0.350511 0.232652
vt 0.351325 0.146234
vt 0.363327 0.226106
vt 0.364719 0.145773
vt 0.143368 0.728447
vt 0.143368 0.781177
vt 0.141529 0.825223
vt 0.138929 0.834784
vt 0.137941 0.086740
vt 0.143258 0.086740
vt 0.181333 0.626491
vt 0.176049 0.614495
vt 0.154544 0.086740
vt 0.158568 0.093864
vt 0.147019 0.091105
vt 0.147817 0.273012
vt 0.134180 0.091105
vt 0.133382 0.273013
vt 0.218606 0.633147
vt 0.213553 0.633485
vt 0.212900 0.448839
vt 0.218529 0.448361
vt 0.223785 0.633485
vt 0.224356 0.448839
vt 0.149441 0.116595
vt 0.329568 0.682069
vt 0.331365 0.678459
vt 0.331365 0.744027
vt 0.328825 0.749130
vt 0.352898 0.319530
vt 0.351288 0.319990
vt 0.354691 0.319990
vt 0.341575 0.510171
vt 0.343357 0.499745
vt 0.325143 0.504906
vt 0.327001 0.504906
vt 0.366904 0.322012
vt 0.365059 0.317823
vt 0.345206 0.744856
vt 0.343771 0.763366
vt 0.343178 0.707007
vt 0.345206 0.680840
vt 0.328314 0.506430
vt 0.329241 0.592761
vt 0.283059 0.570647
vt 0.288238 0.570985
vt 0.289370 0.595109
vt 0.283058 0.594493
vt 0.278006 0.570985
vt 0.276991 0.595109
vt 0.288809 0.386339
vt 0.290089 0.362750
vt 0.277353 0.386339
vt 0.276170 0.362750
vt 0.282982 0.385861
vt 0.282966 0.361926
vn 0.5888 -0.7706 -0.2439
vn 0.3633 0.3144 -0.8770
vn -0.2439 -0.7706 0.5888
vn -0.2439 -0.7706 -0.5888
vn 0.5888 -0.7706 0.2439
vn -0.7083 -0.6844 0.1729
vn -0.7083 -0.6844 -0.1729
vn 0.2439 -0.7706 -0.5888
vn 0.2439 -0.7706 0.5888
vn -0.2969 0.6309 0.7168
vn -0.9433 0.2874 -0.1659
vn -0.9433 0.2874 0.1659
vn 0.3633 0.3144 0.8770
vn 0.8770 0.3144 -0.3633
vn -0.3633 0.3144 -0.8770
vn -0.3633 0.3144 0.8770
vn 0.8770 0.3144 0.3633
vn 0.9037 0.2081 -0.3743
vn 0.7168 0.6309 0.2969
vn 0.2969 0.6309 -0.7168
vn -0.8042 0.5627 -0.1916
vn -0.8042 0.5627 0.1916
vn 0.2969 0.6309 0.7168
vn 0.7168 0.6309 -0.2969
vn -0.2969 0.6309 -0.7168
vn 0.0000 1.0000 0.0000
vn -0.3743 0.2081 -0.9037
vn -0.3743 0.2081 0.9037
vn 0.9037 0.2081 0.3743
vn 0.3743 0.2081 -0.9037
vn -0.9037 0.2081 -0.3743
vn -0.9037 0.2081 0.3743
vn 0.3743 0.2081 0.9037
vn 0.0000 -1.0000 0.0000
vn 0.9204 -0.0869 0.3812
vn -0.3812 -0.0869 0.9204
vn -0.3812 -0.0869 -0.9204
vn 0.9204 -0.0869 -0.3812
vn 0.3812 -0.0869 0.9204
vn -0.9898 -0.0849 0.1140
vn -0.9898 -0.0849 -0.1140
vn 0.3812 -0.0869 -0.9204
vn 0.3743 -0.2081 0.9037
vn -0.9037 -0.2081 0.3743
vn -0.9037 -0.2081 -0.3743
vn 0.3743 -0.2081 -0.9037
vn 0.9037 -0.2081 0.3743
vn -0.3743 -0.2081 0.9037
vn -0.3743 -0.2081 -0.9037
vn 0.9037 -0.2081 -0.3743
vn -0.9796 -0.1585 -0.1237
vn -0.9796 -0.1585 0.1237
vn -0.9390 -0.0849 -0.3334
vn -0.9390 -0.0849 0.3334
vn -0.9874 -0.0140 0.1576
vn -0.9874 -0.0140 -0.1576
usemtl palet
s off
f 5/1/1 4/2/1 12/3/1 13/4/1
f 42/5/2 41/6/2 19/7/2 20/8/2
f 8/9/3 7/10/3 15/11/3 59/12/3
f 3/13/4 2/14/4 57/15/4 11/16/4
f 6/17/5 5/18/5 13/19/5 14/20/5
f 1/21/6 8/22/6 59/23/6 58/24/6
f 2/25/7 1/21/7 58/24/7 57/26/7
f 4/2/8 3/13/8 11/16/8 12/3/8
f 7/10/9 6/17/9 14/20/9 15/11/9
f 24/27/10 23/28/10 31/29/10 32/30/10
f 60/31/11 62/32/11 18/33/11 17/34/11
f 62/32/12 61/35/12 24/36/12 18/33/12
f 47/37/13 46/38/13 22/39/13 23/28/13
f 48/40/14 42/5/14 20/8/14 21/41/14
f 41/6/15 60/42/15 17/43/15 19/7/15
f 61/44/16 47/37/16 23/28/16 24/27/16
f 46/45/17 48/46/17 21/47/17 22/48/17
f 50/49/18 49/50/18 36/51/18 37/52/18
f 22/48/19 21/47/19 29/53/19 30/54/19
f 20/8/20 19/7/20 27/55/20 28/56/20
f 17/34/21 18/33/21 26/57/21 25/58/21
f 18/33/22 24/36/22 32/59/22 26/57/22
f 23/28/23 22/39/23 30/60/23 31/29/23
f 21/41/24 20/8/24 28/56/24 29/61/24
f 19/7/25 17/43/25 25/62/25 27/55/25
f 33/63/26 34/64/26 40/65/26 39/66/26 38/67/26 37/68/26 36/69/26 35/70/26
f 52/71/27 51/72/27 33/73/27 35/74/27
f 54/75/28 53/76/28 39/77/28 40/78/28
f 55/79/29 50/80/29 37/81/29 38/82/29
f 49/50/30 52/71/30 35/74/30 36/51/30
f 51/83/31 56/84/31 34/85/31 33/86/31
f 56/84/32 54/87/32 40/88/32 34/85/32
f 53/76/33 55/89/33 38/90/33 39/77/33
f 2/14/34 3/13/34 4/2/34 5/1/34 6/91/34 7/92/34 8/93/34 1/94/34
f 14/95/35 13/96/35 48/46/35 46/45/35
f 59/97/36 15/98/36 47/37/36 61/44/36
f 11/99/37 57/100/37 60/42/37 41/6/37
f 13/96/38 12/101/38 42/102/38 48/46/38
f 15/103/39 14/95/39 46/45/39 47/104/39
f 10/105/40 16/106/40 45/107/40 43/108/40
f 9/109/41 10/105/41 43/108/41 44/110/41
f 12/111/42 11/99/42 41/6/42 42/5/42
f 31/112/43 30/113/43 55/114/43 53/115/43
f 26/116/44 32/117/44 54/87/44 56/84/44
f 25/118/45 26/116/45 56/84/45 51/83/45
f 28/119/46 27/120/46 52/71/46 49/50/46
f 30/121/47 29/122/47 50/80/47 55/79/47
f 32/123/48 31/124/48 53/76/48 54/75/48
f 27/125/49 25/126/49 51/127/49 52/128/49
f 29/122/50 28/129/50 49/130/50 50/80/50
f 10/131/51 9/132/51 57/133/51 58/134/51
f 16/135/52 10/131/52 58/134/52 59/136/52
f 9/132/53 44/137/53 60/138/53 57/133/53
f 45/139/54 16/135/54 59/136/54 61/140/54
f 43/141/55 45/139/55 61/140/55 62/142/55
f 44/137/56 43/141/56 62/142/56 60/138/56
