# Blender v2.79 (sub 0) OBJ File: 'Noin.blend'
# www.blender.org
mtllib sieni.mtl
o tatti_Cube.030
v 0.000000 0.000000 0.150594
v -0.150594 0.000000 0.000000
v 0.000000 0.000000 -0.150594
v 0.150594 0.000000 0.000000
v 0.000000 0.153274 0.164774
v -0.164774 0.153274 0.000000
v 0.000000 0.153274 -0.164774
v 0.164774 0.153274 0.000000
v 0.000000 0.402034 0.113096
v -0.113096 0.402034 0.000000
v 0.000000 0.402034 -0.113096
v 0.113096 0.402034 0.000000
v 0.072070 0.473647 0.000000
v 0.000000 0.473647 0.072070
v -0.072070 0.473647 0.000000
v 0.000000 0.473647 -0.072070
v 0.112946 0.000000 0.112946
v 0.000000 0.038319 0.174315
v -0.112946 0.000000 0.112946
v -0.174315 0.038319 0.000000
v -0.112946 0.000000 -0.112946
v 0.000000 0.038319 -0.174315
v 0.112946 0.000000 -0.112946
v 0.174315 0.038319 0.000000
v 0.123580 0.153274 0.123580
v 0.000000 0.292102 0.138768
v -0.123580 0.153274 0.123580
v -0.138768 0.292102 0.000000
v -0.123580 0.153274 -0.123580
v 0.000000 0.292102 -0.138768
v 0.123580 0.153274 -0.123580
v 0.138768 0.292102 0.000000
v 0.084822 0.402034 0.084822
v -0.084822 0.402034 0.084822
v -0.084822 0.402034 -0.084822
v 0.084822 0.402034 -0.084822
v 0.130736 0.038319 0.130736
v -0.130736 0.038319 0.130736
v -0.130736 0.038319 -0.130736
v 0.130736 0.038319 -0.130736
v 0.057164 0.455081 0.057164
v -0.057164 0.455081 0.057164
v -0.057164 0.455081 -0.057164
v 0.057164 0.455081 -0.057164
v 0.104076 0.292102 0.104076
v -0.104076 0.292102 0.104076
v -0.104076 0.292102 -0.104076
v 0.104076 0.292102 -0.104076
v 0.073762 1.015836 0.000000
v 0.336476 0.402072 0.000000
v 0.000000 0.445596 -0.339280
v -0.336476 0.489121 0.000000
v 0.000000 0.445596 0.339280
v 0.360483 0.688857 0.000000
v 0.036881 0.730716 -0.326298
v -0.286721 0.772575 0.000000
v 0.036881 0.730716 0.326298
v 0.064542 0.944556 0.131772
v 0.195225 0.927652 0.000000
v 0.064542 0.944556 -0.131772
v -0.066141 0.961460 0.000000
v 0.252357 0.412953 0.254460
v 0.448060 0.460111 0.000000
v 0.252357 0.412953 -0.254460
v 0.009220 0.516876 -0.442496
v -0.252357 0.478240 -0.254460
v -0.429620 0.573642 0.000000
v -0.252357 0.478240 0.254460
v 0.009220 0.516876 0.442496
v 0.279583 0.699322 0.244724
v 0.279583 0.699322 -0.244724
v -0.205821 0.762110 -0.244724
v -0.205821 0.762110 0.244724
v 0.338350 0.474303 0.331872
v 0.338350 0.474303 -0.331872
v -0.319910 0.559450 -0.331872
v -0.319910 0.559450 0.331872
v 0.187363 0.872301 0.131076
v 0.187363 0.872301 -0.131076
v -0.072622 0.905931 -0.131076
v -0.072622 0.905931 0.131076
vt 0.961787 0.838974
vt 0.964321 0.838922
vt 0.964511 0.846562
vt 0.961577 0.846622
vt 0.959230 0.817575
vt 0.959759 0.813879
vt 0.959759 0.771986
vt 0.959230 0.769083
vt 0.956410 0.714449
vt 0.956241 0.704141
vt 0.959180 0.704141
vt 0.958949 0.714449
vt 0.963814 0.738388
vt 0.961280 0.738440
vt 0.960990 0.730253
vt 0.963924 0.730193
vt 0.975935 0.416878
vt 0.975807 0.407314
vt 0.978744 0.407314
vt 0.978472 0.416878
vt 0.977080 0.706105
vt 0.979140 0.711416
vt 0.979676 0.722245
vt 0.977291 0.716098
vt 0.974362 0.720024
vt 0.974549 0.709497
vt 0.973043 0.773048
vt 0.974653 0.759115
vt 0.975157 0.807671
vt 0.973801 0.819405
vt 0.955388 0.823783
vt 0.955298 0.784817
vt 0.957604 0.785560
vt 0.958127 0.824666
vt 0.958471 0.854023
vt 0.955573 0.853089
vt 0.972659 0.734764
vt 0.956298 0.664735
vt 0.954096 0.656078
vt 0.954613 0.608333
vt 0.956468 0.615625
vt 0.958807 0.615625
vt 0.959076 0.664735
vt 0.953911 0.694982
vt 0.975903 0.368582
vt 0.973616 0.358331
vt 0.974179 0.311372
vt 0.976105 0.320006
vt 0.978442 0.320006
vt 0.978679 0.368582
vt 0.973388 0.396469
vt 0.977422 0.755404
vt 0.979676 0.761214
vt 0.979387 0.809439
vt 0.977489 0.804545
vt 0.955273 0.752708
vt 0.953911 0.738146
vt 0.954568 0.721356
vt 0.955479 0.725793
vt 0.956752 0.731578
vt 0.957153 0.753314
vt 0.974505 0.856157
vt 0.975610 0.846593
vt 0.958471 0.734907
vt 0.957517 0.714449
vt 0.956638 0.576202
vt 0.956919 0.547967
vt 0.958176 0.554605
vt 0.958545 0.576202
vt 0.955126 0.570260
vt 0.976294 0.280907
vt 0.974725 0.273871
vt 0.975474 0.254251
vt 0.976562 0.252413
vt 0.977815 0.258993
vt 0.978199 0.280907
vt 0.977510 0.844046
vt 0.979057 0.848034
vt 0.978410 0.868625
vt 0.977372 0.872587
vt 0.976087 0.867654
vt 0.965842 0.763483
vt 0.965842 0.805376
vt 0.416076 0.617906
vt 0.415104 0.621952
vt 0.414786 0.610655
vt 0.415682 0.605556
vt 0.411636 0.646828
vt 0.412188 0.632995
vt 0.412865 0.636718
vt 0.412413 0.650559
vt 0.416788 0.621952
vt 0.417624 0.630636
vt 0.417340 0.639386
vt 0.416508 0.632449
vt 0.409355 0.635934
vt 0.409690 0.651507
vt 0.408886 0.658976
vt 0.408519 0.644651
vt 0.406715 0.601226
vt 0.406032 0.604975
vt 0.406032 0.566372
vt 0.406715 0.571627
vt 0.407789 0.624927
vt 0.407433 0.635886
vt 0.409579 0.624963
vt 0.409768 0.635934
vt 0.411012 0.607234
vt 0.411636 0.612811
vt 0.411012 0.577635
vt 0.411636 0.574208
vt 0.409938 0.553934
vt 0.410235 0.543296
vt 0.408147 0.553897
vt 0.407900 0.543248
vt 0.414608 0.580062
vt 0.413447 0.601123
vt 0.412002 0.587638
vt 0.413576 0.559076
vt 0.415269 0.543248
vt 0.415856 0.568390
vt 0.416076 0.593123
vt 0.414231 0.656506
vt 0.414231 0.628149
vt 0.415847 0.621952
vt 0.415847 0.660406
vt 0.415281 0.693080
vt 0.413813 0.680600
vt 0.412642 0.664811
vt 0.416094 0.659796
vt 0.417819 0.659796
vt 0.418187 0.685526
vt 0.415847 0.685526
vt 0.409968 0.682555
vt 0.409963 0.707490
vt 0.407814 0.707490
vt 0.408383 0.682555
vt 0.407069 0.665579
vt 0.406032 0.684469
vt 0.413178 0.620664
vt 0.411636 0.614137
vt 0.406614 0.644358
vt 0.407939 0.638518
vt 0.861274 0.339526
vt 0.866592 0.339635
vt 0.869783 0.410032
vt 0.869783 0.497946
vt 0.865529 0.550607
vt 0.860210 0.550498
vt 0.857019 0.480101
vt 0.857019 0.392187
vn 0.0000 -0.8316 0.5553
vn 0.4022 -0.8224 0.4022
vn 0.6890 -0.2245 0.6890
vn 0.0000 -0.2204 0.9754
vn -0.6890 -0.2245 0.6890
vn -0.4022 -0.8224 0.4022
vn -0.5553 -0.8316 0.0000
vn -0.9754 -0.2204 0.0000
vn -0.6890 -0.2245 -0.6890
vn -0.4022 -0.8224 -0.4022
vn 0.0000 -0.8316 -0.5553
vn 0.0000 -0.2204 -0.9754
vn 0.6890 -0.2245 -0.6890
vn 0.4022 -0.8224 -0.4022
vn 0.5553 -0.8316 0.0000
vn 0.9754 -0.2204 0.0000
vn 0.0000 0.1322 0.9912
vn 0.7002 0.1394 0.7002
vn 0.6904 0.2163 0.6904
vn 0.0000 0.2049 0.9788
vn -0.6904 0.2163 0.6904
vn -0.7002 0.1394 0.7002
vn -0.9912 0.1322 0.0000
vn -0.9788 0.2049 0.0000
vn -0.6904 0.2163 -0.6904
vn -0.7002 0.1394 -0.7002
vn 0.0000 0.1322 -0.9912
vn 0.0000 0.2049 -0.9788
vn 0.6904 0.2163 -0.6904
vn 0.7002 0.1394 -0.7002
vn 0.9912 0.1322 0.0000
vn 0.9788 0.2049 0.0000
vn 0.0000 0.3759 0.9266
vn 0.6536 0.3816 0.6536
vn 0.5931 0.5445 0.5931
vn 0.0000 0.5372 0.8434
vn -0.5931 0.5445 0.5931
vn -0.6536 0.3816 0.6536
vn -0.9266 0.3759 0.0000
vn -0.8434 0.5372 0.0000
vn -0.5931 0.5445 -0.5931
vn -0.6536 0.3816 -0.6536
vn 0.0000 0.3759 -0.9266
vn 0.0000 0.5372 -0.8434
vn 0.5931 0.5445 -0.5931
vn 0.6536 0.3816 -0.6536
vn 0.9266 0.3759 0.0000
vn 0.8434 0.5372 0.0000
vn 0.1283 0.9917 0.0000
vn 0.1049 0.8108 0.5757
vn 0.5737 0.6606 0.4842
vn 0.6759 0.7370 0.0000
vn 0.5737 0.6606 -0.4842
vn 0.1049 0.8108 -0.5757
vn -0.3867 0.7848 -0.4842
vn -0.4661 0.8847 0.0000
vn -0.3867 0.7848 0.4842
vn 0.2301 -0.9731 0.0000
vn 0.9438 -0.3303 0.0000
vn 0.6619 -0.2856 0.6930
vn 0.1325 -0.9580 0.2543
vn 0.1325 -0.9580 -0.2543
vn 0.6619 -0.2856 -0.6930
vn -0.1200 -0.9279 -0.3531
vn -0.0265 -0.2048 -0.9784
vn -0.3719 -0.8927 -0.2543
vn -0.7128 -0.1078 -0.6930
vn -0.4702 -0.8826 0.0000
vn -0.9968 -0.0793 0.0000
vn -0.3719 -0.8927 0.2543
vn -0.7128 -0.1078 0.6930
vn -0.1200 -0.9279 0.3531
vn -0.0265 -0.2048 0.9784
vn 0.8878 0.4602 0.0000
vn 0.6442 0.5055 0.5740
vn 0.6442 0.5055 -0.5740
vn 0.0732 0.5656 -0.8214
vn -0.4943 0.6528 -0.5740
vn -0.7414 0.6709 0.0000
vn -0.4943 0.6528 0.5740
vn 0.0732 0.5656 0.8214
usemtl palet
s 1
f 1/1/1 17/2/2 37/3/3 18/4/4
f 1/1/1 18/4/4 38/5/5 19/6/6
f 2/7/7 19/6/6 38/5/5 20/8/8
f 2/9/7 20/10/8 39/11/9 21/12/10
f 3/13/11 21/14/10 39/15/9 22/16/12
f 3/17/11 22/18/12 40/19/13 23/20/14
f 4/21/15 23/22/14 40/23/13 24/24/16
f 4/21/15 24/24/16 37/25/3 17/26/2
f 5/27/17 25/28/18 45/29/19 26/30/20
f 5/31/17 26/32/20 46/33/21 27/34/22
f 5/31/17 27/34/22 38/35/5 18/36/4
f 5/27/17 18/37/4 37/25/3 25/28/18
f 6/38/23 27/39/22 46/40/21 28/41/24
f 6/38/23 28/41/24 47/42/25 29/43/26
f 6/38/23 29/43/26 39/11/9 20/10/8
f 6/38/23 20/10/8 38/44/5 27/39/22
f 7/45/27 29/46/26 47/47/25 30/48/28
f 7/45/27 30/48/28 48/49/29 31/50/30
f 7/45/27 31/50/30 40/19/13 22/18/12
f 7/45/27 22/18/12 39/51/9 29/46/26
f 8/52/31 31/53/30 48/54/29 32/55/32
f 8/52/31 32/55/32 45/29/19 25/28/18
f 8/52/31 25/28/18 37/25/3 24/24/16
f 8/52/31 24/24/16 40/23/13 31/53/30
f 9/56/33 33/57/34 41/58/35 14/59/36
f 9/56/33 14/59/36 42/60/37 34/61/38
f 9/56/33 34/61/38 46/33/21 26/32/20
f 9/62/33 26/30/20 45/29/19 33/63/34
f 10/64/39 34/61/38 42/60/37 15/65/40
f 10/66/39 15/67/40 43/68/41 35/69/42
f 10/66/39 35/69/42 47/42/25 28/41/24
f 10/66/39 28/41/24 46/40/21 34/70/38
f 11/71/43 35/72/42 43/73/41 16/74/44
f 11/71/43 16/74/44 44/75/45 36/76/46
f 11/71/43 36/76/46 48/49/29 30/48/28
f 11/71/43 30/48/28 47/47/25 35/72/42
f 12/77/47 36/78/46 44/79/45 13/80/48
f 12/77/47 13/80/48 41/81/35 33/63/34
f 12/77/47 33/63/34 45/29/19 32/55/32
f 12/77/47 32/55/32 48/54/29 36/78/46
f 3/13/11 23/82/14 4/83/15 17/2/2 1/1/1 19/6/6 2/7/7 21/14/10
f 49/84/49 58/85/50 78/86/51 59/87/52
f 49/88/49 59/89/52 79/90/53 60/91/54
f 49/92/49 60/93/54 80/94/55 61/95/56
f 49/96/49 61/97/56 81/98/57 58/99/50
f 50/100/58 63/101/59 74/102/60 62/103/61
f 50/100/58 64/104/62 75/105/63 63/101/59
f 51/106/64 65/107/65 75/105/63 64/104/62
f 51/106/64 66/108/66 76/109/67 65/107/65
f 52/110/68 67/111/69 76/109/67 66/108/66
f 52/110/68 68/112/70 77/113/71 67/111/69
f 53/114/72 69/115/73 77/113/71 68/112/70
f 53/114/72 62/103/61 74/102/60 69/115/73
f 54/116/74 70/117/75 74/118/60 63/119/59
f 54/116/74 63/119/59 75/120/63 71/121/76
f 54/116/74 71/121/76 79/122/53 59/87/52
f 54/116/74 59/87/52 78/86/51 70/117/75
f 55/123/77 71/124/76 75/125/63 65/126/65
f 55/123/77 65/126/65 76/127/67 72/128/78
f 55/123/77 72/128/78 80/129/55 60/91/54
f 55/123/77 60/91/54 79/90/53 71/124/76
f 56/130/79 72/131/78 76/132/67 67/133/69
f 56/134/79 67/135/69 77/136/71 73/137/80
f 56/134/79 73/137/80 81/98/57 61/97/56
f 56/130/79 61/95/56 80/94/55 72/131/78
f 57/138/81 73/137/80 77/136/71 69/139/73
f 57/140/81 69/141/73 74/118/60 70/117/75
f 57/138/81 70/142/75 78/143/51 58/99/50
f 57/138/81 58/99/50 81/98/57 73/137/80
f 53/144/72 68/145/70 52/146/68 66/147/66 51/148/64 64/149/62 50/150/58 62/151/61
