# Blender v2.79 (sub 0) OBJ File: 'Noin (1).blend'
# www.blender.org
mtllib takka.mtl
o TAKKA.001_Cube.059
v -0.684305 0.591620 -1.455173
v -0.735192 2.215540 -1.266408
v 0.757832 0.111690 -1.746911
v 0.665808 4.371052 -1.415830
v -0.750377 0.591620 1.422229
v -0.792595 2.215540 1.233465
v 0.676850 0.111690 1.779854
v 0.606592 4.445528 1.163020
v -0.676850 0.111690 -1.779854
v -0.600120 4.371052 -1.444899
v -0.659336 4.445528 1.133952
v -0.757832 0.111690 1.746911
v -0.682745 0.360661 -1.523131
v -0.751937 0.360661 1.490188
v 0.682568 0.591620 -1.423786
v 0.678234 2.215540 -1.235022
v 0.620831 2.215540 1.264851
v 0.616496 0.591620 1.453616
v 0.684129 0.360661 -1.491745
v 0.614936 0.360661 1.521574
v -0.799177 3.030335 -1.723659
v 0.806161 3.030335 -1.688435
v 0.727812 3.030335 1.723659
v -0.877527 3.030335 1.688435
v -0.309338 5.498448 -0.647625
v 0.338738 5.498448 -0.632744
v 0.301170 5.423974 1.003305
v -0.346905 5.423974 0.988423
v -0.278437 7.904952 -0.089957
v 0.282272 7.904952 -0.077082
v 0.260475 7.904952 0.872188
v -0.300234 7.904952 0.859313
v -0.328351 7.904952 -0.221214
v 0.338159 7.904952 -0.205910
v 0.310390 7.904952 1.003445
v -0.356121 7.904952 0.988140
vt 0.206103 0.493820
vt 0.205557 0.530935
vt 0.200396 0.530935
vt 0.199849 0.493820
vt 0.206199 0.549429
vt 0.206656 0.511853
vt 0.210933 0.509794
vt 0.211858 0.549429
vt 0.199849 0.493834
vt 0.199303 0.533358
vt 0.194142 0.533358
vt 0.193595 0.493834
vt 0.268153 0.598195
vt 0.263437 0.589588
vt 0.263437 0.475585
vt 0.268153 0.466976
vt 0.268823 0.463876
vt 0.268823 0.601294
vt 0.205699 0.723450
vt 0.199849 0.723450
vt 0.199849 0.628758
vt 0.205699 0.628758
vt 0.204298 0.562137
vt 0.201655 0.562137
vt 0.212379 0.622439
vt 0.217376 0.622439
vt 0.217802 0.629330
vt 0.211953 0.629330
vt 0.296442 0.465055
vt 0.291724 0.465055
vt 0.291724 0.311824
vt 0.296442 0.311824
vt 0.301816 0.311824
vt 0.302482 0.311824
vt 0.302482 0.465055
vt 0.301816 0.465055
vt 0.263437 0.310645
vt 0.271926 0.310645
vt 0.271926 0.463876
vt 0.263437 0.463876
vt 0.297113 0.465055
vt 0.297113 0.311824
vt 0.297113 0.311824
vt 0.297113 0.465055
vt 0.209962 0.536801
vt 0.205901 0.413016
vt 0.212732 0.536801
vt 0.217250 0.511306
vt 0.217707 0.548629
vt 0.212048 0.548629
vt 0.212973 0.509245
vt 0.199647 0.413016
vt 0.193798 0.413016
vt 0.206103 0.629899
vt 0.211953 0.629899
vt 0.200052 0.413016
vt 0.195401 0.560536
vt 0.198043 0.560536
vt 0.198081 0.629205
vt 0.195363 0.629205
vt 0.213227 0.481668
vt 0.215940 0.479607
vt 0.207965 0.479489
vt 0.210679 0.481547
vt 0.204335 0.628758
vt 0.201618 0.628758
vt 0.213227 0.413016
vt 0.215232 0.413016
vt 0.208673 0.413016
vt 0.210679 0.413016
vt 0.196982 0.722914
vt 0.196982 0.759922
vt 0.196766 0.763413
vt 0.196766 0.719422
vt 0.198556 0.759922
vt 0.198772 0.763413
vt 0.198556 0.722914
vt 0.198772 0.719422
vt 0.206790 0.627018
vt 0.209567 0.627018
vn 0.0219 0.2009 -0.9794
vn 0.9951 0.0967 0.0216
vn -0.0208 0.3671 0.9299
vn -0.9997 -0.0000 -0.0230
vn 0.0000 -1.0000 -0.0000
vn 0.0188 0.5741 -0.8186
vn 0.0224 -0.1152 -0.9931
vn -0.0220 -0.2823 0.9591
vn 0.0000 1.0000 0.0000
vn 0.0220 -0.2823 -0.9591
vn -0.0224 -0.1158 0.9930
vn -0.9978 -0.0401 0.0528
vn -0.9888 0.1473 -0.0245
vn -0.0224 0.0194 0.9996
vn 0.9996 -0.0170 0.0230
vn 0.0224 0.0199 -0.9996
vn -0.0230 0.0000 0.9997
vn -0.9593 0.2816 -0.0220
vn 0.9593 0.2816 0.0220
vn -0.0227 0.1542 0.9878
vn 0.0226 0.1746 -0.9844
vn -0.9997 -0.0038 -0.0231
vn 0.9997 -0.0038 0.0229
vn -0.9943 -0.0400 -0.0985
vn -0.9956 -0.0910 -0.0229
usemtl palet
s off
f 21/1/1 10/2/1 4/3/1 22/4/1
f 22/5/2 4/6/2 8/7/2 23/8/2
f 23/9/3 8/10/3 11/11/3 24/12/3
f 18/13/4 17/14/4 16/15/4 15/16/4 19/17/4 20/18/4
f 3/19/5 7/20/5 12/21/5 9/22/5
f 4/3/6 10/2/6 25/23/6 26/24/6
f 14/25/4 13/26/4 9/27/4 12/28/4
f 5/29/7 6/30/7 17/31/7 18/32/7
f 1/33/8 13/34/8 19/35/8 15/36/8
f 13/37/9 14/38/9 20/39/9 19/40/9
f 14/41/10 5/29/10 18/32/10 20/42/10
f 2/43/11 1/33/11 15/36/11 16/44/11
f 2/45/12 21/1/12 9/46/12 13/26/12 1/47/12
f 10/48/13 21/49/13 24/50/13 11/51/13
f 7/52/14 23/9/14 24/12/14 12/53/14
f 3/54/15 22/5/15 23/8/15 7/55/15
f 9/46/16 21/1/16 22/4/16 3/56/16
f 28/57/17 27/58/17 35/59/17 36/60/17
f 10/48/18 11/51/18 28/61/18 25/62/18
f 8/7/19 4/6/19 26/63/19 27/64/19
f 11/11/20 8/10/20 27/58/20 28/57/20
f 26/24/21 25/23/21 33/65/21 34/66/21
f 25/62/22 28/61/22 36/67/22 33/68/22
f 27/64/23 26/63/23 34/69/23 35/70/23
f 29/71/9 30/72/9 34/73/9 33/74/9
f 30/72/9 31/75/9 35/76/9 34/73/9
f 31/75/9 32/77/9 36/78/9 35/76/9
f 32/77/9 29/71/9 33/74/9 36/78/9
f 12/28/24 24/12/24 6/79/24 5/80/24 14/25/24
f 2/45/25 6/79/25 24/12/25 21/49/25
