# Blender v2.79 (sub 0) OBJ File: 'Noin.blend'
# www.blender.org
mtllib tarjotin.mtl
o Cylinder.028_Cylinder.038
v 0.000000 0.000033 -0.608415
v -0.000000 0.015937 -0.467772
v 0.430214 0.000033 -0.430214
v 0.330765 0.015937 -0.330765
v 0.608415 0.000033 0.000000
v 0.467772 0.015937 0.000000
v 0.430214 0.000033 0.430214
v 0.330765 0.015937 0.330765
v -0.000000 0.000033 0.608415
v -0.000000 0.015937 0.467772
v -0.430214 0.000033 0.430214
v -0.330765 0.015937 0.330765
v -0.608415 0.000033 -0.000000
v -0.467772 0.015937 -0.000000
v -0.430214 0.000033 -0.430214
v -0.330765 0.015937 -0.330765
v 0.430214 0.073728 -0.430214
v 0.000000 0.073728 -0.608415
v 0.608415 0.073728 0.000000
v 0.430214 0.073728 0.430214
v -0.000000 0.073728 0.608415
v -0.430214 0.073728 0.430214
v -0.608415 0.073728 -0.000000
v -0.430214 0.073728 -0.430214
vt 0.208219 0.415081
vt 0.208219 0.645605
vt 0.203143 0.652184
vt 0.203143 0.421660
vt 0.236349 0.436510
vt 0.236349 0.671502
vt 0.231019 0.671167
vt 0.231019 0.436175
vt 0.226356 0.671928
vt 0.226356 0.436937
vt 0.226356 0.437812
vt 0.226356 0.672086
vt 0.221023 0.670449
vt 0.221023 0.436175
vt 0.216367 0.674227
vt 0.216367 0.439953
vt 0.226464 0.201578
vt 0.226464 0.434685
vt 0.221268 0.431056
vt 0.221268 0.197949
vt 0.236346 0.789972
vt 0.236346 0.720824
vt 0.239324 0.671928
vt 0.243536 0.671928
vt 0.246514 0.720824
vt 0.246514 0.789972
vt 0.243536 0.838868
vt 0.239324 0.838868
vt 0.216367 0.436175
vt 0.216367 0.203068
vt 0.213264 0.421905
vt 0.213264 0.652429
vt 0.203143 0.351485
vt 0.203143 0.261546
vt 0.207016 0.197949
vt 0.212494 0.197949
vt 0.216367 0.261545
vt 0.216367 0.351485
vt 0.212494 0.415081
vt 0.207016 0.415081
vt 0.231117 0.879044
vt 0.227536 0.881181
vt 0.226356 0.674708
vt 0.231014 0.671928
vt 0.212042 0.863187
vt 0.208049 0.859807
vt 0.208046 0.652429
vt 0.213240 0.656824
vt 0.006324 0.853153
vt 0.001465 0.857510
vt 0.000000 0.591503
vt 0.006321 0.585837
vt 0.235425 0.410049
vt 0.231546 0.404896
vt 0.231540 0.197949
vt 0.236586 0.204651
vt 0.227644 0.410049
vt 0.226464 0.204651
vt 0.225355 0.880669
vt 0.221257 0.880237
vt 0.221026 0.674227
vt 0.226356 0.674790
vt 0.217672 0.880669
vt 0.216363 0.674790
vt 0.235216 0.881181
vt 0.236346 0.674708
vn 0.0000 -0.6302 -0.7764
vn 0.0000 0.7422 -0.6701
vn 0.4738 0.7422 -0.4738
vn 0.5490 -0.6302 -0.5490
vn 0.6701 0.7422 0.0000
vn 0.7764 -0.6302 0.0000
vn 0.4738 0.7422 0.4738
vn 0.5490 -0.6302 0.5490
vn 0.0000 0.7422 0.6701
vn 0.0000 -0.6302 0.7764
vn -0.4738 0.7422 0.4738
vn -0.5490 -0.6302 0.5490
vn -0.6701 0.7422 0.0000
vn -0.7764 -0.6302 0.0000
vn -0.1692 0.9709 0.1692
vn 0.0000 0.9709 0.2393
vn 0.1692 0.9709 0.1692
vn 0.2393 0.9709 0.0000
vn 0.1692 0.9709 -0.1692
vn 0.0000 0.9709 -0.2393
vn -0.1692 0.9709 -0.1692
vn -0.2393 0.9709 0.0000
vn -0.4738 0.7422 -0.4738
vn -0.5490 -0.6302 -0.5490
usemtl Material.010
s 1
f 1/1/1 18/2/2 17/3/3 3/4/4
f 3/5/4 17/6/3 19/7/5 5/8/6
f 5/8/6 19/7/5 20/9/7 7/10/8
f 7/11/8 20/12/7 21/13/9 9/14/10
f 9/14/10 21/13/9 22/15/11 11/16/12
f 11/17/12 22/18/11 23/19/13 13/20/14
f 4/21/15 2/22/16 16/23/17 14/24/18 12/25/19 10/26/20 8/27/21 6/28/22
f 13/20/14 23/19/13 24/29/23 15/30/24
f 15/31/24 24/32/23 18/2/2 1/1/1
f 1/33/1 3/34/4 5/35/6 7/36/8 9/37/10 11/38/12 13/39/14 15/40/24
f 2/41/16 4/42/15 17/43/3 18/44/2
f 4/45/15 6/46/22 19/47/5 17/48/3
f 6/49/22 8/50/21 20/51/7 19/52/5
f 8/53/21 10/54/20 21/55/9 20/56/7
f 10/54/20 12/57/19 22/58/11 21/55/9
f 12/59/19 14/60/18 23/61/13 22/62/11
f 14/60/18 16/63/17 24/64/23 23/61/13
f 16/65/17 2/41/16 18/44/2 24/66/23
