# Blender v2.79 (sub 0) OBJ File: 'INNI.blend'
# www.blender.org
o Cylinder.006_Cylinder.016
v 0.000000 -0.225953 -0.225953
v 0.000000 0.225953 -0.197685
v 0.122159 -0.225953 -0.190084
v 0.106877 0.225953 -0.166303
v 0.205534 -0.225953 -0.093864
v 0.179821 0.225953 -0.082121
v 0.223653 -0.225953 0.032157
v 0.195673 0.225953 0.028134
v 0.170764 -0.225953 0.147968
v 0.149400 0.225953 0.129456
v 0.063658 -0.225953 0.216800
v 0.055694 0.225953 0.189677
v -0.063658 -0.225953 0.216800
v -0.055694 0.225953 0.189677
v -0.170764 -0.225953 0.147968
v -0.149400 0.225953 0.129456
v -0.223653 -0.225953 0.032156
v -0.195673 0.225953 0.028133
v -0.205534 -0.225953 -0.093864
v -0.179821 0.225953 -0.082121
v -0.122159 -0.225953 -0.190084
v -0.106877 0.225953 -0.166303
v 0.000000 -0.147346 -0.250985
v 0.000000 -0.057097 -0.225953
v 0.000000 0.074350 -0.250985
v 0.000000 0.147346 -0.250985
v 0.135808 0.147346 -0.211108
v 0.122159 0.057097 -0.190084
v 0.135808 -0.074350 -0.211108
v 0.135808 -0.147346 -0.211108
v 0.228499 0.147346 -0.104138
v 0.205534 0.057097 -0.093864
v 0.228499 -0.074350 -0.104138
v 0.228499 -0.147346 -0.104138
v 0.248642 0.147346 0.035963
v 0.223653 0.057097 0.032157
v 0.248642 -0.074350 0.035963
v 0.248642 -0.147346 0.035963
v 0.189843 0.147346 0.164714
v 0.170764 0.057097 0.147968
v 0.189843 -0.074350 0.164714
v 0.189843 -0.147346 0.164714
v 0.023702 0.120100 0.256718
v 0.023702 0.084449 0.256718
v 0.023702 -0.084449 0.256718
v 0.023702 -0.120100 0.256718
v -0.023702 0.120100 0.256718
v -0.023702 0.084449 0.256718
v -0.023702 -0.084449 0.256718
v -0.023702 -0.120100 0.256718
v -0.189843 0.147346 0.164714
v -0.170764 0.057097 0.147968
v -0.189843 -0.074350 0.164714
v -0.189843 -0.147346 0.164714
v -0.248642 0.147346 0.035963
v -0.223653 0.057097 0.032156
v -0.248642 -0.074350 0.035963
v -0.248642 -0.147346 0.035963
v -0.228498 0.147346 -0.104138
v -0.205534 0.057097 -0.093864
v -0.228498 -0.074350 -0.104138
v -0.228498 -0.147346 -0.104138
v -0.135808 0.147346 -0.211108
v -0.122159 0.057097 -0.190084
v -0.135808 -0.074350 -0.211108
v -0.135808 -0.147346 -0.211108
v 0.089006 0.147346 0.229519
v 0.089006 0.074350 0.229519
v 0.089006 -0.074350 0.229519
v 0.089006 -0.147346 0.229519
v -0.089006 0.147346 0.229519
v -0.089006 0.074350 0.229519
v -0.089006 -0.074350 0.229519
v -0.089006 -0.147346 0.229519
v 0.026464 0.134096 0.390646
v 0.026464 0.094291 0.390646
v 0.026464 -0.094291 0.390646
v 0.026464 -0.134096 0.390646
v -0.026464 0.134096 0.390646
v -0.026464 0.094291 0.390646
v -0.026464 -0.094291 0.390646
v -0.026464 -0.134096 0.390646
v 0.026464 0.134096 0.415802
v 0.026464 0.094291 0.442218
v 0.026464 -0.094291 0.442218
v 0.026464 -0.134096 0.415802
v -0.026464 0.134096 0.415802
v -0.026464 0.094291 0.442218
v -0.026464 -0.094291 0.442218
v -0.026464 -0.134096 0.415802
v 0.026464 0.000000 0.421804
v 0.026464 0.000000 0.473376
v -0.026464 0.000000 0.473376
v -0.026464 0.000000 0.421804
v 0.122159 0.225953 -0.190084
v 0.000000 0.225953 -0.225953
v 0.205534 0.225953 -0.093864
v 0.223653 0.225953 0.032157
v 0.170764 0.225953 0.147968
v 0.063658 0.225953 0.216800
v -0.063658 0.225953 0.216800
v -0.170764 0.225953 0.147968
v -0.223653 0.225953 0.032156
v -0.205534 0.225953 -0.093864
v -0.122159 0.225953 -0.190084
v 0.106877 0.191605 -0.166303
v 0.000000 0.191605 -0.197685
v 0.179821 0.191605 -0.082121
v 0.195673 0.191605 0.028134
v 0.149400 0.191605 0.129456
v 0.055694 0.191605 0.189677
v -0.055694 0.191605 0.189677
v -0.149400 0.191605 0.129456
v -0.195673 0.191605 0.028133
v -0.179821 0.191605 -0.082121
v -0.106877 0.191605 -0.166303
v -0.205534 0.241926 -0.093864
v -0.223653 0.241926 0.032156
v -0.179821 0.241926 -0.082121
v -0.195673 0.241926 0.028133
v -0.230193 0.207217 -0.097410
v -0.248312 0.207217 0.028611
v -0.230193 0.223190 -0.097410
v -0.248312 0.223190 0.028611
v 0.063658 0.171291 0.256718
v 0.063658 0.057097 0.256718
v 0.063658 -0.057097 0.256718
v 0.063658 -0.171291 0.256718
v -0.063658 0.171291 0.256718
v -0.063658 0.057097 0.256718
v -0.063658 -0.057097 0.256718
v -0.063658 -0.171291 0.256718
v -0.122159 -0.171291 -0.190084
v 0.000000 -0.171291 -0.225953
v -0.122159 -0.057097 -0.190084
v 0.000000 -0.074350 -0.250985
v -0.135808 0.074350 -0.211108
v 0.000000 0.057097 -0.225953
v -0.122159 0.171291 -0.190084
v 0.000000 0.171291 -0.225953
v -0.205534 -0.171291 -0.093864
v -0.205534 -0.057097 -0.093864
v -0.228498 0.074350 -0.104138
v -0.205534 0.171291 -0.093864
v -0.223653 -0.171291 0.032156
v -0.223653 -0.057097 0.032156
v -0.248642 0.074350 0.035963
v -0.223653 0.171291 0.032156
v -0.170764 -0.171291 0.147968
v -0.170764 -0.057097 0.147968
v -0.189843 0.074350 0.164714
v -0.170764 0.171291 0.147968
v 0.170764 -0.171291 0.147968
v 0.170764 -0.057097 0.147968
v 0.189843 0.074350 0.164714
v 0.170764 0.171291 0.147968
v 0.223653 -0.171291 0.032157
v 0.223653 -0.057097 0.032157
v 0.248642 0.074350 0.035963
v 0.223653 0.171291 0.032157
v 0.205534 -0.171291 -0.093864
v 0.205534 -0.057097 -0.093864
v 0.228499 0.074350 -0.104138
v 0.205534 0.171291 -0.093864
v 0.122159 -0.171291 -0.190084
v 0.122159 -0.057097 -0.190084
v 0.135808 0.074350 -0.211108
v 0.122159 0.171291 -0.190084
vt 0.398154 0.741283
vt 0.396504 0.741283
vt 0.396504 0.681877
vt 0.398154 0.681877
vt 0.427341 0.073634
vt 0.428992 0.073634
vt 0.428992 0.117282
vt 0.427341 0.117282
vt 0.428992 0.177291
vt 0.427341 0.177291
vt 0.428992 0.234607
vt 0.427341 0.234607
vt 0.407240 0.554952
vt 0.407240 0.528622
vt 0.410475 0.528622
vt 0.410475 0.554952
vt 0.414320 0.528622
vt 0.414320 0.554952
vt 0.417555 0.528622
vt 0.417555 0.554952
vt 0.419782 0.690099
vt 0.418131 0.690099
vt 0.418131 0.633126
vt 0.419782 0.633126
vt 0.418131 0.572929
vt 0.419782 0.572929
vt 0.402982 0.733357
vt 0.402982 0.681877
vt 0.404019 0.681877
vt 0.404019 0.733357
vt 0.418131 0.528622
vt 0.419782 0.528622
vt 0.398154 0.799490
vt 0.396504 0.799490
vt 0.407748 0.240200
vt 0.406665 0.181358
vt 0.407748 0.122518
vt 0.410654 0.082360
vt 0.414460 0.073634
vt 0.417958 0.099111
vt 0.420036 0.150702
vt 0.420036 0.212027
vt 0.417958 0.263616
vt 0.414460 0.289090
vt 0.410654 0.280360
vt 0.396504 0.799490
vt 0.394853 0.799490
vt 0.394853 0.741283
vt 0.396504 0.741283
vt 0.238422 0.852527
vt 0.236217 0.852527
vt 0.236217 0.787816
vt 0.238422 0.787816
vt 0.423485 0.647364
vt 0.420036 0.647364
vt 0.420036 0.589157
vt 0.423485 0.589157
vt 0.236217 0.852527
vt 0.234012 0.852527
vt 0.234012 0.787816
vt 0.236217 0.787816
vt 0.427341 0.117941
vt 0.425690 0.117941
vt 0.425690 0.073634
vt 0.427341 0.073634
vt 0.239666 0.436832
vt 0.237461 0.436832
vt 0.237461 0.387574
vt 0.239666 0.387574
vt 0.423485 0.117941
vt 0.420036 0.117941
vt 0.420036 0.073634
vt 0.423485 0.073634
vt 0.239666 0.197301
vt 0.237462 0.197301
vt 0.237462 0.148043
vt 0.239666 0.148043
vt 0.427341 0.178138
vt 0.425690 0.178138
vt 0.239666 0.503754
vt 0.237461 0.503754
vt 0.423485 0.178138
vt 0.420036 0.178138
vt 0.239666 0.264224
vt 0.237462 0.264224
vt 0.427341 0.235111
vt 0.425690 0.235111
vt 0.239666 0.567093
vt 0.237461 0.567093
vt 0.423485 0.235111
vt 0.420036 0.235111
vt 0.239666 0.327563
vt 0.237462 0.327563
vt 0.414320 0.746295
vt 0.414320 0.719965
vt 0.417555 0.719965
vt 0.417555 0.746295
vt 0.229062 0.782841
vt 0.229062 0.747681
vt 0.232108 0.747681
vt 0.232108 0.782841
vt 0.423485 0.289977
vt 0.420036 0.289977
vt 0.229062 0.676055
vt 0.229062 0.640895
vt 0.232108 0.640895
vt 0.232108 0.676055
vt 0.410475 0.746295
vt 0.410475 0.719965
vt 0.238889 0.311405
vt 0.238889 0.328578
vt 0.234858 0.323837
vt 0.234858 0.304664
vt 0.224452 0.516142
vt 0.224452 0.461137
vt 0.228297 0.461137
vt 0.228297 0.516142
vt 0.232364 0.409932
vt 0.232364 0.427104
vt 0.228329 0.433846
vt 0.228329 0.414673
vt 0.407240 0.746295
vt 0.407240 0.719965
vt 0.220641 0.782841
vt 0.220641 0.747681
vt 0.223686 0.747681
vt 0.223686 0.782841
vt 0.420036 0.474138
vt 0.423485 0.474138
vt 0.423485 0.529752
vt 0.420036 0.529752
vt 0.220641 0.676055
vt 0.220641 0.640895
vt 0.223686 0.640895
vt 0.223686 0.676055
vt 0.425689 0.775299
vt 0.427340 0.775299
vt 0.427340 0.832616
vt 0.425689 0.832616
vt 0.241870 0.451295
vt 0.239666 0.451295
vt 0.239666 0.387574
vt 0.241870 0.387574
vt 0.420036 0.416821
vt 0.423485 0.416821
vt 0.239666 0.682331
vt 0.241870 0.682331
vt 0.241870 0.746052
vt 0.239666 0.746052
vt 0.425689 0.715291
vt 0.427340 0.715291
vt 0.241870 0.518008
vt 0.239666 0.518008
vt 0.420036 0.356813
vt 0.423485 0.356813
vt 0.239666 0.615618
vt 0.241870 0.615618
vt 0.425689 0.671643
vt 0.427340 0.671643
vt 0.241870 0.566533
vt 0.239666 0.566533
vt 0.420036 0.313164
vt 0.423485 0.313164
vt 0.239666 0.567093
vt 0.241870 0.567093
vt 0.394853 0.681877
vt 0.396504 0.681877
vt 0.236217 0.721774
vt 0.238422 0.721774
vt 0.420036 0.529752
vt 0.423485 0.529752
vt 0.234012 0.721774
vt 0.236217 0.721774
vt 0.225658 0.430790
vt 0.225658 0.447962
vt 0.224452 0.406133
vt 0.225658 0.529317
vt 0.225658 0.546489
vt 0.224452 0.571146
vt 0.227090 0.447962
vt 0.227090 0.430790
vt 0.228297 0.406133
vt 0.227090 0.546489
vt 0.227090 0.529317
vt 0.228297 0.571146
vt 0.225833 0.498437
vt 0.225833 0.453019
vt 0.227432 0.453019
vt 0.227432 0.498437
vt 0.233962 0.498370
vt 0.235561 0.498370
vt 0.235561 0.510486
vt 0.233962 0.510486
vt 0.233741 0.466871
vt 0.235173 0.466871
vt 0.235256 0.531343
vt 0.233658 0.531343
vt 0.232447 0.433846
vt 0.233879 0.433846
vt 0.233962 0.498406
vt 0.232364 0.498406
vt 0.232364 0.311405
vt 0.232364 0.328578
vt 0.228329 0.323837
vt 0.228329 0.304664
vt 0.238889 0.409932
vt 0.238889 0.427104
vt 0.234858 0.433846
vt 0.234858 0.414673
vt 0.234045 0.433846
vt 0.235477 0.433846
vt 0.238113 0.498346
vt 0.236681 0.498346
vt 0.236598 0.433846
vt 0.238196 0.433846
vt 0.225833 0.563028
vt 0.225833 0.543855
vt 0.227432 0.543855
vt 0.227432 0.563028
vt 0.225833 0.433846
vt 0.227432 0.433846
vt 0.227570 0.433846
vt 0.226773 0.414673
vt 0.233303 0.323837
vt 0.234100 0.304664
vt 0.233919 0.369255
vt 0.233303 0.414673
vt 0.232364 0.369255
vt 0.233962 0.510522
vt 0.232364 0.510522
vt 0.226773 0.323837
vt 0.227570 0.304664
vt 0.234100 0.433846
vt 0.225833 0.369255
vt 0.227389 0.369255
vt 0.215279 0.504067
vt 0.215311 0.549485
vt 0.213714 0.549485
vt 0.213681 0.504067
vt 0.215311 0.458649
vt 0.213714 0.458649
vt 0.419217 0.394067
vt 0.417398 0.348930
vt 0.417957 0.338640
vt 0.420036 0.390231
vt 0.414338 0.326642
vt 0.414459 0.313164
vt 0.411008 0.334278
vt 0.410653 0.321892
vt 0.408466 0.369413
vt 0.407747 0.362052
vt 0.407518 0.420893
vt 0.406664 0.420893
vt 0.408466 0.472373
vt 0.407747 0.479734
vt 0.411008 0.507509
vt 0.410653 0.519894
vt 0.414338 0.515144
vt 0.414459 0.528622
vt 0.700510 0.643621
vt 0.700962 0.646281
vt 0.701235 0.660594
vt 0.700782 0.657935
vt 0.417398 0.492856
vt 0.419217 0.447720
vt 0.420036 0.451556
vt 0.417957 0.503146
vt 0.699886 0.486091
vt 0.702428 0.450956
vt 0.705758 0.443320
vt 0.708818 0.465608
vt 0.710637 0.510744
vt 0.710637 0.564397
vt 0.708818 0.609533
vt 0.705758 0.631822
vt 0.702428 0.624186
vt 0.699886 0.589051
vt 0.698938 0.537571
vt 0.402982 0.784837
vt 0.404019 0.784837
vt 0.423967 0.551135
vt 0.423967 0.503876
vt 0.425005 0.503876
vt 0.425005 0.551135
vt 0.425482 0.747100
vt 0.425482 0.791203
vt 0.424445 0.791203
vt 0.424445 0.747100
vt 0.427340 0.713876
vt 0.427340 0.671643
vt 0.428378 0.671643
vt 0.428378 0.713876
vt 0.741350 0.495250
vt 0.741350 0.441760
vt 0.742387 0.441760
vt 0.742387 0.495250
vt 0.425482 0.693479
vt 0.424445 0.693479
vt 0.427340 0.767296
vt 0.428378 0.767296
vt 0.423967 0.647364
vt 0.423967 0.604625
vt 0.425005 0.604625
vt 0.425005 0.647364
vt 0.425482 0.647364
vt 0.424445 0.647364
vt 0.427340 0.814941
vt 0.428378 0.814941
vt 0.847971 0.526283
vt 0.847971 0.579936
vt 0.847152 0.583772
vt 0.847152 0.522447
vt 0.740868 0.495250
vt 0.740868 0.441760
vt 0.723455 0.641723
vt 0.723738 0.654420
vt 0.723284 0.657000
vt 0.723000 0.644303
vt 0.701235 0.634481
vt 0.700782 0.631822
vt 0.742870 0.394501
vt 0.742870 0.454698
vt 0.742387 0.454698
vt 0.742387 0.394502
vt 0.711002 0.246765
vt 0.711002 0.308089
vt 0.710251 0.308158
vt 0.710251 0.246834
vt 0.723284 0.630087
vt 0.723738 0.627507
vt 0.711317 0.532609
vt 0.711317 0.593935
vt 0.710564 0.593953
vt 0.710564 0.532628
vt 0.220463 0.764597
vt 0.220463 0.799758
vt 0.219594 0.811291
vt 0.219594 0.756287
vt 0.238331 0.339096
vt 0.238331 0.374257
vt 0.237462 0.382567
vt 0.237462 0.327563
vt 0.239189 0.371034
vt 0.239189 0.335873
vt 0.240048 0.327563
vt 0.240048 0.382567
vt 0.238331 0.374257
vt 0.238331 0.339096
vt 0.239189 0.327563
vt 0.239189 0.382567
vt 0.196736 0.572755
vt 0.195532 0.507339
vt 0.196293 0.507339
vt 0.197376 0.566181
vt 0.195532 0.267809
vt 0.196736 0.202393
vt 0.197372 0.208967
vt 0.196289 0.267809
vt 0.209290 0.572755
vt 0.208086 0.507339
vt 0.208846 0.507339
vt 0.209929 0.566181
vt 0.208086 0.267809
vt 0.209291 0.202393
vt 0.209927 0.208967
vt 0.208844 0.267809
vt 0.199967 0.617402
vt 0.200282 0.606340
vt 0.199967 0.157746
vt 0.200278 0.168807
vt 0.212521 0.617402
vt 0.212835 0.606340
vt 0.212521 0.157746
vt 0.212833 0.168807
vt 0.204198 0.627104
vt 0.204088 0.615068
vt 0.204198 0.148043
vt 0.204084 0.160080
vt 0.216752 0.627104
vt 0.216641 0.615068
vt 0.216753 0.148043
vt 0.216639 0.160080
vt 0.208086 0.598782
vt 0.207586 0.589592
vt 0.208086 0.176365
vt 0.207582 0.185555
vt 0.220641 0.598782
vt 0.220139 0.589592
vt 0.220641 0.176365
vt 0.220137 0.185555
vt 0.231531 0.794375
vt 0.228297 0.794375
vt 0.228297 0.739370
vt 0.231531 0.739370
vt 0.231531 0.684366
vt 0.228297 0.684366
vt 0.228297 0.629361
vt 0.231531 0.629361
vt 0.224452 0.794375
vt 0.221217 0.794375
vt 0.221217 0.739370
vt 0.224452 0.739370
vt 0.224452 0.684366
vt 0.221217 0.684366
vt 0.221217 0.629361
vt 0.224452 0.629361
vt 0.204198 0.387574
vt 0.208086 0.415896
vt 0.207586 0.425086
vt 0.204088 0.399610
vt 0.208086 0.359252
vt 0.204198 0.387574
vt 0.204084 0.375537
vt 0.207582 0.350062
vt 0.216752 0.387574
vt 0.220641 0.415896
vt 0.220139 0.425086
vt 0.216641 0.399610
vt 0.220641 0.359252
vt 0.216753 0.387574
vt 0.216639 0.375537
vt 0.220137 0.350062
vt 0.199967 0.397277
vt 0.200282 0.408338
vt 0.199967 0.377871
vt 0.200278 0.366810
vt 0.212521 0.397277
vt 0.212835 0.408338
vt 0.212521 0.377871
vt 0.212833 0.366810
vt 0.196736 0.441923
vt 0.197376 0.448498
vt 0.196736 0.333224
vt 0.197372 0.326650
vt 0.209290 0.441923
vt 0.209929 0.448498
vt 0.209291 0.333224
vt 0.209927 0.326650
vn 0.2817 0.0000 -0.9595
vn 0.7557 0.0000 -0.6549
vn 0.9898 0.0000 -0.1423
vn 0.9096 0.0000 0.4154
vn 0.6144 0.2706 0.7411
vn 0.0000 0.5897 0.8076
vn -0.6144 0.2706 0.7411
vn -0.9096 0.0000 0.4154
vn -0.9898 0.0000 -0.1423
vn 0.2817 0.0000 0.9595
vn -0.7557 0.0000 -0.6549
vn -0.2817 0.0000 -0.9595
vn 0.0000 -1.0000 -0.0000
vn -0.6144 -0.2706 0.7411
vn -0.5406 0.0000 0.8413
vn -0.7125 0.0000 0.7017
vn 0.0000 -0.5897 0.8076
vn 0.9998 0.0000 -0.0206
vn 0.0000 0.0000 1.0000
vn -0.9998 0.0000 -0.0206
vn 0.6144 -0.2706 0.7411
vn 0.5406 0.0000 0.8413
vn 0.7125 0.0000 0.7017
vn 0.0000 0.3138 0.9495
vn 0.0000 1.0000 0.0000
vn 0.0000 -0.9973 0.0733
vn 0.0000 -0.9946 -0.1039
vn 0.0000 0.9946 -0.1039
vn 0.0000 0.9973 0.0733
vn 0.0000 -0.5530 0.8332
vn 0.0000 0.5530 0.8332
vn -1.0000 0.0000 0.0000
vn 1.0000 0.0000 0.0000
vn 0.0000 -0.3138 -0.9495
vn 0.0000 0.3138 -0.9495
vn 0.0000 -0.3138 0.9495
vn 0.1423 0.0000 -0.9898
vn -0.2817 0.0000 0.9595
vn 0.9096 0.0000 -0.4154
vn -0.5406 0.0000 -0.8413
vn -0.7557 0.0000 0.6549
vn 0.9898 0.0000 0.1423
vn 0.0000 0.0000 -1.0000
vn -0.9898 0.0000 0.1423
vn 0.7557 0.0000 0.6549
vn 0.5406 0.0000 -0.8413
vn -0.9096 0.0000 -0.4154
vn 0.1423 0.0000 0.9898
vn 0.4154 0.0000 -0.9096
vn 0.5950 -0.7992 0.0855
vn -0.1423 0.0000 0.9898
vn -0.5950 0.7992 -0.0855
vn 0.7316 0.0000 0.6818
vn -0.7316 0.0000 0.6818
vn -0.1989 -0.7082 -0.6774
vn -0.1644 0.8122 -0.5598
vn -0.1644 -0.8122 -0.5598
vn -0.1989 0.7082 -0.6774
vn -0.5329 -0.7091 -0.4617
vn -0.4401 0.8129 -0.3814
vn -0.4401 -0.8129 -0.3814
vn -0.5329 0.7091 -0.4617
vn -0.6963 -0.7107 -0.1001
vn -0.5747 0.8142 -0.0826
vn -0.5747 -0.8142 -0.0826
vn -0.6963 0.7107 -0.1001
vn -0.6383 -0.7125 0.2915
vn -0.5264 0.8155 0.2404
vn -0.5264 -0.8155 0.2404
vn -0.6383 0.7125 0.2915
vn -0.5893 -0.3926 0.7061
vn -0.5513 0.5097 0.6605
vn -0.5513 -0.5097 0.6605
vn -0.5893 0.3926 0.7061
vn 0.5893 -0.3926 0.7061
vn 0.5513 0.5097 0.6605
vn 0.5513 -0.5097 0.6605
vn 0.5893 0.3926 0.7061
vn 0.6383 -0.7125 0.2915
vn 0.5264 0.8155 0.2404
vn 0.5264 -0.8155 0.2404
vn 0.6383 0.7125 0.2915
vn 0.6963 -0.7107 -0.1001
vn 0.5747 0.8142 -0.0826
vn 0.5747 -0.8142 -0.0826
vn 0.6963 0.7107 -0.1001
vn 0.5329 -0.7091 -0.4617
vn 0.4401 0.8129 -0.3814
vn 0.4401 -0.8129 -0.3814
vn 0.5329 0.7091 -0.4617
vn 0.1989 -0.7082 -0.6774
vn 0.1644 0.8122 -0.5598
vn 0.1644 -0.8122 -0.5598
vn 0.1989 0.7082 -0.6774
s off
f 140/1/1 96/2/1 95/3/1 168/4/1
f 168/5/2 95/6/2 97/7/2 164/8/2
f 164/8/3 97/7/3 98/9/3 160/10/3
f 160/10/4 98/9/4 99/11/4 156/12/4
f 156/13/5 99/14/5 100/15/5 125/16/5
f 125/16/6 100/15/6 101/17/6 129/18/6
f 129/18/7 101/17/7 102/19/7 152/20/7
f 152/21/8 102/22/8 103/23/8 148/24/8
f 148/24/9 103/23/9 104/25/9 144/26/9
f 2/27/10 22/28/10 116/29/10 107/30/10
f 144/26/11 104/25/11 105/31/11 139/32/11
f 139/33/12 105/34/12 96/2/12 140/1/12
f 1/35/13 3/36/13 5/37/13 7/38/13 9/39/13 11/40/13 13/41/13 15/42/13 17/43/13 19/44/13 21/45/13
f 21/46/12 133/47/12 134/48/12 1/49/12
f 66/50/12 65/51/12 136/52/12 23/53/12
f 135/54/12 64/55/12 138/56/12 24/57/12
f 137/58/12 63/59/12 26/60/12 25/61/12
f 19/62/11 141/63/11 133/64/11 21/65/11
f 62/66/11 61/67/11 65/68/11 66/69/11
f 142/70/11 60/71/11 64/72/11 135/73/11
f 143/74/11 59/75/11 63/76/11 137/77/11
f 17/78/9 145/79/9 141/63/9 19/62/9
f 58/80/9 57/81/9 61/67/9 62/66/9
f 146/82/9 56/83/9 60/71/9 142/70/9
f 147/84/9 55/85/9 59/75/9 143/74/9
f 15/86/8 149/87/8 145/79/8 17/78/8
f 54/88/8 53/89/8 57/81/8 58/80/8
f 150/90/8 52/91/8 56/83/8 146/82/8
f 151/92/8 51/93/8 55/85/8 147/84/8
f 13/94/14 132/95/14 149/96/14 15/97/14
f 74/98/15 73/99/15 53/100/15 54/101/15
f 131/102/16 130/103/16 52/91/16 150/90/16
f 72/104/15 71/105/15 51/106/15 151/107/15
f 11/108/17 128/109/17 132/95/17 13/94/17
f 46/110/18 45/111/18 77/112/18 78/113/18
f 127/114/19 126/115/19 130/116/19 131/117/19
f 49/118/20 50/119/20 82/120/20 81/121/20
f 9/122/21 153/123/21 128/109/21 11/108/21
f 42/124/22 41/125/22 69/126/22 70/127/22
f 154/128/23 40/129/23 126/130/23 127/131/23
f 155/132/22 39/133/22 67/134/22 68/135/22
f 7/136/4 157/137/4 153/138/4 9/139/4
f 38/140/4 37/141/4 41/142/4 42/143/4
f 158/144/4 36/145/4 40/129/4 154/128/4
f 159/146/4 35/147/4 39/148/4 155/149/4
f 5/150/3 161/151/3 157/137/3 7/136/3
f 34/152/3 33/153/3 37/141/3 38/140/3
f 162/154/3 32/155/3 36/145/3 158/144/3
f 163/156/3 31/157/3 35/147/3 159/146/3
f 3/158/2 165/159/2 161/151/2 5/150/2
f 30/160/2 29/161/2 33/153/2 34/152/2
f 166/162/2 28/163/2 32/155/2 162/154/2
f 167/164/2 27/165/2 31/157/2 163/156/2
f 1/49/1 134/48/1 165/166/1 3/167/1
f 23/53/1 136/52/1 29/168/1 30/169/1
f 24/57/1 138/56/1 28/170/1 166/171/1
f 25/61/1 26/60/1 27/172/1 167/173/1
f 43/174/19 44/175/19 126/115/19 125/176/19
f 45/177/19 46/178/19 128/179/19 127/114/19
f 48/180/19 47/181/19 129/182/19 130/116/19
f 50/183/19 49/184/19 131/117/19 132/185/19
f 46/178/19 50/183/19 132/185/19 128/179/19
f 49/184/19 45/177/19 127/114/19 131/117/19
f 44/175/19 48/180/19 130/116/19 126/115/19
f 47/181/19 43/174/19 125/176/19 129/182/19
f 92/186/24 84/187/24 88/188/24 93/189/24
f 75/190/25 79/191/25 87/192/25 83/193/25
f 48/194/26 44/195/26 76/196/26 80/197/26
f 50/198/27 46/199/27 78/200/27 82/201/27
f 47/202/20 48/203/20 80/204/20 79/205/20
f 44/206/18 43/207/18 75/208/18 76/209/18
f 43/210/28 47/211/28 79/191/28 75/190/28
f 45/212/29 49/213/29 81/214/29 77/215/29
f 86/216/30 85/217/30 89/218/30 90/219/30
f 84/187/31 83/220/31 87/221/31 88/188/31
f 81/121/32 82/120/32 90/222/32 89/223/32
f 78/113/33 77/112/33 85/224/33 86/225/33
f 91/226/33 76/209/33 84/227/33 92/228/33
f 82/201/13 78/200/13 86/229/13 90/230/13
f 79/205/32 80/204/32 88/231/32 87/232/32
f 76/209/33 75/208/33 83/233/33 84/227/33
f 93/234/32 88/231/32 80/204/32 94/235/32
f 94/236/34 80/237/34 76/238/34 91/239/34
f 81/240/35 94/236/35 91/239/35 77/241/35
f 89/223/32 93/234/32 94/235/32 81/121/32
f 77/112/33 91/226/33 92/228/33 85/224/33
f 85/217/36 92/186/36 93/189/36 89/218/36
f 2/242/25 4/243/25 95/244/25 96/245/25
f 4/243/25 6/246/25 97/247/25 95/244/25
f 6/246/25 8/248/25 98/249/25 97/247/25
f 8/248/25 10/250/25 99/251/25 98/249/25
f 10/250/25 12/252/25 100/253/25 99/251/25
f 12/252/25 14/254/25 101/255/25 100/253/25
f 14/254/25 16/256/25 102/257/25 101/255/25
f 16/256/25 18/258/25 103/259/25 102/257/25
f 117/260/37 104/261/37 121/262/37 123/263/37
f 20/264/25 22/265/25 105/266/25 104/267/25
f 22/265/25 2/242/25 96/245/25 105/266/25
f 106/268/25 107/269/25 116/270/25 115/271/25 114/272/25 113/273/25 112/274/25 111/275/25 110/276/25 109/277/25 108/278/25
f 4/279/38 2/27/38 107/30/38 106/280/38
f 18/281/39 16/282/39 113/283/39 114/284/39
f 12/285/40 10/286/40 110/287/40 111/288/40
f 6/289/41 4/290/41 106/291/41 108/292/41
f 20/293/42 18/294/42 114/295/42 115/296/42
f 14/297/43 12/285/43 111/288/43 112/298/43
f 8/299/44 6/289/44 108/292/44 109/300/44
f 22/301/45 20/302/45 115/303/45 116/304/45
f 16/305/46 14/297/46 112/298/46 113/306/46
f 10/307/47 8/299/47 109/300/47 110/308/47
f 120/309/25 119/310/25 117/311/25 118/312/25
f 18/294/42 20/293/42 119/313/42 120/314/42
f 103/315/48 18/316/48 120/317/48 118/318/48
f 20/319/49 104/261/49 117/260/49 119/320/49
f 121/321/9 122/322/9 124/323/9 123/324/9
f 104/325/50 103/326/50 122/327/50 121/328/50
f 103/315/51 118/318/51 124/329/51 122/330/51
f 118/331/52 117/332/52 123/333/52 124/334/52
f 68/335/53 67/336/53 125/337/53 126/338/53
f 70/339/53 69/340/53 127/341/53 128/342/53
f 71/343/54 72/344/54 130/345/54 129/346/54
f 73/347/54 74/348/54 132/349/54 131/350/54
f 66/351/55 23/352/55 134/353/55 133/354/55
f 136/355/56 65/356/56 135/357/56 24/358/56
f 137/359/57 25/360/57 138/361/57 64/362/57
f 26/363/58 63/364/58 139/365/58 140/366/58
f 62/367/59 66/351/59 133/354/59 141/368/59
f 65/356/60 61/369/60 142/370/60 135/357/60
f 143/371/61 137/359/61 64/362/61 60/372/61
f 63/364/62 59/373/62 144/374/62 139/365/62
f 58/375/63 62/367/63 141/368/63 145/376/63
f 61/369/64 57/377/64 146/378/64 142/370/64
f 147/379/65 143/371/65 60/372/65 56/380/65
f 59/373/66 55/381/66 148/382/66 144/374/66
f 54/383/67 58/375/67 145/376/67 149/384/67
f 57/377/68 53/385/68 150/386/68 146/378/68
f 151/387/69 147/379/69 56/380/69 52/388/69
f 55/381/70 51/389/70 152/390/70 148/382/70
f 74/98/71 54/101/71 149/391/71 132/392/71
f 53/100/72 73/99/72 131/393/72 150/394/72
f 72/104/73 151/107/73 52/395/73 130/396/73
f 51/106/74 71/105/74 129/397/74 152/398/74
f 42/124/75 70/127/75 128/399/75 153/400/75
f 69/126/76 41/125/76 154/401/76 127/402/76
f 155/132/77 68/135/77 126/403/77 40/404/77
f 67/134/78 39/133/78 156/405/78 125/406/78
f 38/407/79 42/408/79 153/409/79 157/410/79
f 41/411/80 37/412/80 158/413/80 154/414/80
f 159/415/81 155/416/81 40/417/81 36/418/81
f 39/419/82 35/420/82 160/421/82 156/422/82
f 34/423/83 38/407/83 157/410/83 161/424/83
f 37/412/84 33/425/84 162/426/84 158/413/84
f 163/427/85 159/415/85 36/418/85 32/428/85
f 35/420/86 31/429/86 164/430/86 160/421/86
f 30/431/87 34/423/87 161/424/87 165/432/87
f 33/425/88 29/433/88 166/434/88 162/426/88
f 167/435/89 163/427/89 32/428/89 28/436/89
f 31/429/90 27/437/90 168/438/90 164/430/90
f 23/352/91 30/431/91 165/432/91 134/353/91
f 29/433/92 136/355/92 24/358/92 166/434/92
f 25/360/93 167/435/93 28/436/93 138/361/93
f 27/437/94 26/363/94 140/366/94 168/438/94
